<?xml version="1.0" encoding="UTF-8"?>
<svg id="Ebene_2" data-name="Ebene 2" xmlns="http://www.w3.org/2000/svg" viewBox="0 0 271.22 160.1">
  <defs>
    <style>
      .cls-1 {
        fill: #fff;
      }
    </style>
  </defs>
  <g id="Ebene_1-2" data-name="Ebene 1">
    <g>
      <path class="cls-1" d="M167.06,37.04c0-6.25-.04-12.16,.02-18.07,.03-3.07,.65-5.95,3.22-8.05,3.22-2.63,6.79-2.86,10.43-1.27,3.33,1.46,5.02,4.3,5.1,7.9,.12,5.44,.05,10.89,.06,16.34,0,.94,0,1.87,0,3.14,.99,0,1.83,0,2.66,0,10.58,0,21.16-.04,31.74,.01,7.32,.04,13.55,2.44,18.15,8.46,3.07,4.02,4.26,8.62,4.27,13.5,.07,26.37,.09,52.73,0,79.1-.03,10.84-5.96,18.54-16.1,21.19-2.11,.55-4.36,.75-6.55,.75-29.05,.05-58.1,.04-87.15,.02-9.1,0-16.4-3.46-20.37-11.93-1.45-3.11-2.21-6.82-2.23-10.27-.18-26.21-.13-52.42-.08-78.63,.02-10.89,6.06-18.9,16.12-21.45,2.19-.55,4.52-.72,6.79-.74,10.34-.07,20.68-.03,31.02-.03,.86,0,1.71,0,2.9,0Zm49.73,47.33c0-6.54-5.34-11.91-11.86-11.9-6.58,0-11.91,5.32-11.92,11.87,0,6.56,5.3,11.87,11.89,11.9,6.51,.03,11.88-5.33,11.89-11.87Zm-68.66-11.9c-6.52-.04-11.91,5.29-11.96,11.83-.05,6.53,5.27,11.91,11.81,11.95,6.59,.04,11.88-5.18,11.96-11.8,.08-6.54-5.24-11.94-11.81-11.98Zm-.06,59.3c1.65,0,3.31,.08,4.95-.02,2.83-.18,4.52-1.98,4.54-4.71,.02-2.73-1.65-4.67-4.45-4.78-3.38-.13-6.76-.14-10.14,0-2.78,.12-4.47,2.1-4.43,4.8,.04,2.69,1.75,4.5,4.57,4.68,1.64,.1,3.3,.02,4.95,.02Zm28.62-9.53s0,0,0,0c-1.73,0-3.46-.09-5.19,.02-2.81,.18-4.52,2.03-4.53,4.72-.01,2.7,1.68,4.65,4.47,4.76,3.37,.14,6.76,.14,10.14,0,2.79-.12,4.46-2.09,4.41-4.82-.04-2.64-1.66-4.45-4.35-4.65-1.64-.12-3.3-.02-4.95-.02Zm28.23,9.53c1.65,0,3.31,.08,4.95-.02,2.83-.18,4.52-1.99,4.54-4.71,.02-2.73-1.66-4.66-4.46-4.78-3.3-.14-6.61-.13-9.9-.02-2.93,.1-4.7,2.05-4.66,4.83,.04,2.68,1.76,4.5,4.58,4.68,1.64,.1,3.3,.02,4.95,.02Z"/>
      <path class="cls-1" d="M100.54,74.94v56.34c-9.25,1.73-18.45-3.18-18.71-14.48-.2-8.98-.14-17.98-.01-26.96,.12-8.79,6.19-14.72,14.98-14.9,1.17-.02,2.34,0,3.74,0Z"/>
      <path class="cls-1" d="M252.51,74.59c3.13,.43,6.12,.43,8.83,1.3,6.19,2.01,9.71,7.1,9.79,13.82,.11,9.07,.14,18.14,0,27.2-.14,8.58-6.07,14.4-14.66,14.73-1.25,.05-2.51,0-3.95,0v-57.07Z"/>
    </g>
    <g>
      <path class="cls-1" d="M6.14,97.86c6.25-6.12,12.39-12.09,18.48-18.1,3.63-3.58,7.2-7.22,10.76-10.86,.65-.66,1.17-.91,2.17-.54,5.2,1.91,10.67-1.18,12.16-6.77,1.33-4.98-2.15-10.34-7.34-11.34-8.12-1.56-12.93,6.18-10.88,12.23,.17,.51,0,1.41-.38,1.78-9.58,9.6-19.2,19.16-28.82,28.72-.15,.14-.34,.24-.5,.36-1.75-1.37-2.26-3.54-1.41-6.12,3.09-9.31,6.18-18.63,9.28-27.94,2.57-7.71,5.19-15.41,7.75-23.13,1.46-4.39,4.28-7.46,8.7-8.83,9.52-2.94,19.09-5.75,28.62-8.67,1.13-.34,1.85-.08,2.64,.72,7.76,7.84,15.57,15.64,23.31,23.51,.46,.47,.73,1.55,.55,2.18-2.18,7.45-4.44,14.87-6.72,22.3-.77,2.51-1.5,5.03-2.44,7.47-1.82,4.74-5.75,6.95-10.32,8.45-16.15,5.3-32.28,10.69-48.42,16.04-2.47,.82-4.82,.95-7.23-1.45Z"/>
      <path class="cls-1" d="M85.68,38.68c-3.7-3.76-7.32-7.47-10.98-11.16-4.03-4.06-8.07-8.11-12.16-12.11-.96-.94-1.05-1.55-.04-2.54,3.03-2.98,5.94-6.08,8.95-9.1,4.94-4.96,11.84-5.04,16.86-.19,2.72,2.63,5.4,5.29,8.03,8,4.93,5.07,4.88,11.83-.11,16.83-3.04,3.05-6.12,6.06-9.19,9.08-.37,.36-.78,.68-1.36,1.19Z"/>
    </g>
  </g>
</svg>