<?xml version="1.0" encoding="UTF-8"?>
<svg id="Ebene_2" data-name="Ebene 2" xmlns="http://www.w3.org/2000/svg" viewBox="0 0 199.79 159.96">
  <defs>
    <style>
      .cls-1 {
        fill: #fff;
      }
    </style>
  </defs>
  <g id="Ebene_1-2" data-name="Ebene 1">
    <g>
      <path class="cls-1" d="M122.05,159.85h-2.76c-36,0-72-.14-107.99,.11-7.89,.05-11.97-5.58-11.2-12.58,1.31-11.93,4.92-22.74,12.54-32.05,8.69-10.61,19.97-16.91,33.43-19.3,3.19-.56,6.45-1,9.67-.99,11.24,.01,22.5-.1,33.72,.49,11.03,.57,20.82,4.89,29.33,11.93,.65,.54,.95,1.84,.96,2.79,.06,11.5,.03,23,.05,34.5,0,2.58-.1,5.19,.27,7.73,.35,2.42,1.25,4.75,1.98,7.38Z"/>
      <path class="cls-1" d="M189.79,99.82c.6,.15,.99,.27,1.39,.35,5.95,1.26,8.57,4.35,8.59,10.43,.04,12.91,.01,25.81,.01,38.72,0,.17,0,.33,0,.5-.22,6.13-3.95,9.9-10.11,10-5.99,.1-11.99,.03-17.99,.03-9.83,0-19.65,0-29.48,0-8.88,0-12.28-3.37-12.28-12.18,0-11.57,0-23.15,0-34.72,0-8.6,1.64-10.81,10-13.18,0-4.4-.06-8.88,.02-13.35,.08-4.53,.86-8.92,2.91-13.03,3.61-7.26,9.63-11.49,17.41-12.77,9.92-1.63,18.45,1.25,24.66,9.52,3.53,4.7,4.7,10.22,4.84,15.97,.11,4.57,.02,9.14,.02,13.71Zm-14.89,.04c0-5.26,.09-10.39-.02-15.52-.11-5.24-4.03-9.09-9.39-9.44-5.15-.34-9.9,2.94-10.35,8.01-.49,5.58-.11,11.23-.11,16.95h19.87Z"/>
      <path class="cls-1" d="M69.82,79.83c-21.92-.04-40.01-18.19-39.89-40.01C30.06,17.95,47.92,.1,69.78,0c21.83-.1,39.97,18,39.99,39.9,.02,21.94-18.02,39.97-39.95,39.93Z"/>
    </g>
  </g>
</svg>