<?xml version="1.0" encoding="UTF-8"?>
<svg id="Ebene_2" data-name="Ebene 2" xmlns="http://www.w3.org/2000/svg" viewBox="0 0 147.67 138.11">
  <defs>
    <style>
      .cls-1 {
        fill: #fff;
      }
    </style>
  </defs>
  <g id="Ebene_1-2" data-name="Ebene 1">
    <g>
      <g>
        <path class="cls-1" d="M99.83,24.56c0,4.92,.27,9.87-.06,14.77-.49,7.1-4.17,12.49-10.1,16.32-4.2,2.71-8.95,3.46-13.85,3.35-2.41-.05-3.98-1.43-4.75-3.6-.78-2.21-.56-4.37,1.04-6.24,1.27-1.48,3-1.72,4.8-1.88,1.66-.15,3.38-.22,4.94-.73,3.95-1.28,6.84-5.99,6.5-10.13-.09-1.05-.72-1-1.43-1-3.21,0-6.41,0-9.62,0-7.4-.02-12.58-5.16-12.62-12.54-.02-3.5-.02-7,0-10.5,.03-7.18,5.12-12.25,12.33-12.3,3.5-.02,7-.01,10.5,0,7.47,.02,12.43,4.89,12.53,12.36,.05,4.04,0,8.08,0,12.12-.07,0-.14,0-.22,0Z"/>
        <path class="cls-1" d="M147.67,24.61c-.23,5.41-.15,10.85-.77,16.21-.74,6.37-4.32,11.22-9.65,14.68-4.49,2.91-9.54,3.89-14.83,3.35-2.55-.26-4.44-2.82-4.47-5.61-.03-2.78,1.72-5.19,4.25-5.64,2.03-.36,4.12-.37,6.12-.82,5.11-1.15,7.37-6.09,7.41-10.32,0-1.04-.65-1.04-1.38-1.04-3.4,0-6.8,.03-10.2,0-5.48-.06-9.98-3.42-11.58-8.66-.23-.74-.35-1.54-.36-2.32-.03-4.53-.1-9.06,.02-13.58,.16-5.68,4.99-10.41,11.01-10.69,4.38-.2,8.78-.24,13.15,.02,6.41,.39,10.95,5.4,11.05,11.85,.06,4.19,.01,8.37,.01,12.56,.07,0,.15,0,.22,0Z"/>
      </g>
      <path class="cls-1" d="M0,89.57v-.97c0-11.73,8.48-21.74,20.04-23.67,7.65-1.28,15.44,1.23,20.92,6.7l2.01,2.01,2.01-2.01c5.47-5.47,13.26-7.97,20.92-6.7,11.57,1.93,20.04,11.94,20.04,23.67v.97c0,6.97-2.89,13.63-7.99,18.38l-30.33,28.32c-1.26,1.18-2.92,1.83-4.65,1.83s-3.39-.65-4.65-1.83L7.99,107.96c-5.1-4.75-7.99-11.41-7.99-18.38Z"/>
    </g>
  </g>
</svg>