<?xml version="1.0" encoding="UTF-8"?>
<svg id="Ebene_2" data-name="Ebene 2" xmlns="http://www.w3.org/2000/svg" viewBox="0 0 164.18 131.19">
  <defs>
    <style>
      .cls-1 {
        fill: #fff;
      }
    </style>
  </defs>
  <g id="Ebene_1-2" data-name="Ebene 1">
    <g>
      <path class="cls-1" d="M164.08,34.22c-5.31-2.83-10.15-.94-15.02,.71-6.4,2.17-12.84,4.22-19.22,6.44-1.48,.52-2.16,.15-2.91-1.11-2.55-4.29-5.2-8.51-7.83-12.75-2.55-4.1-5.85-4.13-8.38-.07-3.33,5.33-6.64,10.68-9.96,16.01-.39,.62-.81,1.22-1.31,1.96-1.19-1.59-2.27-3.08-3.4-4.53-2.12-2.7-5.09-2.71-7.2,0-4.5,5.76-8.99,11.54-13.47,17.32-.38,.48-.75,.99-1.01,1.54-1.37,2.89,.43,5.88,3.63,5.91,5.33,.06,10.66,.02,16.16,.02v16.12c-.33,.05-.78,.18-1.23,.18-8.89,.01-17.78,.07-26.67,0-8.13-.07-14.22-4.71-16.3-12.39-.46-1.69-.64-3.5-.65-5.26-.05-15.59-.04-31.18-.02-46.77C49.29,7.18,56.45,.02,66.84,.01c26.53-.02,53.06-.02,79.59,0,10.5,0,17.61,7.14,17.64,17.65,.02,5.39,0,10.78,0,16.56Zm-90.28-1.39c4.86,.01,8.28-3.35,8.3-8.18,.03-4.77-3.47-8.32-8.21-8.34-4.77-.01-8.3,3.49-8.3,8.24,0,4.85,3.38,8.27,8.21,8.28Z"/>
      <path class="cls-1" d="M40.96,24.63c0,1.09,0,1.9,0,2.71,0,21.47,0,42.94,0,64.4,0,4.55,2.23,7.71,6.08,8.58,.98,.22,2.03,.22,3.05,.22,12.1,.01,24.2,0,36.82,0-.76,.51-1.14,.79-1.54,1.02-4.79,2.78-8.79,6.29-10.52,11.77-.39,1.23-1.07,1.48-2.24,1.48-18.46-.03-36.92,.01-55.38-.04C7.14,114.77,.07,107.7,.04,97.6c-.06-18.6-.06-37.19,0-55.79,.03-9.46,6.28-16.13,15.85-17.12,.68-.07,1.37-.06,2.05-.06,7.58,0,15.16,0,23.02,0Zm-20.03,26.68c1.7,.05,4.43,.33,5.09-2.2,.66-2.51,.76-5.48,.05-7.94-.89-3.08-4.11-2.17-6.54-2.28-2-.09-3.96,.19-4.75,2.33-.43,1.17-.46,2.53-.48,3.8-.05,5.22,1.02,6.28,6.63,6.28Zm-.54,24.59c.82,0,1.64,.06,2.45-.01,2.05-.19,3.5-1.4,3.72-3.44,.2-1.81,.24-3.69,0-5.5-.4-2.96-2.45-3.77-8.02-3.44-2.61,.15-4.04,1.51-4.24,4.05-.06,.75-.02,1.5-.02,2.25,0,5.02,1.1,6.12,6.11,6.08Zm.16,12.28c-2.18-.05-4.97-.44-5.6,2.12-.64,2.57-.7,5.61,.06,8.12,.89,2.91,4.05,2.03,6.43,2.14,1.94,.09,4.17-.16,4.59-2.18,.53-2.57,.43-5.36,.04-7.97-.13-.87-1.93-1.63-3.09-2.16-.68-.31-1.61-.06-2.42-.06Z"/>
      <path class="cls-1" d="M102.63,107.05c0-1.46,0-2.75,0-4.04,0-12.58,0-25.16,0-37.74,0-4.72,1.3-6.56,5.7-8.03,15.41-5.14,30.88-10.11,46.2-15.5,4.95-1.74,9.76,1.34,9.66,7.02-.3,16.95-.33,33.91-.02,50.86,.16,8.88-5.29,13.13-11.84,14.56-6.25,1.36-12.18,.46-17.09-3.93-5.65-5.05-4.8-12.74,1.68-16.76,4.28-2.65,8.92-3.67,13.92-2.85,.26,.04,.54,0,.91,0v-22.71c-5.28,1.75-10.38,3.43-15.49,5.13-6.54,2.17-13.06,4.4-19.62,6.5-1.43,.46-1.86,1.13-1.85,2.6,.06,11.28-.22,22.57,.11,33.84,.27,9.07-5.31,13.19-11.99,14.63-6.1,1.31-11.91,.38-16.76-3.79-5.81-5-5.05-12.81,1.47-16.92,4.19-2.64,7.48-3.28,15-2.88Z"/>
    </g>
  </g>
</svg>