<?xml version="1.0" encoding="UTF-8"?>
<svg id="Ebene_2" data-name="Ebene 2" xmlns="http://www.w3.org/2000/svg" viewBox="0 0 157.41 156.9">
  <defs>
    <style>
      .cls-1 {
        fill: #fff;
      }
    </style>
  </defs>
  <g id="Ebene_1-2" data-name="Ebene 1">
    <g>
      <path class="cls-1" d="M157.25,79.58c.23,14.01,.2,28.03,.01,42.04-.17,12.18-5.78,21.24-17.03,26.11-3.49,1.51-7.64,1.93-11.51,2.03-10.07,.27-20.16,.05-30.24,.15-1.05,.01-2.42,.6-3.07,1.39-2.75,3.38-6.21,5.51-10.49,5.56-5.21,.06-10.52,.11-15.61-.83-6.06-1.11-10.31-7.64-10.11-14.01,.2-6.64,4.29-12.27,10.67-13.2,5.44-.8,11.07-.74,16.59-.5,3.32,.14,6.18,2.09,8.23,4.84,1.14,1.52,2.51,2.01,4.41,2,9.75-.09,19.51-.03,29.26-.04,9.66,0,14.38-4.71,14.39-14.31,0-7.05,0-14.1,0-21.15,.15,0,.3-.01,.45-.02-.48-10.38-.42-20.83-1.58-31.13-1.59-14.16-8.28-26.07-18.51-35.95-7.12-6.87-15.31-12-24.85-14.84-10.03-3-20.17-3.76-30.57-2.01-17.79,3-31.53,12.23-41.84,26.75-6.14,8.65-9.7,18.38-10.57,28.95-.51,6.19-.49,12.43-.65,18.65-.15,5.55-3.88,8.67-9.19,7.63-2.82-.55-5.18-3.35-5.31-6.87-.51-14.5,.18-28.92,6.03-42.45,4.54-10.52,10.84-19.93,19.44-27.74C37.82,9.55,52.07,2.89,68.31,.73c17.59-2.33,34.29,.91,49.67,9.78,13.9,8.02,24.3,19.44,31.39,33.92"/>
      <path class="cls-1" d="M40.8,91.09c0,5.32,.04,10.65,0,15.97-.06,6.92-2.12,10.53-6.07,10.76-.65,.04-1.31,.03-1.96,0-5.08-.26-9.12-5.18-10.83-13.41-.41-1.97-.67-4.15-.68-6.23-.02-5.72-.1-11.48,.25-17.15,.58-9.47,4.7-16.22,10.11-17.11,1.25-.21,2.52-.21,3.78-.05,3.35,.42,5.35,4.5,5.4,11.01,.04,5.4,0,10.81,0,16.22Z"/>
      <path class="cls-1" d="M116.96,91.09c0,5.32-.04,10.65,0,15.97,.06,6.92,2.12,10.53,6.07,10.76,.65,.04,1.31,.03,1.96,0,5.08-.26,9.12-5.18,10.83-13.41,.41-1.97,.67-4.15,.68-6.23,.02-5.72,.1-11.48-.25-17.15-.58-9.47-4.7-16.22-10.11-17.11-1.25-.21-2.52-.21-3.78-.05-3.35,.42-5.35,4.5-5.4,11.01-.04,5.4,0,10.81,0,16.22Z"/>
    </g>
    <g>
      <path class="cls-1" d="M108.73,74.54c0-4.82-3.94-8.77-8.74-8.77-4.85,0-8.78,3.92-8.78,8.75,0,4.83,3.91,8.75,8.76,8.77,4.8,.02,8.76-3.93,8.76-8.75Z"/>
      <path class="cls-1" d="M58.13,65.76c-4.8-.03-8.78,3.9-8.81,8.72-.04,4.81,3.88,8.78,8.7,8.81,4.86,.03,8.75-3.82,8.81-8.7,.06-4.82-3.86-8.8-8.7-8.83Z"/>
      <path class="cls-1" d="M58.08,109.46c1.22,0,2.44,.06,3.65-.01,2.09-.13,3.33-1.46,3.35-3.47,.02-2.01-1.22-3.44-3.28-3.52-2.49-.1-4.98-.1-7.47,0-2.05,.09-3.29,1.55-3.26,3.54,.03,1.98,1.29,3.32,3.37,3.45,1.21,.08,2.43,.01,3.65,.01Z"/>
      <path class="cls-1" d="M79.17,102.44s0,0,0,0c-1.27,0-2.55-.07-3.82,.02-2.07,.13-3.33,1.49-3.34,3.48-.01,1.99,1.24,3.43,3.29,3.51,2.49,.1,4.98,.1,7.47,0,2.06-.09,3.28-1.54,3.25-3.55-.03-1.94-1.22-3.28-3.21-3.43-1.21-.09-2.43-.02-3.65-.02Z"/>
      <path class="cls-1" d="M99.98,109.46c1.22,0,2.44,.06,3.65-.01,2.09-.13,3.33-1.46,3.35-3.47,.02-2.01-1.22-3.44-3.28-3.52-2.43-.1-4.87-.1-7.3-.01-2.16,.07-3.46,1.51-3.43,3.56,.03,1.98,1.29,3.32,3.37,3.45,1.21,.08,2.43,.01,3.65,.01Z"/>
    </g>
    <path class="cls-1" d="M70.84,53.34c0-6.15-.04-11.97,.01-17.78,.03-3.02,.64-5.85,3.17-7.93,3.17-2.59,6.69-2.82,10.26-1.25,3.28,1.44,4.94,4.23,5.02,7.78,.12,5.36,.05,10.72,.06,16.08,0,.92,0,1.84,0,3.09h-18.53Z"/>
  </g>
</svg>