<?xml version="1.0" encoding="UTF-8"?>
<svg id="Ebene_2" data-name="Ebene 2" xmlns="http://www.w3.org/2000/svg" viewBox="0 0 215.24 144.01">
  <defs>
    <style>
      .cls-1 {
        fill: #fff;
      }
    </style>
  </defs>
  <g id="Ebene_1-2" data-name="Ebene 1">
    <g>
      <path class="cls-1" d="M215.24,52.16c.38,19.5-14.95,34.98-34.12,35.01-19.1,.03-34.22-14.95-34.29-34.07-.07-18.74,13.94-34.25,34.11-34.35,19.62-.1,33.74,14.86,34.3,33.41Zm-57.17,.98c-.05,1.63,1.33,3.43,3.47,3.67,2.17,.24,3.78-1.15,4.23-3.67,.13-.75,.25-1.5,.35-2.26,.69-5.09,3.31-8.97,7.87-11.18,2.27-1.11,4.93-1.45,7.45-2.02,2.28-.51,3.61-1.99,3.42-4.07-.18-2.03-1.85-3.73-4.02-3.48-3.06,.36-6.31,.61-9.06,1.85-8.62,3.89-13.07,10.89-13.71,21.16Z"/>
      <path class="cls-1" d="M188.5,94.63c.06,.69,.14,1.19,.14,1.69,0,11.96,.03,23.91,0,35.87,0,3.21-.96,6.05-4.01,7.68-4.14,2.22-10.07,.21-10.81-5.14-.23-1.69-.36-3.41-.36-5.12-.03-10.94,.02-21.88-.05-32.82-.01-1.87,.51-2.31,2.39-2.22,4.16,.2,8.34,.06,12.72,.06Z"/>
    </g>
    <g>
      <path class="cls-1" d="M.06,54.07H2.74c40.17,0,80.34,.02,120.51-.05,2.25,0,2.93,.54,2.92,2.86-.09,24.04-.04,48.07-.06,72.11,0,9.34-5.73,15.02-15.05,15.02-31.99,0-63.97,0-95.96,0-9.36,0-15.04-5.63-15.05-14.96-.01-24.19,0-48.37,0-72.56,0-.67,0-1.34,0-2.42Z"/>
      <path class="cls-1" d="M.14,44.98c0-5.12-.35-9.94,.08-14.69,.7-7.63,6.38-12.11,14.91-12.3,3.08-.07,6.17-.15,9.23,.03,2.26,.14,2.78-.72,2.73-2.83-.06-2.76,.14-5.54,.47-8.29C28.06,2.89,31.76,0,36.05,.02c4.29,.02,7.97,2.91,8.45,6.91,.35,2.97,.46,5.97,.49,8.97,.02,1.55,.49,2.11,2.08,2.1,10.66-.05,21.32-.06,31.99,0,1.77,.01,2.09-.69,2.12-2.27,.06-3.14,.12-6.3,.61-9.39C82.36,2.64,86.33-.15,90.22,0c4.41,.17,7.95,3.02,8.37,7.02,.31,2.9,.33,5.84,.34,8.76,0,1.65,.61,2.22,2.26,2.22,4.27,.02,8.55,.08,12.81,.36,7.74,.52,11.8,6.9,12.08,13.6,.15,3.67-.04,7.36,.07,11.04,.05,1.65-.63,2.01-2.12,1.99-5.26-.07-10.51-.03-15.77-.03-34.99,0-69.98,0-104.97,0-.97,0-1.93,0-3.15,0Z"/>
    </g>
  </g>
</svg>