<?xml version="1.0" encoding="UTF-8"?>
<svg id="Ebene_2" data-name="Ebene 2" xmlns="http://www.w3.org/2000/svg" viewBox="0 0 199.29 159.36">
  <defs>
    <style>
      .cls-1 {
        fill: #fff;
      }
    </style>
  </defs>
  <g id="Ebene_1-2" data-name="Ebene 1">
    <path class="cls-1" d="M179.54,129.52c-.94,18.38-14.35,29.32-29.36,29.81-5.28,.17-10.41-1.05-15.08-3.68-4.73-2.66-8.44-6.36-11.29-11-2.83-4.6-3.59-9.73-4.12-15.01h-40.05c-.4,9.82-4.26,17.88-12.07,23.85-5.28,4.03-11.41,5.85-17.94,5.87-12.38,.03-28.87-8.97-29.82-29.83-1.27,0-2.56,.01-3.85,0-9.64-.11-15.87-6.09-15.9-15.73C-.02,81.13-.02,48.47,.06,15.81,.08,6.18,6.3,.05,15.93,.04,48.44-.01,80.95,0,113.46,.03c9.64,.01,15.91,6.33,16.02,15.96,.05,4.55,0,9.09,0,13.94,3.95,0,7.59,.2,11.21-.04,8.62-.57,15.63,2.22,21.57,8.65,7.09,7.69,14.68,14.92,22.01,22.4,3.9,3.99,5.12,8.97,5.1,14.4-.04,10.39-.01,20.78-.01,31.16,0,.98,0,1.97,0,2.97,.71,.18,1.18,.32,1.66,.42,5.67,1.21,8.71,5.15,8.22,10.66-.48,5.39-4.3,8.81-10.09,8.94-3.14,.07-6.29,.01-9.61,.01ZM73.06,49.75c.52-1.13,.84-1.88,1.2-2.6,3.2-6.48,6.44-12.93,9.59-19.43,1.8-3.71,.09-7.48-3.66-7.63-1.65-.07-3.6,.75-4.99,1.75-6.87,4.95-13.61,10.09-20.38,15.18-5.84,4.39-11.67,8.79-17.51,13.19-2.04,1.54-3.12,3.51-2.28,6.06,.84,2.53,2.87,3.51,5.42,3.58,1,.03,1.99,0,2.99,0,4.19,0,8.37,0,12.97,0-3.28,6.67-6.36,12.9-9.41,19.15-.73,1.49-1.56,2.97-1.98,4.55-.99,3.73,2.52,7.02,6.22,5.89,1.01-.31,1.99-.86,2.84-1.49,12.57-9.4,25.13-18.82,37.67-28.25,2.54-1.91,3.42-4.18,2.64-6.4-.8-2.26-2.91-3.54-5.98-3.55-4.98-.02-9.96,0-15.36,0Zm97.03,29.9c-.54-2.5-.28-5.41-1.61-6.83-7.02-7.52-14.44-14.66-21.75-21.91-.5-.5-1.22-1.08-1.84-1.09-5.03-.09-10.07-.05-15.2-.05v29.89h40.41ZM49.72,144.62c8.32,0,15.11-6.76,15.1-15.04-.01-8.25-6.83-14.98-15.16-14.96-8.24,.02-14.87,6.63-14.92,14.89-.06,8.33,6.66,15.1,14.98,15.11Zm114.83-14.86c.06-8.39-6.52-15.09-14.9-15.17-8.35-.09-15.14,6.6-15.16,14.93-.02,8.32,6.71,15.07,15.04,15.08,8.17,.01,14.96-6.69,15.02-14.84Z"/>
  </g>
</svg>