<?xml version="1.0" encoding="UTF-8"?>
<svg id="Ebene_2" data-name="Ebene 2" xmlns="http://www.w3.org/2000/svg" viewBox="0 0 139.33 159.51">
  <defs>
    <style>
      .cls-1 {
        fill: #fff;
      }
    </style>
  </defs>
  <g id="Ebene_1-2" data-name="Ebene 1">
    <g>
      <path class="cls-1" d="M128.82,70.04c.6,1.35,1.07,2.47,1.6,3.56,3.66,7.56,7.04,15.24,8.31,23.62,1.5,9.85,.11,19.34-4.15,28.38-.6,1.27-1.14,2.65-2.04,3.68-2.58,2.96-3.18,6.3-3.06,10.13,.15,4.79-.04,9.63-.52,14.4-.34,3.4-3.41,5.52-6.93,5.49-3.45-.03-6.19-2.11-6.85-5.36-.39-1.92-.56-3.88-.89-6.22-29.79,15.76-59.5,15.75-89.44-.15-.08,1.57-.15,2.69-.2,3.81-.2,4.97-2.93,7.9-7.39,7.93-4.27,.03-7.25-3.14-7.34-8.03-.09-5.07,.05-10.14-.08-15.21-.03-1.32-.4-2.84-1.14-3.9C.81,120.83-1.72,108.19,1.17,94.94c1.64-7.52,5.33-14.59,8.1-21.86,.37-.98,.8-1.94,1.27-3.06-1.34-.42-2.44-.75-3.53-1.09C2.58,67.57-.13,63.91,0,59.51c.15-4.73,3.16-8.26,7.95-9.19,1.3-.25,2.64-.38,3.96-.38,38.57-.02,77.15-.03,115.72,0,3.71,0,7.32,.54,9.81,3.84,3.79,5.02,1.77,13.85-5.06,15.19-1.05,.21-2.06,.6-3.56,1.06Z"/>
      <path class="cls-1" d="M85.49,10.29c8.44,.52,14.55,7.25,13.97,15.54-.59,8.38-7.29,13.98-15.08,13.81-8.61-.19-15.04-7.36-14.49-15.67,.53-8.16,7.41-14.18,15.61-13.67Z"/>
      <path class="cls-1" d="M49.44,19.6c-5.77-.14-9.62-4.14-9.38-9.9C40.3,3.83,44.4-.19,49.86,0c5.68,.2,9.89,4.58,9.75,10.13-.15,5.75-4.41,9.72-10.17,9.46Z"/>
    </g>
  </g>
</svg>