<?xml version="1.0" encoding="UTF-8"?>
<svg id="Ebene_2" data-name="Ebene 2" xmlns="http://www.w3.org/2000/svg" viewBox="0 0 117.17 100.2">
  <defs>
    <style>
      .cls-1 {
        fill: #fff;
      }
    </style>
  </defs>
  <g id="Ebene_1-2" data-name="Ebene 1">
    <path class="cls-1" d="M89.85,.45c-10.44-1.74-21.05,1.67-28.51,9.13l-2.75,2.75-2.75-2.75C48.38,2.12,37.76-1.29,27.32,.45,11.56,3.08,0,16.72,0,32.71v1.33c0,9.5,3.94,18.58,10.89,25.06l41.35,38.61c1.72,1.6,3.98,2.49,6.34,2.49s4.62-.89,6.34-2.49l41.35-38.61c6.96-6.48,10.89-15.56,10.89-25.06v-1.33c0-16-11.56-29.64-27.32-32.27Zm-20.86,71.06h-18.55c-1.71,0-3.09-1.38-3.09-3.09s1.38-3.09,3.09-3.09h6.18v-28.23l-4.46,2.98c-1.42,.95-3.34,.57-4.29-.86-.95-1.43-.57-3.34,.85-4.29l9.27-6.18c.96-.64,2.17-.7,3.18-.15s1.63,1.58,1.63,2.72v34h6.18c1.71,0,3.09,1.38,3.09,3.09s-1.38,3.09-3.09,3.09Z"/>
  </g>
</svg>