<?xml version="1.0" encoding="UTF-8"?>
<svg id="Ebene_2" data-name="Ebene 2" xmlns="http://www.w3.org/2000/svg" viewBox="0 0 179.61 119.8">
  <defs>
    <style>
      .cls-1 {
        fill: #fff;
      }
    </style>
  </defs>
  <g id="Ebene_1-2" data-name="Ebene 1">
    <g>
      <path class="cls-1" d="M179.58,56.87c.31,13.23-1.9,26-6.96,38.26-3.04,7.37-7.27,14.03-12.02,20.38-2.88,3.85-7.78,5.21-11.99,3.46-4.28-1.78-6.92-5.66-5.98-9.81,.57-2.51,1.85-5.01,3.36-7.12,5.86-8.17,10.05-17.05,12.1-26.89,4.3-20.58,.32-39.47-11.72-56.7-1.32-1.89-2.6-3.91-3.38-6.06-1.31-3.61-.43-6.93,2.55-9.47,2.96-2.52,6.36-3.92,10.11-2.07,1.95,.96,3.9,2.36,5.23,4.05,10.55,13.35,16.3,28.69,18.34,45.49,.26,2.14,.25,4.32,.36,6.49Z"/>
      <path class="cls-1" d="M0,63.58c-.12-13.91,2.08-26.6,7.11-38.78,2.98-7.21,7.02-13.79,11.75-19.96,4.38-5.71,11.07-6.28,15.95-1.38,2.87,2.89,3.41,7.1,1.01,11.3-2.26,3.97-5.24,7.54-7.32,11.59-12.31,23.99-11.39,47.69,2.06,70.96,1.24,2.15,2.95,4.03,4.33,6.11,3.11,4.65,3.17,9.38,.25,12.71-4.42,5.05-11.44,4.92-15.81-.52C9.8,103.74,3.88,90.22,1.45,75.2,.79,71.1,.42,66.96,0,63.58Z"/>
      <path class="cls-1" d="M56.74,20.05c6.21,0,12.24,7.56,8.2,14.74-.57,1.01-1.24,1.98-1.97,2.88-10.75,13.16-10.85,30.99-.21,44.36,2.65,3.33,4.55,6.84,2.93,11.23-2.66,7.18-11.34,8.91-16.61,3.18-6.5-7.07-10.56-15.45-12.66-24.82-2.85-12.7-1.11-24.88,4.66-36.35,2.28-4.54,5.61-8.63,8.97-12.49,1.47-1.69,4.21-2.26,6.38-3.34,.1,.21,.2,.41,.3,.62Z"/>
      <path class="cls-1" d="M144.75,57.63c-.43,16.04-4.87,28.32-13.94,38.79-3.59,4.15-9.32,4.53-13.68,1.12-3.99-3.12-4.74-8.8-1.53-13.15,3.99-5.4,7.54-10.92,8.64-17.75,1.63-10.17-.11-19.51-6.34-27.87-.99-1.33-2.02-2.66-2.88-4.07-2.83-4.68-1.53-10.05,3.09-13.04,4.46-2.89,9.98-1.68,13.28,2.48,4.97,6.27,9.11,12.95,11,20.77,1.18,4.91,1.86,9.94,2.37,12.72Z"/>
      <path class="cls-1" d="M89.93,77.28c-7.81-.06-17.36-5.97-17.41-17.26-.05-11.14,9.23-17.31,17.28-17.36,7.83-.05,17.23,5.95,17.44,17.24,.17,9.25-7.98,17.36-17.32,17.39Z"/>
    </g>
  </g>
</svg>