<?xml version="1.0" encoding="UTF-8"?>
<svg id="Ebene_2" data-name="Ebene 2" xmlns="http://www.w3.org/2000/svg" viewBox="0 0 975.77 932.88">
  <defs>
    <style>
      .cls-1 {
        fill: #fff;
      }
    </style>
  </defs>
  <g id="Ebene_1-2" data-name="Ebene 1">
    <g>
      <path class="cls-1" d="M378.38,411.26c1.81-3.24,3.72-6.65,5.7-10.21-7.39-.93-8.2-2.3-6.01-9.41,4.27-13.88,13.57-24.11,24.36-33.16,2.22-1.86,3.03-3.03,1.96-6.08-2.42-6.93-4.13-14.12-6.3-21.84-2.9,4.48-5.66,9.05-8.77,13.36-1.11,1.54-3.23,3.56-4.62,3.38-1.54-.21-3.39-2.46-4.05-4.21-4.53-12.14-4.11-24.78-2.89-37.35,.65-6.66,2.38-13.22,3.72-20.38-3.51,2.24-6.57,4.47-9.89,6.19-1.89,.98-5.22,2.24-6.1,1.43-1.48-1.37-2.57-4.59-2.02-6.51,3.23-11.19,6.13-22.61,10.8-33.22,4.54-10.32,11.07-19.76,16.81-29.72-4.41,1.37-9.04,2.96-13.77,4.17-1.5,.38-3.87,.29-4.74-.62-.93-.98-1.34-3.69-.64-4.8,6.3-9.87,12.73-19.65,19.47-29.22,2.55-3.61,6-6.59,9.1-9.92-17.52-15.7-28.67-34.87-34.26-57.34-7.13-28.67-1.62-55.46,12.31-80.91,7.43-13.57,17.2-25.23,29.56-34.58,2.99-2.26,6.47-4.04,9.97-5.4,1.54-.6,4.16-.14,5.41,.89,.81,.67,.38,3.37-.11,4.98-2.66,8.64-6.09,17.08-8.2,25.84-8.26,34.32,1.53,63.61,25.45,88.87,3.68,3.89,6.55,5.3,12.08,2.91,7.63-3.3,15.98-4.96,24.86-7.57-3.96-3.04-7.91-5.7-11.37-8.9-1.54-1.43-3.05-4.11-2.74-5.91,.24-1.4,3.2-2.97,5.16-3.32,15.19-2.73,30.02,.13,44.8,3.32,1.09,.24,2.19,.41,4.9,.93-3.98-6.51-7.39-11.83-10.49-17.31-1.13-2-2.71-5.01-1.96-6.48,.78-1.53,4.12-2.46,6.34-2.45,12.23,.08,22.61,5.61,32.54,12,5.54,3.56,10.68,7.75,15.77,11.48,5.33-6.13,9.94-13.16,16.18-18.15,6.84-5.48,14.97-9.52,22.94-13.33,5.04-2.41,7.73,.53,6.54,6.11-1.5,7.04-2.99,14.08-4.45,20.96,11.06-2.29,21.43-4.64,31.88-6.52,4.21-.75,8.64-.82,12.91-.5,2.17,.16,5.11,1.39,6.04,3.06,.77,1.39-.41,4.44-1.56,6.21-2.23,3.44-5.05,6.49-7.61,9.69,.53,.46,.72,.78,.95,.8,11.76,1.23,11.87,1.26,15.89-9.93,6.76-18.82,4.51-37.47-1.64-55.89-4.57-13.67-10.21-26.86-18.88-38.6-1.16-1.57-1.35-5.01-.39-6.64,.73-1.24,4.17-1.76,6.1-1.3,11.26,2.68,20.57,9.25,29.05,16.63,15.65,13.6,29.06,29.13,37.08,48.65,6.52,15.86,8.58,32.37,5.64,49.18-1.98,11.29-5.51,22.3-8.04,33.5-.37,1.62,.42,4.14,1.59,5.37,6.63,6.98,14.02,13.29,20.2,20.63,4.84,5.75,8.57,12.5,12.29,19.09,2.33,4.12,.88,6.05-3.72,5.34-4.2-.64-8.3-1.96-13.55-3.25,2.74,4.11,4.94,7.42,7.16,10.72,10.14,15.03,18.04,31.1,22.51,48.75,.36,1.42,.57,2.93,.56,4.39-.02,4.48-2.23,5.98-6.45,4.32-3.68-1.44-7.27-3.11-11.34-4.87,2.46,8.3,4.96,16.18,7.14,24.15,3.28,11.98,3.84,24.23,2.5,36.51-.24,2.16-1.9,4.71-3.69,5.93-.86,.59-3.74-1.25-5.37-2.44-2.78-2.03-5.3-4.43-7.61-6.4-2.4,11.21-4.23,22.56-7.41,33.52-1.8,6.19-5.41,12.01-8.97,17.5-3.12,4.82-5.56,4.33-8.11-.81-1.09-2.19-2.02-4.47-3.08-6.84-4.14,6.1-8.2,12.06-12.33,18.14,13.34,9.56,28.61,13.5,44.9,13.67,15.93,.17,31.86-.44,47.43,4.07,19.59,5.68,35.22,15.82,42.44,36.05,.43,1.2,2.05,2.69,3.24,2.8,24.51,2.29,46.57,11.75,67.79,23.35,23.56,12.88,45.36,28.33,63.62,48.19,5.52,6,10.19,13.02,14.04,20.21,1.55,2.89,.69,7.8-.48,11.31-6.25,18.67-16.63,35.15-28.42,50.74-27.48,36.32-63.48,61.8-104.03,81.49-39.51,19.18-81.09,32.34-123.85,41.77-22.53,4.97-45.25,9.23-68.04,12.84-19.76,3.14-39.69,5.38-59.63,7.18-23.81,2.16-47.69,3.47-71.55,5.05-7.46,.5-14.95,.57-22.41,1.13-1.4,.11-3.37,1.3-3.94,2.52-14.54,31.21-35.84,57.32-61.01,80.37-16.72,15.31-36.35,24.63-59.02,28.25-27.07,4.33-54.16,7.7-81.6,7.81-4.11,.02-8.87,.91-11.19-3.5-2.49-4.75,1.34-8.19,4.01-11.4,17.28-20.72,32-43.08,42.6-67.91,5.6-13.11,9.9-26.76,15.01-40.77-19.16-2.54-29.55-15.13-39.64-29.41-3.39,23.44-17.7,36.26-38.57,42.94,33.31,54.06-16.91,100.78-62.7,86.68-.75,4.53-1.42,8.98-2.23,13.39-3.93,21.21-21.1,37.61-42.46,40.99-9.73,1.54-15,1.82-34.32-4.61-1.59,12.99-6.6,24.38-15.91,33.7-9.29,9.3-20.77,14.21-33.55,15.72-23.16,2.74-46.18-9.62-56.65-30.92-10.65-21.65-10.29-48.96,15.81-73.68-13.59-9.49-20.72-22.21-20.29-39.12,.41-16.06,7.21-29.27,17.18-41.72-10.68-4.13-18.82-10.97-23.78-21.2-8.45-17.43-4.03-41.09,9.91-55.81,8.4-8.87,18.59-14.81,28.78-19.31-2.67-6.8-6.11-13.26-7.73-20.15-3.82-16.23,1.28-30.33,13.28-41.45,20.29-18.8,44.24-22.33,70.3-15.2,3.32,.91,6.54,2.16,10.5,3.49-1.96-17.8,3.55-32.68,16.87-44.09,10.68-9.15,23.28-13.28,37.54-12.79,22.99,.8,46.05,18.42,48.87,46.55,6.92-1.82,13.77-4.36,20.84-5.29,6.97-.91,14.16-.2,21.17-.2,8.01-32.3,13.59-39,29.23-50.03-5.87-8.47-11.44-17.21-17.7-25.42-20.79-27.3-45.69-50.57-71.97-72.44-1.15-.96-2.37-1.86-3.41-2.92-4.62-4.72-2.84-11.75,3.68-12.98,17.5-3.3,35.06-6.37,52.65-9.13,9.47-1.48,19.07-2.17,28.62-3.14,23.59-2.39,45.19,4,65.59,15.26,5.74,3.17,11.2,6.84,17.09,10.46Zm18.67,66.95c.56,.16,1.11,.33,1.67,.49,2.59,7.56,4.88,15.24,7.85,22.64,2.98,7.45,7.25,14.14,14.98,19.35v-15.72c1.31,.96,1.87,1.27,2.3,1.7,8.18,8.36,17.51,15.15,27.74,20.82,8.08,4.49,16.13,9.1,23.86,14.16,5.88,3.85,5.94,6.49,1.74,11.6-6.02,7.32-12.08,14.6-17.9,22.07-10.41,13.35-10.74,20.67-1.31,33.94,9.1,12.81,19.95,24.08,31.9,34.25,2.46,2.1,5.52,3.67,8.54,4.9,4.98,2.02,7.6-.09,6.66-5.54-.73-4.19-2.41-8.2-3.47-12.34-.44-1.71-.33-3.57-.48-5.35,1.63,.9,3.82,1.4,4.8,2.77,4.22,5.9,8.39,11.88,11.95,18.18,1.83,3.23,4.45,3.04,6.72,2.42,1.5-.41,3.15-2.73,3.5-4.45,1.48-7.23-.16-14.08-3.58-20.55-.56-1.06-.93-2.22-1.39-3.34,.32-.29,.63-.57,.95-.86,1.52,1.05,3.53,1.78,4.47,3.22,3.12,4.76,5.81,9.8,8.76,14.67,.75,1.24,1.87,2.25,2.83,3.36,1.08-1.01,2.52-1.83,3.18-3.07,2.63-4.95,2.5-10.15,.9-15.41-3.09-10.11-11.23-16.17-18.36-23.06-2.56-2.47-5.21-2.73-8.45-1.3-2.22,.97-4.73,1.58-7.14,1.7-1.52,.08-3.1-1.03-4.66-1.6,.99-1.16,1.87-2.44,2.99-3.46,5.98-5.47,13-10.13,17.84-16.46,11.71-15.3,15.71-32.79,10.65-53.08,4.83,1.68,8.82,3.06,13.47,4.67-.43-2.47-.6-4.43-1.12-6.28-2.61-9.31-8.68-16.12-15.75-22.39-13.75-12.17-30.65-16.2-48-19.32-3.31-.59-6.52-1.72-9.77-2.6,.1-.65,.2-1.31,.3-1.96,7.18-5.54,15.98-4,25.18-4.64-6.58-4.62-12.51-8.46-18.08-12.77-11.07-8.58-21.55-17.8-26.97-31.23-.64-1.59,.26-3.8,.44-5.73,1.71,.8,3.75,1.24,5.08,2.46,9.2,8.38,17.61,17.76,27.47,25.23,24.88,18.85,52.81,32.02,82.9,40.11,15.87,4.27,32.09,7.69,48.38,9.79,8.12,1.04,15.57,2.28,22.41,6.73,2.9,1.89,5.82,4.01,9.05,5.05,2.81,.91,7.13,1.73,8.88,.29,3.16-2.61,.59-6.38-1.12-9.4-.56-.98-1.44-1.9-2.38-2.53-6.18-4.06-12.48-7.94-18.59-12.1-1.28-.87-1.92-2.67-2.85-4.05,1.48-.87,3.06-2.62,4.44-2.49,10.78,1.07,20.92,4.37,30.58,9.34,2.76,1.42,6.04,2.28,9.14,2.48,4.22,.27,6.33-3.24,4.19-7.02-1.77-3.12-4.15-6.01-6.72-8.53-6.03-5.92-13.47-9.37-21.55-11.69-1.61-.46-2.82-2.27-4.22-3.46,11.87-2.65,21.94-.63,31.08,5.82,3.82,2.7,7.27,1.12,7.21-3.52-.03-2.58-.95-5.93-2.73-7.53-3.21-2.9-7.11-5.83-11.18-6.81-8.62-2.07-17.52-3.09-26.35-4.17-11.18-1.36-22.63-1.3-33.56-3.7-32.64-7.15-63.46-19.25-91.67-37.38-6.95-4.47-13.34-9.84-19.83-14.99-.87-.69-.84-2.5-1.22-3.79,1.32-.18,2.84-.86,3.92-.44,3.38,1.34,6.67,2.97,9.87,4.72,36.43,20,73.5,38.34,115.61,43,5.49,.61,11.67,1.44,15.14-4.58,6.22-10.79,8.69-22.26,5.39-34.02-5.53,1.48-10.84,3.03-16.24,4.23-1.21,.27-2.7-.71-4.07-1.11,.83-1.07,1.45-2.42,2.51-3.16,10.08-7.06,20.23-14.02,30.67-21.23,2.75,5.34-.64,10.53-2.33,16.37,19-15.4,31.4-34.57,38.21-57.59,.63,.17,1.27,.33,1.9,.5,2.65,5.51,5.31,11.02,8.16,16.93,.73-1.39,1.25-2.2,1.59-3.07,6.34-16.38,6.6-33.32,4.77-50.48-.15-1.41,.26-3.54,1.21-4.21,.86-.61,3.26-.19,4.2,.65,2.96,2.65,5.55,5.71,8.29,8.61,1.7,1.8,3.41,3.61,5.11,5.41,.48-.25,.97-.51,1.45-.76-1.1-7.16-1.35-14.59-3.48-21.43-3.75-12.09-8.71-23.8-12.99-35.73-.65-1.81-.35-3.96-.49-5.95,1.89,.08,3.92-.25,5.65,.33,5.05,1.68,9.97,3.73,15.46,5.83-7.34-23.21-19.78-42.31-35.5-59.45-1.12-1.22-1.56-3.07-2.31-4.63,1.73-.65,3.46-1.82,5.21-1.84,5.09-.05,10.18,.37,16.15,.64-16.49-20.74-36.32-35.42-62.46-41.98,5.2-6.56,12.24-6.48,18.37-9.01-.98-.75-1.45-1.25-2.03-1.53-1.64-.8-3.28-1.61-4.99-2.23-13.7-4.94-27.99-6.26-42.39-7.04-2.95-.16-5.87-.88-10.3-1.59,5.54-6.81,9.98-12.26,14.9-18.3-16.93,2.11-32.01,6.84-47.04,15.88-.34-3.22-1.02-5.36-.7-7.34,1.29-8.1,2.88-16.15,4.61-25.59-4.13,2.97-7.87,4.76-10.36,7.63-6.07,6.99-11.63,14.42-17.25,21.78-4.79,6.28-6.92,6.35-12.37,.46-3.49-3.77-7.07-7.51-10.98-10.81-5.91-4.98-12.62-8.67-20.52-11.32,8.75,20.1,11.59,25.89,6.91,30.32-14.02-7.54-29.02-11.59-45.31-10.99,3.18,6.6,10.5,9.82,11.83,18.29-25.88,.28-49.36,6.05-68.17,25.13,6.17,.5,11.63,.79,17.04,1.47,1.37,.17,2.59,1.59,3.87,2.43-.95,1.24-1.65,2.87-2.89,3.66-5.85,3.75-11.9,7.17-17.78,10.88-15.61,9.87-28.9,22.16-39.59,38.4,5.06-1.16,9.34-2.76,13.68-2.95,4.16-.18,8.6-3.19,13.33,.64-17.16,19.57-32.72,39.86-39.98,65.69,6.24-3.72,11.87-7.2,17.63-10.43,1.28-.72,3.04-.59,4.58-.85-.1,1.51,.1,3.11-.33,4.52-2.72,8.79-6.4,17.37-8.19,26.34-1.98,9.89-2.27,20.12-3.3,30.2,.54,.08,1.08,.17,1.62,.25,4.66-5.7,9.21-11.5,14.05-17.04,1.26-1.44,3.42-2.09,6.25-3.73-.94,19.98,.57,37.86,11.63,54.32,1.92-6.66,3.64-12.63,5.36-18.59,.62-.1,1.24-.21,1.85-.31,6.5,15.71,15.95,29.2,29.83,39.53-6.77,4-17.74-2.21-27.43-14.5-1.6,3.11-3.01,6.22-4.75,9.14-1.53,2.57-3.5,3.47-5.91,.71-2.98-3.43-6.08-6.77-9.83-10.92-6.11,7.17-11.83,13.88-18.42,21.61,6.62-.51,11.44-.89,16.26-1.26,.23,.62,.47,1.23,.7,1.85-13.72,16.62-26.1,33.97-31.46,55.61,5.95-2.22,9.29-9.17,16.74-7.58-4.62,19.38-12.59,37.96-3.91,58.02,2.87-5.4,5.42-10.22,7.98-15.04Zm-59.46,169.82c4.01,10.5,7.45,20.82,11.84,30.72,6.46,14.58,14.34,28.35,26.01,39.58,4.31,4.14,8.79,6.9,15.36,6.46,7.6-.52,15.29,.53,22.94,.6,63.38,.55,126.78,1.45,189.84-6.74,20.33-2.64,40.8-4.55,60.92-8.32,27.67-5.18,55.13-11.56,82.56-17.93,11.58-2.69,22.87-6.64,34.84-10.19-34.69-30.55-52.29-69.01-58.65-113.16-6.38-44.29,.85-86.3,22.91-126.92-4.22-1.34-7.66-3.29-11.15-3.37-14.98-.35-29.98-.22-44.97-.09-3.26,.03-6.52,.76-10.74,1.29,24.84,9.39,27.54,29.92,13.89,38.51,2.36,6.91,3.96,13.95-.87,20.37-5.04,6.69-12.48,6.25-19.99,5.39,.31,6.02,.92,11.84-4.25,16.28-6.37,5.47-14.17,5.73-23.8-.4-6.53-4.16-13.07-7.74-21-8-3.15-.1-6.39,.02-9.43-.65-17.05-3.75-34.1-7.51-51.05-11.69-7.16-1.77-14.07-4.56-21.09-6.89,.43,1.39,1.43,2.02,2.24,2.84,10.73,10.9,17.46,23.56,17.3,39.29-.09,9.44-.92,10.08-10.07,7.14-.2-.07-.5,.17-.74,.26-.99,16.08-5.88,28.56-18.44,46.77,4.07,3.98,8.38,7.89,12.34,12.11,9.38,10.01,13.72,21.64,10.91,35.47-1.77,8.73-7.08,13.7-15.94,14.98-1.21,.17-2.33,1.39-3.36,2.28-1.62,1.4-2.93,3.24-4.7,4.37-6.7,4.27-12.95,1.69-18.98-1.72-6.76,4.63-10.65,5.21-18.11,1.88-3.74-1.66-7.79-3.46-10.58-6.3-11.85-12.09-23.56-24.35-34.74-37.06-4.76-5.41-8-12.01-8.69-19.65-.9-9.94,3.83-17.51,9.48-24.8,5.54-7.15,11.21-14.21,17.03-21.56-11.66-6.91-22.85-13.55-34.29-20.34-.07,1.13-.14,1.78-.16,2.44-.18,6.02-2.44,7.57-7.81,4.7-3.76-2.01-7.66-4.31-10.48-7.42-6.15-6.77-11.64-14.13-17.31-21.12-4.5,5.69-6.35,5.86-11.47-.58-2.94-3.7-5.12-8.01-7.93-12.51-8.15,3.06-16.62,6.17-25.01,9.49-1.25,.49-2.45,1.79-3.1,3.03-3.43,6.53-7.37,12.9-9.84,19.79-8.53,23.78-9.77,48.57-8.91,73.55,.06,1.76,.73,3.5,1.14,5.37,1.98-.37,3.58-.74,5.2-.97,13.4-1.94,26.76-4.24,40.22-5.65,10.14-1.06,20.45-1.8,30.59-1.16,12.83,.81,20.42,11.66,16.52,22.16-2.31,6.23-7.05,10.57-13.24,12.58-8.42,2.74-16.99,5.2-25.67,6.94-15.51,3.12-31.14,5.62-47.54,8.52Zm414.24-197.61c-10.8,22.3-17.76,45.27-19.84,69.83-1.41,16.7-.91,33.26,1.57,49.68,3.93,26.04,13.4,50.25,26.75,72.88,7.59,12.87,15.77,25.42,28.51,34.01,1.2,.81,3.33,1.16,4.66,.68,6.82-2.45,13.67-4.93,20.24-7.97,15.9-7.36,31.66-15.04,47.87-22.78-27.96-27.16-40.58-60.27-45.23-96.6-4.75-37.11,3.82-71.44,25.96-102.11-2.36-.47-3.96-.99-5.58-1.07-5.34-.27-10.6-2.37-14.9,4.04-3.24,4.84-9.28,6.57-15.63,4.85-1.39-.38-3.45,.11-4.66,.96-6.83,4.82-13.45,5.01-20.26,.14-2.15-1.54-4.13-3.3-6.32-5.07-7.73,4.19-15.32,3.95-23.14-1.5Zm120.63,189.16c21-13.76,40.26-29.14,56.52-48.11,14.21-16.59,26.02-34.61,34.28-54.89,1.58-3.88,1.41-7.16-1.18-10.64-10.33-13.88-23.07-25.22-36.69-35.7-20.58-15.85-42.9-28.51-67.37-37.3-2.19-.79-4.18-2.04-6.45,.83-16.62,21.05-23.53,45.48-25.31,71.7-1.6,23.5,4.6,45.52,13.04,67.07,7.16,18.29,17.09,34.66,33.18,47.04Zm-577.67,206.05c8.35-.43,15.53-.44,22.61-1.23,15.62-1.73,31.23-3.58,46.77-5.87,15.37-2.27,30.59-5.45,43.88-14.22,28.48-18.82,49.5-44.43,66.51-73.62,2.29-3.92,4.05-8.15,6.29-12.72-43.66-1.27-86.47-2.51-129.37-3.76-8.99,41.58-30.12,77.26-56.69,111.42Zm78.23-424c-4.93-3.09-9.87-6.09-14.7-9.24-18.83-12.28-39.53-17.67-61.83-15.63-15.29,1.4-30.49,3.85-45.69,6.12-8.32,1.25-16.56,3.1-24.06,4.54,15.96,15.42,32.23,30.39,47.62,46.22,15.46,15.91,28.76,33.64,39.57,52.85,20.56-8.03,40.76-15.92,60.79-23.74,.56-8.59,1.13-17.24,1.73-26.39-1.16,.91-1.95,1.81-2.94,2.26-2.26,1.02-4.62,1.82-6.94,2.71-.78-2.56-2.34-5.16-2.22-7.68,.55-11.12,3.73-21.65,8.66-32.02Zm-212.71,353.59c-9,.41-17.24,.56-25.44,1.23-11.83,.96-20.54,7.55-27.81,16.4-13.91,16.93-11.92,45.71,.97,63.03,11.48,15.43,26.76,22.79,46.03,20.63,18.86-2.11,34.46-20.3,35.33-39.69,.3-6.75-1.58-10.95-7.21-14.99-5.51-3.95-10.19-9.45-14.19-15.03-6.46-9.01-8.53-19.54-7.67-31.59Zm1.09-89.62c7.76,.72,15.65-1.44,23.16-5.12,24.45-11.98,31.01-44.71,14.34-63.62-21.06-23.89-58.81-21.52-77,4.62-12.98,18.66-9.33,43.29,8.34,55.57,9.13,6.35,19.39,8.91,31.15,8.55Zm-114.31,53.23c-.45,0,.22,.07,.88-.01,26-3.2,46.12-15.47,58.5-38.91,5.32-10.08,4.74-20.52-1.92-30.04-6.83-9.76-17.53-12.55-28.32-13.06-22.02-1.03-41.06,6.74-55.78,23.3-9.02,10.15-12.95,22.21-8.55,35.86,4.64,14.39,16.33,22.17,35.2,22.86Zm-5.77,95.26c-.95,.88-2,1.92-3.13,2.89-19.84,17.02-25.14,41.25-10.34,63.23,11.58,17.2,27.99,24.43,48.47,20.29,17.68-3.58,28.79-14.75,33.19-32.24,1.74-6.91,1.69-13.23-4.66-18.82-8.22-7.24-12.7-17.13-15.61-27.65-.85-3.07-1.61-6.16-2.43-9.3-15.14,5.98-29.87,7.26-45.48,1.6Zm204.16-95.87c4.45-.62,8.14-.76,11.63-1.68,14.19-3.72,26.62-10.55,31.64-25.08,5.73-16.56,.27-31.22-11.19-43.8-1.1-1.21-3.52-2.03-5.15-1.8-13.38,1.87-26.38,.71-39.14-3.79-6.98-2.47-17.49,1.85-21.79,7.86-3.44,4.82-7.65,9.09-11.54,13.59-1.18,1.36-3.13,2.5-3.52,4.04-2.41,9.53-2.91,18.99,2.93,27.68,11.23,16.69,27.85,22.27,46.12,22.98Zm-151.24-5.21c5.72,6.51,10.34,14.34,17.13,19.03,19.84,13.7,41.62,16.91,64.47,7.57,10.05-4.11,18.44-10.22,23.73-20.1,1.85-3.45,1.53-5.53-1.26-8.58-4.29-4.7-8.63-9.91-10.95-15.7-2.61-6.52-3-13.94-4.37-21.06-21.28,6.24-42.31,4.46-62.19-9.2-.22,20.66-11.91,34.39-26.57,48.03Zm-9.49,5.41c-13.17,7.67-26.78,12.18-41.79,11.61-.94-.04-2.28,.35-2.81,1.03-4.55,5.86-9.87,11.36-13.2,17.87-6.95,13.6-8.74,27.85,.49,41.36,12.18,17.83,38.95,20.05,56.85,10.26,.92-.5,1.76-1.97,1.85-3.06,.98-11.73,5.3-22.23,12.77-31.11,5.21-6.19,11.57-11.4,17.55-17.18-13.9-6.12-24.38-16.8-31.71-30.79Zm127,2.04c-8.03,17.24-21.98,26.56-38.89,32.31-1.09,.37-2.47,1.95-2.5,3.01-.1,3.44,0,6.96,.66,10.33,2.96,14.92,12.9,24.41,25.13,32.27,20.54,13.21,47.88,4.68,60.06-13.35,10.47-15.5,8.85-35.36-4.02-52.03-1.85-2.39-3.68-3.51-6.85-3.6-11.62-.33-23.02-1.89-33.6-8.94Zm449.43-310.93c3.78,0,7.46,.33,11.07-.05,21.35-2.26,42.7-3.17,64.2-2.21,8.64,.39,14.3,3.84,19.27,10.18,1.78,2.27,4.17,4.54,6.77,5.56,2.11,.83,5.61,.62,7.26-.69,1.31-1.03,1.76-5.03,.8-6.67-2.48-4.26-5.91-7.99-9.05-11.86-.82-1.01-1.94-1.78-2.92-2.66,.21-.65,.42-1.31,.63-1.96,3.01,.33,6.23,.08,8.98,1.1,9.78,3.63,14.05,11.42,15.05,21.39,.39,3.9,5.85,8.96,8.85,7.78,3.93-1.55,4.34-5.18,3.33-8.78-1.22-4.38-2.72-8.69-4.29-12.97-.69-1.89-1.86-3.61-3.51-6.73,2.87,.92,4.59,1.04,5.74,1.91,5.76,4.39,10.5,9.46,12.11,17,.4,1.86,2.58,4.05,4.44,4.74,3.1,1.14,4.89-1.36,5.72-4.06,.47-1.52,.93-3.62,.25-4.8-3.43-5.94-6.22-12.77-11.11-17.25-14.74-13.5-33.6-14.99-52.47-15.82-12.24-.53-24.57-.62-36.68-2.25-11.48-1.54-21.61-7.41-30.85-13.36-5.34,4.56-10.43,8.81-15.39,13.2-1.18,1.05-2.45,2.47-2.79,3.93-1.94,8.32-3.61,16.71-5.42,25.32ZM139.26,569.88c1.32,4.87,2.14,9.97,4.17,14.53,.99,2.23,4.45,5.15,6.38,4.88,15.37-2.14,29.55,1.25,43.32,7.68,1.05,.49,2.67,.44,3.8,.01,7.62-2.88,12.16-9.34,17.61-14.91,7.23-7.38,8.03-15.37,4.78-24.47-7.02-19.64-28.57-30.05-49.33-24.41-16.72,4.54-31.06,20.82-30.72,36.69Zm-3.41,25.26c-4.87-2.53-9.15-5.21-13.76-7.07-21.14-8.53-41.87-8.65-61.48,4.31-12.86,8.5-18.98,24.06-14.16,37.57,2.14,6,6.37,11.25,9.3,16.23,17.02-1.68,32.47-.49,47.5,5.93-.99-29.03,11.58-44.18,32.6-56.97Zm201.54-86.28c-9.46,4.27-18.09,7.88-26.44,12.02-8.48,4.21-14.41,10.91-17.89,19.85-9.17,23.59-9.53,48.17-8.37,72.93,.01,.24,.39,.47,.44,.52,12.07-2.74,24.01-5.46,36.14-8.21-2.39-33.23,.17-65.66,16.12-97.11Zm-63.49,144.13c-1.74-.71-2.55-1.22-3.42-1.36-6.86-1.07-13.79-1.75-20.55-3.25-2.54-.56-5.8-2.57-6.59-4.71-.55-1.5,2.04-5.01,4.06-6.46,7.65-5.49,15.69-10.41,23.43-15.77,1.39-.96,2.86-2.99,2.88-4.55,.22-14.7,.13-29.4,.13-44.05-21.21-2.84-38.79,2.5-53.02,17.68-6.85,7.31-10.61,15.56-7.5,25.76,1.43,4.71,3.7,9.28,4.4,14.08,1.46,10.07,7.93,15.63,16.27,19.53,12.49,5.83,25.54,6.43,39.91,3.1Zm94.01,70.99c-20.81-21.48-31.23-47.13-39.34-74.06-12.24,1.11-24.5,2.23-36.75,3.35,4.32,17.87,11.86,34.46,23.01,49.25,3.65,4.84,7.98,9.39,12.73,13.14,11.71,9.25,26.02,6.34,40.35,8.32Zm-104.59-84.77c2.84,.29,4.59,.39,6.3,.67,15.38,2.49,30.9,2.83,46.19,.42,25.71-4.04,51.29-8.91,76.84-13.86,5.88-1.14,11.55-3.73,17.03-6.27,1.66-.77,3.25-3.67,3.2-5.55-.04-1.48-2.41-3.45-4.17-4.21-2.51-1.08-5.46-1.89-8.13-1.69-11.04,.86-22.07,1.98-33.07,3.32-13.94,1.69-27.89,3.4-41.75,5.65-11.83,1.92-23.73,3.95-35.25,7.15-9.56,2.65-18.35,7.57-27.2,14.37ZM421.12,122.19c-3.54-6.63-7.32-12.69-10.07-19.18-1.87-4.43-4.2-4.85-8.35-3.9-12.25,2.79-20.44,10.72-27.82,21.02,4.88,11.37,9.81,22.88,14.75,34.39,6.88-15.36,15.16-27.63,31.49-32.33Zm246.05-6.45c12.2,4.62,25.72,8.19,34.07,20.31,3.82-11.14,6.54-22.99,5.87-35.36-.1-1.84-1.31-4.09-2.73-5.3-8.25-7.04-18.19-8.68-27.77-8.7-3.22,9.92-6.26,19.24-9.45,29.05ZM401.72,61.46c-2.45,.43-4.81,.55-6.96,1.29-7.18,2.47-14.79,5.75-16.61,13.48-2.36,10.04-2.56,20.58-3.62,30.91-.07,.67,.46,1.41,.8,2.38,8.41-9.94,17.37-18.22,30.3-19.25-1.3-9.56-2.56-18.86-3.92-28.82Zm274.61,17.24c10.74,3.22,20.4,6.12,29.82,8.95-1.46-10.3-5.27-21.08-11.5-30.98-4.71-7.49-14.98-9.82-22.86-5.38,1.04,4.7,2.29,9.34,3.05,14.05,.79,4.88,1.11,9.83,1.49,13.35Zm-257.54,89.98l-.27-1.07c-1.27,0-2.55,.04-3.82,0-5.19-.18-6.9-3.05-4.22-7.4,1.37-2.23,3.02-4.38,4.92-6.17,6.44-6.07,13.04-11.95,20.08-18.36-1.42-1.2-3.24-2.27-4.41-3.82-2.84-3.76-6.29-4.02-10.05-2.04-9.84,5.18-18.53,11.65-22.75,22.48-3.45,8.84-4.63,7.01,2.82,14.69,2.77,2.86,5.47,5.8,8.37,8.88,3.38-2.6,6.36-4.89,9.34-7.17Zm-11.6-143.1c-8.7,6.91-21.93,27.02-23.01,34.17,5.94-1.37,12.37-2.86,18.22-4.21,1.58-9.88,3.19-19.95,4.8-29.95Zm253.03-6.19c-.21,.31-.42,.61-.63,.92,3.19,7.55,6.3,15.14,9.66,22.61,.52,1.16,2.23,2.58,3.32,2.53,4.07-.19,8.12-.95,13.6-1.69-9.14-8.58-17.55-16.48-25.96-24.37Z"/>
      <path class="cls-1" d="M576.63,379.34c-13.9-.44-27.82-1.04-40.77-5.94-18.41-6.97-32.64-18.94-36.1-39.5-4.18-24.81,10.5-56.07,36.44-62.7,12.88-3.29,25.62-1.54,38.26,1.69,18.01,4.62,35.59,3.94,52.88-3.52,6-2.59,12.45-4.25,18.81-5.88,20.88-5.37,37.45,12.76,40.03,28.19,4.06,24.22-5.57,43.48-23.2,59.12-17.1,15.16-37.85,22.54-60.15,25.79-8.68,1.27-17.45,1.85-26.18,2.74Zm38.56-17.79c-5.19-4.87-9.45-9.61-14.43-13.39-13.61-10.31-29.37-14.98-46.25-14.98-13.02,0-24.09,5.43-33.43,15.06,2.92,2.62,5.35,5.14,8.12,7.23,9.96,7.51,21.63,10.1,33.73,11.44,17.44,1.93,34.55,.83,52.27-5.36Zm-70.05-82.82c.25,8.74,3.38,13.86,8.62,15.31,5.13,1.42,15.2-4.12,19.55-11.41-9.48-1.31-18.52-2.56-28.17-3.9Zm102.07-5.1c-9.64,3.15-18.21,5.95-27.54,9,3.9,2.69,6.78,4.89,9.86,6.76,8.62,5.22,16.74,1.07,17.66-8.96,.16-1.77,.02-3.58,.02-6.8Z"/>
      <path class="cls-1" d="M565.25,217.22c.19,27.32-20.97,44.1-43.7,44.29-28.16,.23-47.74-20.88-48.12-47.03-.39-26.92,23.69-46.97,44.57-45.93,27.25,1.37,47.07,21.02,47.24,48.67Zm-82.02-3.06c-.37,20.26,17.28,37.6,38.34,37.32,18.31-.24,33.43-13.1,33.66-33.6,.26-23.18-18.03-38.26-36.46-38.93-19.11-.69-35.54,16.21-35.54,35.21Z"/>
      <path class="cls-1" d="M698.47,206.35c-.47,26.54-17.72,46.07-43.8,45.42-23.76-.59-43.61-20.93-43.29-45.82,.33-25.68,19.45-44.89,45.22-44.42,22.82,.42,41.95,20.59,41.87,44.81Zm-44.03-34.74c-18.88,.01-33.19,14.92-33.2,34.57,0,19.79,15.6,35.5,35.12,35.34,17.73-.15,32.86-15.95,32.88-34.35,.02-19.14-16.05-35.58-34.79-35.57Z"/>
      <path class="cls-1" d="M523.23,215.9c.02-9.93,5.95-16.56,14.58-16.29,8.38,.27,15.13,9,14.42,18.66-.64,8.76-8.26,15.25-16.83,14.34-7.18-.76-12.18-7.63-12.17-16.71Z"/>
      <path class="cls-1" d="M655.23,205.63c0-8.69,6.83-16.06,14.83-16.01,8.44,.04,16.18,8.41,16.17,17.47-.02,9.18-6.13,15.52-14.99,15.53-9.27,.02-16.02-7.15-16.01-16.99Z"/>
    </g>
    <path class="cls-1" d="M591.48,265.74c-10.93,0-15.63-4.42-17.52-7.23-2.61-3.89-2.8-8.71-.52-13.23,3.39-6.74,11.39-11.2,20.87-11.66l.24,4.99-.24-4.99c24.84-1.19,29.09,7.3,29.41,12.46,.59,9.5-12.33,18.25-28.79,19.52-1.21,.09-2.36,.14-3.45,.14Zm7.39-22.23c-1.26,0-2.62,.03-4.08,.1-7.04,.34-11.09,3.53-12.41,6.16-.44,.87-.81,2.12-.11,3.17,1.11,1.66,4.83,3.23,11.9,2.69,12.83-.99,19.65-7.09,19.58-8.93-.3-.71-3.74-3.19-14.87-3.19Z"/>
  </g>
</svg>