<?xml version="1.0" encoding="UTF-8"?>
<svg id="Ebene_2" data-name="Ebene 2" xmlns="http://www.w3.org/2000/svg" viewBox="0 0 908.45 950.01">
  <defs>
    <style>
      .cls-1 {
        fill: #fff;
      }
    </style>
  </defs>
  <g id="Ebene_1-2" data-name="Ebene 1">
    <g>
      <path class="cls-1" d="M141.2,467.49c16.86,8.91,22.77,24.07,25.05,41.37,.43,3.29,.41,6.64,.88,9.92,.16,1.13,.96,2.55,1.9,3.13,10.26,6.29,21.15,11.07,33.27,12.14,12.29,1.08,21.46-5.68,30.33-12.87,1.92-1.55,3.63-3.36,5.19-6.2-3.56,.5-7.12,1.33-10.69,1.39-2.24,.04-5.21-.44-6.53-1.89-.99-1.09-.55-4.46,.39-6.19,8.01-14.63,20.19-25.39,33.37-35.16,1.44-1.07,2.9-2.13,4.67-3.42-12.6-16.75-18.64-35.83-21.95-56.36-3.66,4.54-6.84,8.98-10.57,12.88-1.48,1.55-4.56,3.05-6.24,2.5-1.76-.58-3.45-3.48-3.9-5.63-3.55-16.8-2.92-33.68,.29-50.43,1.76-9.2,4.39-18.23,6.76-27.89-3.24,2.04-6.48,4.08-9.72,6.1-2.53,1.58-4.92,3.57-7.67,4.58-1.98,.72-5.03,.94-6.5-.13-1.29-.93-1.76-4.12-1.37-6.07,5.35-27.2,16.52-51.87,32.72-74.31,1.05-1.45,2.05-2.95,3.5-5.05-6.22,1.63-11.73,3.34-17.36,4.39-2.07,.39-5.37-.11-6.4-1.48-1.05-1.39-.77-4.84,.28-6.57,8.06-13.35,18.32-24.9,30.17-34.99,4.8-4.09,9.93-7.8,15.3-11.97-9.08-7.81-16.56-17-22.17-27.67-11.21-21.34-16.64-44.14-14.65-68.07,2.53-30.38,15.16-57.02,33.77-80.85,11.72-15.01,24.78-28.72,40.97-39.09,.7-.45,1.4-.9,2.12-1.3,2.91-1.61,5.95-3.71,9.13-.95,3.17,2.76,.78,5.77-.15,8.66-5.26,16.3-12.12,32.29-15.44,48.97-8.19,41.25,.39,78.71,29.76,110.13,.9,.96,2.98,1.16,4.49,1.13,1.78-.04,3.55-.71,5.32-1.12,1.69-.4,3.37-.82,5.44-1.32-4.86-4.58-9.46-8.65-13.69-13.07-1.45-1.51-2.87-4.04-2.62-5.87,.19-1.35,3.08-3.25,4.82-3.32,12.59-.49,25.22-1.21,37.77-.58,9.16,.46,18.22,2.87,27.88,4.51-1.16-2.95-2.11-6.34-3.75-9.35-3.71-6.84-7.9-13.41-11.56-20.27-1.21-2.26-2.45-5.5-1.66-7.49,.56-1.43,4.58-2.34,6.89-2.09,21.24,2.35,40.33,10.29,57.17,23.38,4.67,3.63,8.67,8.14,13.2,12.46,3.15-3.77,6.22-7.84,9.71-11.53,12.55-13.28,27.26-23.13,45.12-27.85,1.11-.29,2.25-.54,3.39-.7,6.33-.89,7.86,1.08,5.84,7.23-2.94,8.94-5.8,17.9-8.66,26.86-.34,1.06-.42,2.21-.73,3.89,15.02-6.92,30.52-9.97,46.31-11.22,6.49-.51,13.22,.21,19.67,1.33,5.1,.88,5.82,4.39,2.28,8.32-4.52,5.02-9.2,9.89-13.34,14.31,10.38,2.06,20.66,4.18,30.99,6.06,1.11,.2,2.93-.62,3.65-1.56,13.26-17.25,21.91-36.51,24.62-58.22,4.12-33.08-3.33-64.14-16.6-94.2-.82-1.86-1.14-4.82-.19-6.32,.82-1.3,4.34-2.33,5.68-1.62,6.25,3.32,12.75,6.61,18.1,11.15,27.8,23.56,48.21,52.58,57.5,87.83,11.39,43.17,2.58,82.42-28.51,115.65-.33,.35-.59,.78-.8,1.06,7.77,6.82,16.02,13.1,23.07,20.51,7.86,8.27,14.81,17.45,21.75,26.53,1.42,1.86,1.1,5.05,1.58,7.63-2.78,.51-5.66,1.74-8.31,1.37-5.33-.75-10.54-2.39-16.3-3.78,5.72,9.07,11.34,17.43,16.39,26.12,8.27,14.24,14.54,29.34,18.03,45.51,.38,1.76,.59,3.59,.61,5.4,.08,7.49-3.3,9.51-10.03,5.91-4.8-2.57-9.47-5.39-14.69-8.37,2.46,8.69,4.97,16.78,7.01,24.99,3.88,15.62,4.81,31.47,2.95,47.47-.34,2.96-.24,6.01-.97,8.86-1.34,5.2-4.99,6.22-8.72,2.27-3.41-3.6-6.24-7.76-9.33-11.67-.9-1.14-1.79-2.29-3.05-3.9-3.46,21.91-12.03,41.07-24.43,58.51,6.51,5.42,13.29,10.08,18.82,15.92,7.26,7.67,13.9,16.01,20.07,24.59,3.51,4.88,1.02,8.18-5.14,7.79-4.1-.26-8.18-.8-13.16-1.3,10.71,9.05,21.78,15.87,34.96,16.75,12.73,.85,24.31-4.22,34.65-11.44,1.61-1.12,1.8-4.8,1.97-7.35,.86-13.03,4.01-25.27,12.79-35.28,3.33-3.8,7.72-6.67,12.09-10.35-10.58-18.46-12.26-38.56-5.47-59.17,5.59-16.97,16.27-30.23,31.25-40.02,28.86-18.86,66.64-14.81,93.5,9.94,22.3,20.55,34.69,62.52,7.99,100.32,13.29,12.03,12.76,26.48,7.32,41.93-8.21,23.34-24.93,39.34-45.35,51.71-10.86,6.57-22.73,11.47-34.15,17.1-1.28,.63-2.64,1.11-4.72,1.98,2.28,1.33,3.96,2.22,5.55,3.25,4.56,2.97,4.85,7.53-.02,10.31-5.85,3.34-12.08,6.23-18.46,8.4-8.98,3.05-18.25,5.26-27.55,7.88,2.53,.97,5.31,1.64,7.64,3.06,1.83,1.11,3.94,2.98,4.32,4.83,.23,1.12-2.36,3.42-4.12,4.24-9.97,4.66-20.58,6.38-31.5,5.52-6.55-.52-13.05-1.72-19.41-2.59,2.44,7.4-.16,11.37-8.63,11.06-34.75-1.25-66.72-10.11-92.57-35.02-.22-.21-.55-.32-1.61-.92,3.78,16.89,6.69,33.33,4.4,50.03,9.68,0,19.13-.52,28.5,.1,26.81,1.76,52.5,7.41,74.43,24.22,16.12,12.36,24.33,29.43,27.82,48.94,2.75,15.35,.79,30.36-4.9,44.87-.24,.62-.4,1.34-.84,1.79-1.97,2.04-4.02,5.54-6.06,5.55-2,0-4.16-3.44-5.95-5.62-.98-1.19-1.36-2.89-2.47-5.4-3.43,12.13-8.38,22.35-15.3,31.59-8.45,11.29-19.31,19.64-31.87,25.76-2.56,1.25-6.68,2.32-8.57,1.11-2.06-1.32-2.37-5.38-3.45-8.28-11.55,9.95-25.11,18.43-40.33,23.93-6.49,2.35-13.26,4.25-20.07,5.28-6.79,1.03-8.42-1.64-6.12-8.09,.26-.73,.48-1.48,.96-2.94-3.72,1.41-6.96,2.4-9.96,3.89-1.25,.62-2.53,2.21-2.81,3.57-1.72,8.11-6.54,13.55-13.72,17.3-1.09,.57-2.38,2.1-2.38,3.19,0,12.89-8.08,20.02-18.41,24.83-10.69,4.99-22.22,4.86-33.71,3-29.31-4.75-57.66-12.95-85.38-23.49-1.72-.66-4.32-.54-5.95,.31-21.95,11.35-45.44,17.94-69.57,22.27-15.25,2.74-30.77,4.13-45.44-2.81-10.02-4.74-18.13-11.25-17.76-24.01,.04-1.27-1.6-3.22-2.93-3.81-11.24-5.04-17.15-13.67-18.05-26.24-3.72-.55-7.41-1.1-11.13-1.65-.1,6.86-2.96,8.99-9.89,7.46-15.72-3.47-29.1-11.59-41.8-21.06-1.46-1.09-2.91-2.16-5.03-3.74,.36,1.44,.57,2.2,.73,2.98,1.49,7.3-2.07,10.75-9.08,8.22-22.59-8.16-37.63-24.11-46.62-46.09-.5-1.22-.88-2.49-1.5-4.25-.81,1.43-1.48,2.55-2.1,3.71-3.27,6.11-7.09,6.58-10.16,.22-3.54-7.32-6.46-15.21-8.02-23.17-3.16-16.07-1.39-32.18,3.86-47.56,6.45-18.9,20.48-31.57,37.58-40.77,16.43-8.85,34.12-14.16,52.72-16.11,9.54-1,19.1-1.79,29.03-2.71-1.19-17.77,1.34-35.34,6.72-53.06-.9,.42-1.43,.49-1.57,.76-8.15,16.52-22.92,25.46-38.69,32.78-15.24,7.08-31.18,12.07-48.38,11.25-7.32-.35-10.23-4.42-7.92-9.68-9.82,.53-20.19,1.69-30.52,1.44-6.48-.16-12.96-2.21-19.32-3.89-1.8-.48-4.25-2.51-4.41-4.03-.16-1.52,1.88-3.76,3.5-4.87,3.34-2.28,7.05-4.01,11.54-6.48-21.03-1.97-39.21-8.97-56.57-18.41-.58-.32-1.29-.58-1.66-1.07-1.88-2.49-5.08-5.05-5.08-7.58,0-2.26,3.57-4.52,5.75-7-5.08-2.51-11.28-5.44-17.36-8.6-19.37-10.06-36.78-22.68-50.25-40.09-7.9-10.21-13.36-21.78-15.12-34.6-1.61-11.66,2.95-21.47,11.92-29.74C.52,456.71-3.14,434.42,2.54,410.74c3.69-15.39,11.96-28.41,24.49-38.33,30.25-23.95,66.62-24.79,96.04-1.45,22.82,18.1,40.83,55.57,18.13,96.54Zm160.18,110.08c-9.61,26.52-18.36,52.9-15.75,82.29,4.89-6.7,7.28-14.55,15.65-18.31,0,5.42,.2,10-.04,14.56-.43,8.23-.54,8.23,7.2,10.69,47.53,15.1,91.41,37.61,132.65,65.45,5.33,3.6,10.6,9.92,16,10.04,5.71,.12,11.61-5.57,17.33-8.9,41.25-24.04,83.51-46,128.75-61.67,5.18-1.79,5.61-4.37,4.92-8.69-.78-4.89-1.43-9.82-1.84-14.75-.12-1.43,.77-2.94,1.19-4.42,1.34,.64,3.13,.93,3.96,1.98,3.7,4.68,7.12,9.57,10.59,14.32,0-8.19,.74-16.42-.15-24.46-1.97-17.7-7.66-34.46-14.52-50.83-.63-1.5-.31-3.39-.43-5.1,1.82,.27,3.95,.02,5.4,.9,5.63,3.44,11.05,7.24,17.42,11.49-.74-3.62-.9-6.61-1.96-9.24-5.94-14.87-12.17-29.62-18.06-44.52-.69-1.76,.11-4.1,.22-6.18,1.8,.82,4.23,1.14,5.3,2.52,15.54,20.11,27.22,41.96,29.03,67.91,.38,5.49,2.48,9.3,7.05,12.28,13.19,8.6,27.58,14.31,42.74,18.16,6.88,1.75,13.93,2.85,21.92,4.45-3.62-5.45-6.63-9.59-9.15-14.01-.75-1.32-.16-3.42-.18-5.16,1.67-.01,3.52-.51,4.98,.05,5.7,2.17,11.13,5.1,16.91,6.97,12.03,3.89,24.34,5.13,37.21,2.47-3.41-2.97-6.51-5.45-9.3-8.24-1.03-1.03-2.05-3-1.73-4.18,.29-1.05,2.35-1.99,3.77-2.29,11.63-2.44,23.34-4.51,34.93-7.14,4.58-1.04,8.91-3.22,14.46-5.29-4.67-1.12-8.06-1.49-11.04-2.79-2.72-1.18-4.99-3.38-7.46-5.14,2.29-1.58,4.39-3.63,6.9-4.66,23.02-9.39,46.18-18.52,65.61-34.65,14.08-11.69,25.53-25.23,28.94-43.97,1.39-7.66,1.5-15.16-5.84-20.15-1.49-1.01-4.24-.89-6.12-.33-.97,.29-1.76,2.69-1.85,4.18-.99,17.66-7.59,32.44-21.77,43.47-5.58,4.34-11.72,5.49-18.73,3.78,.3-.77,.35-1.33,.65-1.6,1.34-1.24,2.66-2.54,4.16-3.56,11.28-7.64,17.59-18.74,21.48-31.36,2.4-7.79,2.83-15.74-1.41-23.15-3.15-5.51-10.13-8.35-15.81-6.87-5.18,1.35-8.22,6.21-8.27,13.25-.02,3.17,.07,6.34-.04,9.5-.51,14.92-8.52,26.17-21.68,30.03-4.54,1.33-9.29,1.94-13.88,2.87-1.61,15.21-8.3,23.2-15.96,19.26,6.85-14.77,4.99-22.72-7.63-33.52-1.24-1.06-2.66-3.07-2.43-4.36,.21-1.18,2.44-2.24,3.97-2.89,8.17-3.47,16.27-6.89,19.07-16.58,1.94-6.68-.62-13.94-5.77-14.29-10.53-.71-20.61,1.11-28.38,9.02-9.35,9.52-12.9,21.93-12.76,34.53,.09,8.19-3.4,11.35-9.34,14.7-15.99,9.04-32.71,14.18-50.84,8.35-13.89-4.46-24.44-14.44-35.04-24.02-3.33-3.01-6.58-6.17-9.43-9.63-2.97-3.6-1.44-6.71,3.18-7.06,1.65-.13,3.33-.1,4.99,0,4.13,.25,8.25,.59,12.38,.89,.23-.44,.45-.88,.68-1.31-8.04-6.9-16.02-13.87-24.17-20.65-1.28-1.06-3.27-1.65-4.97-1.75-5.57-.32-6.85-1.48-6.93-7.2-.04-3.36,0-6.72,0-10.48-1.18,.6-1.55,.68-1.75,.9-.66,.75-1.19,1.6-1.89,2.31-7.96,8.16-14.83,17.73-26.41,21.3-2.1,.65-4.61-.05-6.94-.13l-.41-1.74c15.45-16.02,31.54-31.56,38.61-53.7l2.28,.12c2.8,7.31,5.59,14.62,8.65,22.6,2.4-4.19,4.88-7.89,6.75-11.89,7.82-16.77,11.65-34.42,11.16-52.98-.04-1.34,.69-2.7,1.06-4.05,1.45,.52,3.27,.67,4.29,1.64,2.87,2.75,5.52,5.76,8.06,8.83,2.75,3.32,5.28,6.82,7.91,10.24,.53-8.05,.49-15.74-.53-23.28-.9-6.68-2.53-13.34-4.51-19.8-3.33-10.88-7.25-21.58-10.73-32.43-.49-1.52-.5-4.17,.41-4.91,1.2-.99,3.59-1.03,5.34-.72,1.9,.34,3.66,1.5,5.44,2.38,5.24,2.59,10.47,5.23,16.25,8.12-.15-1.47-.1-2.14-.3-2.72-9.3-26.63-23.14-50.54-42.59-71.12-1.65-1.75-2.41-4.34-3.59-6.53,2.76-.57,5.52-1.18,8.29-1.69,.43-.08,.93,.33,1.42,.42,6.38,1.18,12.76,2.35,20.24,3.72-21.24-26.1-47.46-43.03-78.33-54.13,6.36-9.4,16.06-6.62,23.87-9.94-7.63-4.92-15.2-9.67-23.28-13.27-18.49-8.23-38.03-11.11-58.21-10.16-2.03,.1-5.17-.78-5.91-2.2-.76-1.44,.24-4.53,1.46-6.16,4.24-5.63,8.92-10.94,13.43-16.37-.07-.44-.15-.87-.22-1.31-10.71,2.52-21.65,4.34-32.06,7.77-7.76,2.56-14.78,7.3-22.25,10.82-1.92,.91-4.45,1.53-6.36,1.02-.94-.25-1.45-3.35-1.57-5.2-.15-2.46-.04-5.02,.51-7.41,2.16-9.45,4.53-18.84,7.13-29.56-8.28,5.95-16.19,11.02-23.37,16.96-8.42,6.96-14.3,16.03-18.96,25.91-2.33,4.95-4.94,5.3-7.34,.93-6.29-11.43-16-19.42-26.28-26.85-8.52-6.15-18.06-10-28.79-12.46,.81,1.44,1.41,2.27,1.77,3.18,4.3,11.24,8.71,22.44,12.68,33.79,.6,1.72-.58,4.33-1.55,6.2-.33,.64-2.9,.86-3.89,.29-11.86-6.71-24.77-10.08-38.08-11.99-6.53-.94-13.18-1.06-20-1.57,5.83,5.76,11.15,10.78,16.13,16.12,1.15,1.23,1.79,3.7,1.42,5.31-.21,.92-2.94,1.85-4.5,1.8-12.41-.41-24.4,1.9-36.24,5.22-14.99,4.21-29.17,10.21-42.04,19.28,6.05,1.2,11.88,2.16,17.58,3.61,1.44,.37,2.49,2.29,3.71,3.49-1.26,1.14-2.34,2.86-3.82,3.33-13.75,4.39-25.83,11.9-37.68,19.84-9.89,6.63-18.4,14.75-26.44,24.35,7.34-1.59,13.91-3.22,20.56-4.35,2.56-.44,5.32,.27,7.99,.46-1.13,2.37-1.78,5.16-3.46,7.04-14.52,16.2-25.71,34.52-34.76,54.18-2.99,6.51-5.25,13.35-8.3,21.23,8.1-4.28,14.77-7.95,21.6-11.31,1.76-.87,3.99-.75,6.01-1.09,.03,1.98,.52,4.08,.02,5.91-3.98,14.64-8.34,29.18-12.2,43.85-2.88,10.93-3.01,22.12-2.2,33.81,5.16-6.4,9.78-12.46,14.79-18.16,1.41-1.61,3.97-2.2,6-3.26,.64,2.08,1.64,4.12,1.86,6.23,1.13,11.03,1.4,22.2,3.26,33.1,1.8,10.52,6.48,20.19,11.97,29.24,2.03-6.77,3.87-13.26,5.99-19.67,.45-1.36,1.93-2.38,2.94-3.55,1.13,1.04,2.6,1.89,3.33,3.16,3.98,6.86,6.99,14.45,11.82,20.62,7.15,9.13,15.58,17.24,23.37,25.88,1.21,1.34,1.86,3.17,3.35,5.79-19.74-.2-27.32-15.61-39-26.29,0,3.15,.11,5.46-.02,7.75-.45,8.11-.73,8.4-8.63,10.62-.78,.22-1.51,.69-2.21,1.12-9.53,5.9-17.5,13.52-24.3,21.66,4.82,0,9.74-.19,14.63,.1,1.76,.11,4.32,.96,4.93,2.23,.58,1.2-.43,3.87-1.6,5.08-7.95,8.27-15.75,16.74-24.31,24.34-10.25,9.11-22.25,13.91-36.48,12.51-15.52-1.53-28.86-8.01-41.36-16.7-1.03-.72-1.43-2.78-1.55-4.27-.48-5.78-.06-11.72-1.19-17.35-4.66-23.26-15.57-33.14-37.11-33.9-5.97-.21-9.07,3.16-9.09,9.22-.02,7.08,3.25,12.53,8.93,16.33,3.82,2.56,8.13,4.37,12.22,6.51,4.06,2.13,4.12,4.24,.37,6.81-2.17,1.48-4.49,2.96-6.14,4.94-7.3,8.71-8.28,18.08-1.04,29.43-3.49,0-6.28,.84-8.07-.14-8.17-4.5-9.62-12.24-8.52-20.89-1.55-.1-2.7-.2-3.86-.24-16.5-.53-27.34-8.85-30.92-24.87-1.24-5.56-.41-11.57-.66-17.37-.27-6.21-4.35-11.62-9.4-12.69-5.38-1.13-12.07,1.85-14.61,7.2-1.52,3.2-2.72,6.87-2.84,10.36-.64,19.03,8.41,33.25,22.94,44.58,1.46,1.14,2.79,2.44,5.02,4.41-7.59,1.2-13.57,1.39-19.07-2.85-14.47-11.17-21.77-25.81-22.12-44.08-.03-1.67-1.38-4.18-2.75-4.73-1.5-.6-4.03,.16-5.55,1.17-1.55,1.02-2.63,2.96-3.54,4.69-3.93,7.44-1.86,14.86,.55,22.13,5.93,17.87,18.85,30.1,33.37,41.07,18.29,13.82,39.55,21.99,59.96,31.79,1.65,.79,3.03,2.18,4.53,3.28-1.58,1.51-2.91,3.67-4.79,4.4-4.12,1.58-8.52,2.44-13.36,3.74,1.23,.72,1.9,1.21,2.65,1.52,18.07,7.62,36.54,13.65,56.4,14.37,1.88,.07,4.33,1.27,5.31,2.75,.56,.85-.92,3.68-2.16,4.97-3.26,3.38-6.89,6.41-10.77,9.93,1.43,.08,2.52,.17,3.61,.21,16.56,.51,32.26-2.55,46.79-10.93,2.01-1.16,4.82-.94,7.25-1.36-.36,2.49-.22,5.2-1.2,7.41-1.79,4.03-4.26,7.76-6.64,11.96,19.55-2.8,36.91-10.36,53.06-21.1,5.97-3.97,11.6-7.94,9.45-16.48-.08-.3,.03-.66,.08-.99,3.48-26.06,15.89-48.16,30.86-69.08,.89-1.24,3.22-1.44,4.87-2.12,.12,1.64,.82,3.5,.28,4.88-2.97,7.53-6.39,14.88-9.38,22.4-4.17,10.51-8.1,21.11-12.13,31.68,.47,.22,.95,.44,1.42,.67,7.31-4.11,13.24-10.94,23.06-11.47Zm153.69,181.61c5.49,6.24,10.39,2.62,15.26,.47,39.92-17.69,80.34-34.04,123.32-42.75,11.93-2.42,24.31-2.8,36.52-3.57,2.14-.14,4.46,2.42,6.69,3.74-1.92,1.52-3.81,3.07-5.77,4.55-.37,.28-.94,.3-1.43,.4-12.14,2.45-24.39,4.47-36.41,7.42-56.31,13.87-109.8,34.9-159.91,64.22-4.07,2.38-8.07,3.17-12.33,2.32-26.87-5.4-53.8-5.25-80.72-.77-10.14,1.69-19.97,4.57-27.74,12.07-4.43,4.27-6.98,9.47-4.68,15.18,2.13,5.28,7.87,5.76,12.87,5.56,6.93-.27,13.83-1.4,20.77-1.77,1.82-.1,3.71,1.24,5.57,1.91-1.06,2-1.61,4.77-3.27,5.87-8.46,5.64-18.05,7.12-28.03,6.25-7.14-.62-10.4,2.7-8.21,9.6,.96,3.03,3.36,6.81,6.03,7.83,6.06,2.31,12.63,3.8,19.1,4.34,6.06,.5,12.25-.78,18.39-1,1.41-.05,2.86,1.02,4.29,1.58-.71,1.5-1.04,3.57-2.22,4.37-2.57,1.73-5.45,3.41-8.42,4.04-6.27,1.32-12.68,1.94-19.01,2.85,1.29,6.41,5.68,10.89,13.87,14.21,10.62,4.3,21.62,3.6,32.42,1.79,29.26-4.91,57.09-14.09,82.54-29.7,4.2-2.58,8.25-3.56,13.44-3.32,41.54,1.92,82.55-1.67,122.35-14.39,14.44-4.62,28.47-10.52,42.73-15.71,1.51-.55,3.32-.29,4.99-.4-.08,1.69,.22,3.52-.31,5.06-1.19,3.47-2.79,6.8-4.84,11.66,8.66-3.51,16.21-5.95,23.18-9.52,14.8-7.58,27.66-17.66,37.64-31.22,1.46-1.98,4.36-2.88,6.6-4.29,.65,2.54,1.93,5.12,1.8,7.62-.23,4.56-1.31,9.08-2.13,14.25,1.36-.73,2.12-1.04,2.76-1.5,20.32-14.61,31.72-34.26,33.55-59.34,.26-3.5,.86-6.98,1.42-11.36,8.63,4.53,10.52,12.39,14.34,18.93,2.7-6.57,3.47-12.6,2.14-25.08-1.75-16.42-8.54-30.43-20.97-41.59-11.76-10.55-25.54-16.89-40.8-20.45-29.74-6.94-59.03-6.64-87.94,4.34-31.47,11.95-61.63,26.63-91.15,42.68-19.49,10.59-38.72,21.65-58.28,32.62Zm-6.74,10.9c-17.32-7.49-33.59-14.71-50.02-21.59-33.2-13.9-66.17-28.53-101.97-34.86-4.22-.75-8.52-1.49-12.51-2.97-1.48-.55-3.26-3.46-2.95-4.86,.33-1.49,2.89-2.62,4.64-3.6,.77-.43,1.96-.12,2.96-.09,17.04,.45,33.36,4.66,49.5,9.64,33.74,10.41,65.73,25.14,97.7,39.88,3.79,1.75,6.69,1.85,9.52-1.65-1.15-.9-2.14-1.76-3.22-2.49-32.89-22.22-67.31-41.67-104-56.9-29.72-12.34-59.82-22.46-92.9-16.55-16.68,2.98-32.95,6.83-47.89,15.17-32.79,18.31-43.77,51-35.32,83.12,1.98-3.77,3.51-7.68,5.91-10.97,2.34-3.2,2.74-8.31,8.6-9.55,.86,28.62,10.27,52.49,35.61,68.79-.95-7.66-3.51-14.62-.2-21.93,17.84,14.54,35.4,28.11,56.59,37.27-1.68-4.36-3.23-7.99-4.42-11.73-.34-1.07-.05-2.93,.69-3.58,.62-.54,2.49-.14,3.51,.4,3.07,1.64,5.96,3.59,8.97,5.35,6.42,3.74,13.2,5.77,20.78,4.45-5.63-13.47-3.78-24.85,6.75-33.05,6.16-4.79,13.33-9.01,20.73-11.32,9.52-2.98,19.7-3.95,29.63-5.53,21.96-3.48,43.68-.91,65.35,2.77,1.56,.26,3.52,.5,4.78-.2,7.37-4.06,14.59-8.41,23.17-13.42ZM94.5,487.72c1.45-19.2,12.92-28.41,31.61-25.88,1.52,.21,4.06-.84,4.8-2.09,6.61-11.13,9.88-23.29,8.15-36.17-4.68-34.97-38.99-64.53-78.4-54.58-42.19,10.65-62.14,61.23-37.29,96.94,2.45,3.52,5.81,6.42,8.04,8.83,4.66-4.77,8-9.55,12.51-12.55,13.76-9.14,35.85-2.38,36.54,16.63,.13,3.72,1.06,7.41,1.7,11.64,4.48-1,8.44-1.89,12.34-2.76Zm731.11,4.8c.63-4.31,1.16-7.88,1.66-11.46,1.78-12.73,9.4-21.05,20.04-20.81,10.52,.24,19.51,4.36,24.81,13.92,2.1,3.79,4.26,3.57,7.08,1.83,1.65-1.02,3.21-2.41,4.4-3.96,8.14-10.57,11.97-22.85,12.57-35.93,.81-17.67-5.71-32.81-18.32-45.11-17.08-16.67-37.48-23.84-60.95-18.07-35.01,8.61-59.85,49.69-41.72,87.63,1.69,3.53,3.12,5.01,7.38,4.06,8.28-1.84,15.51,.32,21.74,6.62,5.22,5.28,7.63,11.38,7.73,18.69,4.67,.88,8.98,1.7,13.59,2.57ZM628.8,120.81c-4.85,11.79-9.4,22.87-13.92,33.84,19.24,3.83,33.58,15.5,45.62,31.14,7.76-12.55,12.09-25.73,13.64-39.81,.2-1.79-.86-4.22-2.15-5.59-11.78-12.53-26.37-18.97-43.19-19.58Zm-337.67,34.11c-4.08-10.51-7.96-20.82-12.17-31-.54-1.3-2.83-2.76-4.23-2.68-16.09,.92-29.68,7.28-40.34,19.51-.92,1.06-1.99,2.65-1.86,3.88,1.56,14.54,5.56,28.33,13.18,41.2,11.72-16.11,26.81-26.71,45.41-30.9Zm177.2,714.2c-.03,.52-.05,1.03-.08,1.55,.38,.19,.74,.44,1.15,.55,18.54,5.28,36.97,11.05,55.68,15.62,11.95,2.92,24.1,5.9,36.76,3.35,9.33-1.88,17.22-8.13,18.76-16.28-12.26,1.48-23.4-1.38-33.68-8.06-1.42-.92-3.84-.56-5.76-.38-12.21,1.15-24.38,2.89-36.61,3.51-12.04,.61-24.14,.13-36.21,.13ZM675.11,130.44c-.88-14.38-3.24-28.11-8.89-41.06-1.24-2.85-3.4-5.8-5.95-7.48-8.44-5.57-17.53-9-27.35-5.56-.86,12.91-1.69,25.22-2.51,37.52,20.7,.67,31.35,6.57,44.69,16.58Zm-399.51-16.77c-.44-11.92-.81-23.82-1.43-35.71-.05-.98-1.62-2.49-2.71-2.72-11.16-2.34-28.25,7.05-32.29,17.64-4.62,12.09-7.25,24.54-6.84,37.95,13.5-11.34,19.96-15.13,43.27-17.17Zm31.88,61.93c-2.91-3.75-5.69-7.03-8.1-10.56-1.77-2.61-3.52-3.18-6.65-2.29-16.71,4.76-29.74,14.9-41.04,27.6-.74,.84-1.13,3-.59,3.79,2.19,3.19,4.82,6.09,7.28,9.08,14.71-12.18,31.24-21.46,49.1-27.62Zm349.18,17.9c-12.09-16.37-27.23-26.94-46.21-32.29-1.84,2.55-3.54,4.93-5.39,7.49,2.02,.93,3.68,1.64,5.31,2.44,12.26,6.07,23.73,13.3,33.53,22.94,3.4,3.35,2.6,7.01-1.8,8.87-1.98,.83-4.09,1.36-6.2,2.04,3.84,4.65,7.1,3.85,10.3,.2,3.39-3.86,6.85-7.65,10.47-11.69Zm.14-123.46c-8.33-16.64-20.76-30.82-34.37-44.13,3.41,14.43,6.76,28.6,10.01,42.38,7.64,.55,15.91,1.15,24.35,1.76Zm-382.75-1.04c3.58-14.45,7.07-28.49,10.54-42.49-13.79,12.6-25.6,26.91-34.66,43.87,4.52-.8,8.51-1.91,12.55-2.12,4.06-.21,8.17,.49,11.56,.73ZM98.34,499.96c-4.23,.92-8.63,1.88-13.03,2.84,4.29,10.65,18.74,15.87,26.42,9.83-4.39-4.16-8.8-8.34-13.38-12.67Zm711.63,2.46c-5.17,4.49-9.97,8.67-14.67,12.75,8.04,5.58,21.48,1.05,26.75-9.7-4.13-1.04-8.22-2.08-12.09-3.05Zm-248.87,361.24c17.07,1.71,28.97-.95,32.71-8.21-10.57,2.65-20.95,5.26-32.71,8.21Z"/>
      <path class="cls-1" d="M668.36,934.94c-4.97,6.65-11.08,6.61-16.37,7.01-30.8,2.34-61.61,5.12-92.47,5.99-50.43,1.42-100.89,1.67-151.34,2.04-20.48,.15-40.96-.54-61.44-1.08-17.79-.47-35.61-.79-53.36-2.03-20.67-1.44-41.28-3.67-61.89-5.85-3.83-.41-8.54-.3-10.16-5.4,3.46-1.51,6.79-3.85,10.4-4.39,33.29-4.99,66.86-5.97,100.44-6.34,60.1-.67,120.21-1.64,180.31-1.45,32.59,.1,65.19,2.12,97.76,3.73,15.88,.78,31.71,2.45,47.53,4.07,3.35,.34,6.53,2.23,10.59,3.7Z"/>
      <path class="cls-1" d="M450.35,395.56c30.53,.42,58.02,4.1,82.94,14.92,6.94,3.02,13,7.13,19.41,10.79,1.03,.59,1.89,1.39,2.62,2.2,2.62,2.87,2.51,6.02-.55,7.53-3.68,1.81-7.34,1.38-10.28-1.03-7.19-5.88-15.62-10.46-25.39-13.81-13.76-4.73-28.3-7.56-43.3-8.55-13-.86-26.19-1.27-39.21-.72-22.8,.97-44.35,5.37-62.83,15.84-3.66,2.07-6.77,4.68-10.14,7.03-3.02,2.1-6.19,2.81-9.63,.49-3.4-2.29-3.01-4.87-.33-7.12,8.62-7.26,19.2-12.72,30.77-17.09,15.49-5.85,32.13-8.73,49.46-9.6,6.13-.31,12.26-.66,16.46-.88Z"/>
      <path class="cls-1" d="M368.21,327.23c-15.48-.6-29.88-4.24-41.04-15.82-6.38-6.62-10.38-14.53-10.03-24.1,.13-3.53,.87-6.68,5.13-7.36,4.34-.69,6.16,2.13,6.88,5.54,4.24,20,26.02,31.24,47.61,27.2,14.4-2.69,25.22-10.3,30.78-24.44,1.34-3.41,3.92-5.59,7.85-4.13,4.41,1.64,4.58,5.49,3.57,9.16-3.09,11.24-9.98,19.7-19.93,25.61-9.46,5.61-19.72,8.45-30.8,8.32Z"/>
      <path class="cls-1" d="M534.31,329.16c-15.72-1.43-32.79-8.13-42.52-27.19-1.45-2.84-2.49-6.34-2.28-9.44,.15-2.2,2.28-5.13,4.32-6.14,2.77-1.37,5.42,.32,6.61,3.49,5.55,14.71,17.1,21.97,31.78,24.65,17.08,3.12,39.53-4.36,46.95-24.89,.67-1.86,1.11-4.05,2.4-5.36,1.43-1.45,3.98-3.14,5.54-2.74,1.69,.43,3.72,3.01,3.99,4.88,.97,6.89-1.73,13.04-5.39,18.68-9.77,15.06-28.15,24.4-51.4,24.06Z"/>
      <path class="cls-1" d="M455.11,375.51c-9.71-.09-18.44-2.76-25.73-9.16-2.29-2.01-4.21-4.72-5.54-7.47-1.34-2.78-1.2-5.83,2.02-7.82,3.07-1.9,5.46-.7,7.44,1.65,6.06,7.17,13.98,9.59,23.03,9.45,8.57-.13,15.9-3.16,21.52-9.57,2.57-2.93,5.39-3.62,8.3-1.83,3.03,1.86,2.68,5.03,1.21,7.98-4.44,8.9-12.38,13.03-21.47,15.33-3.5,.88-7.18,1-10.79,1.46Z"/>
    </g>
  </g>
</svg>