<?xml version="1.0" encoding="UTF-8"?>
<svg id="Ebene_2" data-name="Ebene 2" xmlns="http://www.w3.org/2000/svg" viewBox="0 0 989.73 942.59">
  <defs>
    <style>
      .cls-1 {
        fill: #fff;
      }
    </style>
  </defs>
  <g id="Ebene_1-2" data-name="Ebene 1">
    <path class="cls-1" d="M614.44,386.84c-1.51,9.66-2.24,17.95-4.17,25.94-6.15,25.39-23.07,34.77-48.18,27.45-8.68-2.53-17.43-5.17-26.33-6.5-12.65-1.88-23.94,2.19-34.63,9.3-8.45,5.63-17.38,11.2-26.9,14.39-24.96,8.37-44.64-3.18-50.87-28.72-8.12-33.3-.07-63.71,17.59-91.99,13.84-22.16,32.17-39.49,58.18-46.23,24.62-6.38,48.97-7.68,71.87,7.05,19.88,12.78,31,31.5,36.98,53.47,3.27,12.03,4.51,24.62,6.47,35.84Zm-53.15,39.75c-7.09-19.64-27.89-32.49-52.75-28.61-28.7,4.49-45.57,33.04-44.81,48.52,.76,.05,1.56,.22,2.34,.13,.97-.11,2.02-.25,2.87-.68,7.92-4.02,16.53-7.13,23.54-12.36,15.5-11.56,32.38-15.32,51.05-11.87,5.78,1.07,11.39,3.09,17.76,4.87Zm-91.92-103.66c.19,.39,.38,.77,.57,1.16,5.28-.96,10.52-2.13,15.83-2.85,19.33-2.63,38.67-5.2,58.04-7.59,5.6-.69,11.3-.59,16.93-1.1,1.24-.11,2.39-1.28,3.58-1.97-.7-1.04-1.16-2.48-2.13-3.03-3.72-2.1-7.41-4.66-11.46-5.71-28.61-7.37-54.35-.74-77.64,16.78-1.48,1.11-2.49,2.85-3.72,4.3Z"/>
    <path class="cls-1" d="M444.39,259.32c8.01,.04,15.01,2.99,21.38,7.29,1.69,1.14,3.64,4.44,3.09,5.72-.83,1.92-3.71,3.99-5.81,4.09-3.69,.18-7.43-1.2-11.17-1.71-14.64-2.01-25.89,3.23-33.84,15.76-.87,1.37-2.85,2.04-4.31,3.03-.81-1.66-2.25-3.3-2.33-5-.52-11.69,10.64-24.67,23.74-27.76,3.03-.72,6.17-.97,9.26-1.43Z"/>
    <path class="cls-1" d="M511.86,246.55c11.3,.19,19.42,2.13,26.77,6.74,1.94,1.22,4.28,2.61,5.15,4.51,1.06,2.3,.76,5.23,1.04,7.89-2.48-.04-5.16,.5-7.4-.26-4.5-1.53-8.6-4.39-13.16-5.58-11.87-3.11-22.92-.72-32.95,6.4-2.02,1.44-4.03,3.11-6.31,3.9-1.65,.57-4.35,.53-5.47-.48-.95-.85-.92-3.73-.28-5.27,3.62-8.72,11.3-12.75,19.62-15.4,4.99-1.59,10.36-1.97,12.98-2.43Z"/>
    <path class="cls-1" d="M583.23,241.56c11.52-.9,23.69,8.15,26.71,21.43,.38,1.65-.79,3.65-1.25,5.49-1.7-.68-3.64-1.05-5.05-2.11-2.24-1.68-3.94-4.08-6.2-5.72-8.79-6.37-17.6-6.04-28.41,.86-1.53,.98-2.8,2.57-4.45,3.11-1.96,.65-5.24,1.39-6.08,.44-1.29-1.46-1.84-4.61-1.2-6.55,2.83-8.63,15.88-16.91,25.92-16.95Z"/>
    <path class="cls-1" d="M989.44,648.54l-2.34-10.5-9.21-15.32c-10.84-13.51-25.81-20.28-41.62-25.71-.9-.31-1.84-.51-4.13-1.14,17.26-6.1,30.45-15.18,35.67-33.28,.13,0,.25,.03,.37,.04,.77-4.93,1.2-10.15,1.4-15.18-1.02-4.25-1.81-8.32-3.21-12.18-9.89-27.29-30.99-42.1-57.46-50.4-5.78-1.81-9.31-3.26-10.7-10.36-2.82-14.4-12.18-25.19-23.85-33.73-15.3-11.21-32.41-17.07-51.09-16.07-18.43-31.04-46.84-44.02-81.09-47.64,.22-.71,.42-1.64,.8-2.5,25.31-57.71,43.01-117.68,53.57-179.8,.94-5.51,1.19-11.3,5.87-15.88,13.79-13.5,23.7-29.64,31.06-47.46,1.68-4.06,3.98-8.09,6.84-11.4,7.3-8.42,15.28-16.25,22.62-24.64,6.79-7.76,12.86-16.18,14.84-26.57,2.36-12.34-2.23-26.27-18.09-27.54-8.29-.66-15.27,2.8-20.99,8.51-8.6,8.59-16.98,17.42-25.33,26.25-1.12,1.18-1.54,3.01-2.29,4.54-.59-.57-1.17-1.14-1.76-1.71,.17-.43,.32-.87,.51-1.29,6.54-15.14,14.22-29.87,16.96-46.39,1.35-8.17,.5-16.09-5.09-22.55-9.2-10.63-25.52-9.4-35.03,2.57-8.65,10.9-14.11,23.5-18.47,36.61-1.15,3.45-2.6,6.8-4.38,11.41-.58-9-.84-16.46-1.61-23.87-.9-8.73-2.37-17.4-7.09-25.06-7.59-12.31-23.35-13.94-32.87-3.01-3.06,3.51-6.02,8.02-6.74,12.45-1.6,9.93-2.23,20.08-2.39,30.15-.16,10.14,.77,20.29,1.1,30.44,.05,1.63-.49,3.28-.8,5.22-6.62-6.35-12.63-12.28-18.82-18.01-7.63-7.06-16.43-10.89-27.15-9.95-11.53,1.01-19.72,11.66-17.9,22.9,1.94,11.98,9.11,20.78,16.58,29.5,12.25,14.29,23.6,29.13,30.45,46.92,2.11,5.48,3.54,10.88,2.05,16.87-5.32,21.44-10.33,42.96-15.69,64.39-1.77,7.08-4.28,13.97-6.67,21.63-5.47-5.62-10.18-10.44-14.86-15.25,.98-1.52,1.98-2.85,2.76-4.3,11.92-22.07,12.83-45.33,6.49-68.99-6.51-24.3-20.48-44.28-39.23-60.53-10.32-8.94-22.29-16.03-33.8-23.5-2.96-1.92-7.86-4.15-10.3-.36-1.35,2.09,.37,6.83,1.77,9.89,4.33,9.48,9.67,18.51,13.69,28.1,9.31,22.2,11.63,45.03,4.37,68.39-.99,3.19-1.99,4.92-6.21,4.07-7.27-1.47-14.74-2.18-22.16-2.57-8.05-.42-16.14-.09-24.61-.09,2.53-3.93,5.19-8.04,7.83-12.18,1.94-3.03,4.09-6.91,1.22-9.54-2.3-2.11-6.63-3.16-9.89-2.86-15.03,1.38-28.94,6.53-41.99,14.07-2.89,1.67-5.82,3.28-9.5,5.35,.44-3.79,.76-6.58,1.1-9.36,.76-6.25,1.72-12.49,2.24-18.76,.48-5.84-2.52-8-8.06-5.81-3.18,1.26-6.34,2.88-9.08,4.91-11.3,8.42-20,19.11-25.76,30.62-8.8-5.75-17.28-11.78-26.26-16.94-3.71-2.13-8.42-3.01-12.77-3.38-5.84-.51-7.8,3.16-4.97,8.24,2.17,3.9,4.66,7.65,6.53,11.68,1.68,3.62,2.7,7.54,4.4,12.44-3.81-1.7-6.18-2.85-8.63-3.82-11.48-4.55-23.15-8.28-35.7-5.65-2.34,.49-4.37,2.49-6.54,3.79,1.23,1.87,2.2,4,3.75,5.55,4.54,4.54,9.31,8.84,13.95,13.2-8.27,2.54-16.38,4.7-24.22,7.61-3.56,1.32-4.97,.55-6.52-2.56-6.18-12.35-10.8-25.2-12.84-38.88-2.1-14.16-3.61-28.34-.3-42.55,1.27-5.46,2.68-10.9,3.54-16.43,.35-2.23,.15-5.58-1.23-6.73-1.23-1.03-4.54-.11-6.68,.65-1.61,.57-3.05,2.08-4.17,3.48-7.55,9.46-15.86,18.47-22.33,28.63-19.85,31.19-25.71,64.85-15.01,100.69,3.47,11.61,8.98,22.28,17.09,30.45-4.12,6.71-8.32,12.68-11.61,19.12-4.04,7.92-.67,12.4,8.33,11.86,.64-.04,1.27-.15,2.56-.31-2.52,4.16-4.76,7.85-7.26,11.97-.91-1.39-1.57-2.11-1.91-2.96-1.9-4.75-3.67-9.55-5.59-14.29-16.26-40.18-27.83-81.77-37.42-123.96-.3-1.32,0-3.03,.62-4.27,2.64-5.33,4.98-10.92,8.4-15.73,6.54-9.18,13.77-17.87,20.66-26.81,7.3-9.47,14.46-19.17,16.6-31.25,2.34-13.26-1.28-23.98-14.38-26.92-7.71-1.73-15.16,.23-21.03,5.27-6.91,5.93-12.94,12.89-19.55,19.2-2.28,2.17-5.17,3.7-8.54,6.07-.42-4.35-.96-7.46-.98-10.57-.1-13.33,.19-26.66-.12-39.98-.23-10.03-1.94-19.87-8.48-28-5.44-6.77-12.73-10.32-21.42-9.2-7.85,1-12.92,6.38-14.92,13.69-2.29,8.39-3.95,17.02-4.95,25.66-.79,6.77-.16,13.7-.16,20.56-4.65-7.77-8.23-15.71-11.94-23.58-4.66-9.88-9.3-19.8-17.51-27.42-6.08-5.64-13.36-7.49-21.23-5.49-8.01,2.04-12.86,7.98-13.98,15.84-.9,6.29-1.28,13.25,.49,19.2,3.27,11,8.24,21.5,12.58,32.17,1.43,3.52,3.11,6.93,4.68,10.39-.39,.26-.77,.51-1.16,.77-5.91-6.08-11.35-12.74-17.88-18.07-6.32-5.16-13.33-9.97-20.81-13.1-8.54-3.57-21.37,.08-24.34,13.55-2.72,12.34,1.5,22.76,8.97,31.79,7.09,8.57,15.23,16.29,23.17,24.12,6.33,6.24,11.46,13.12,15.21,21.26,7.15,15.49,16.14,29.72,29.96,40.36,1.38,1.06,2.34,3.08,2.81,4.83,5.65,21.01,10.61,42.22,16.84,63.05,12.06,40.34,30.02,78.23,49.37,115.49,1.6,3.09,3.02,6.27,4.68,9.74-1.64,0-2.47,.02-3.3,0-27.68-.73-49.41,10.63-65.57,32.75-2.32,3.18-4.28,4.56-8.2,4.36-12.07-.61-23.76,1.86-34.96,6.07-24.43,9.18-42.54,24.73-49.27,51.09-.8,3.13-1.08,6.39-1.57,9.41-.13,.02-.25,.04-.39,.05,.33,6.13,1.46,11.79,3.86,16.05,.58,.68,1.14,1.49,1.67,2.47,.7,.86,1.25,1.78,1.67,2.73,3.2,4.8,7.51,9.03,11.34,13.73-17.67,12.26-30.85,27.92-35.22,50.45,.33,4.34,.69,8.18,1.03,9.87,1,5-5,7-5,7,0,0-4.9,1.05-11.28,3.37-2.97,1.2-5.93,2.43-8.84,3.75-.45,.22-.93,.44-1.43,.66-.73,.34-1.46,.69-2.18,1.04-12.9,6.38-22.69,15.94-28.64,29.3,0,0-3.94,11.23-3.75,20.13,.09,1.32,.23,2.6,.4,3.87,.22,1.16,.45,2.45,.67,3.81,2.73,12.82,10.11,22.8,21.35,30.19-6.82,7.95-13.58,15.84-20.11,23.46,0,0-3.76,12.63-4.47,22.52-.16,13.34,3.53,25.11,13.15,34.56,0,0,13.2,11.74,23.67,15.04,.01,0,.03,.01,.04,.02,8.11,2.17,16.24,4.45,24.66,6.76-4.79,11.02-6.3,23.62-2.14,35.43-9.17,7.28-18.07,14.07-26.61,21.28-2.72,2.29-5.05,5.45-6.53,8.69-.13,.27-.27,.51-.4,.76-1.73,3.35-8.33,17.38-6.1,32.28,2.04,12.41,9.23,21.39,19.71,27.93,14.17,8.83,29.84,11.51,46.2,10.58,21.14-1.19,40.04-8.25,56.18-22.91,18.06,22.51,42.62,29.54,69.68,28.12,26.68-1.4,50.38-10.93,67.54-31.04,4.72,4.14,9.16,8.33,13.91,12.13,13.55,10.85,29.39,15.28,46.46,16.43,20.84,1.41,40.5-2.82,59.14-11.97,9.8-4.81,18.32-11.39,25.41-20.2,18.85,22.74,44.25,32.12,72.58,33.82,28.82,1.72,54.5-6.03,73.44-29.47,6.6,5.24,13.04,10.92,20.04,15.79,14.35,9.99,30.66,15.06,47.95,15.66,11.33,.39,23.02-.02,34.04-2.41,17.03-3.68,31.45-12.28,39.22-29.02,6.18,4.92,11.92,10.1,18.25,14.4,14.52,9.88,30.95,14.44,48.28,16.28,13.89,1.47,27.47,.28,40.8-3.89,12.35-3.87,23.18-9.81,30.98-19.81,7.14-12.57,6.35-31.66,6.35-31.66-1.02-5.26-2.28-10.49-3.36-15.71,6.19-.88,13.42-1.53,20.48-2.99,13.33-2.75,24.52-8.69,32.55-19.08,10.23-18.01,9.71-23,9.71-23,1.06-15.69-4.62-28.71-15.41-40,7.11-2.03,14.04-3.67,20.72-6,7.34-2.56,13.88-6.22,19.46-11.2,1.08-1.23,2.23-2.38,3.46-3.41h0c1.86-2.01,3.59-4.19,5.18-6.57,.22-.33,.56-.65,.95-.94,4.04-7.02,5.08-14.42,5.08-14.42,2.34-16.02-1.08-30.3-10.44-43.12,7.78-3.12,15.14-7.04,22.98-8.84,8.97-2.59,12.88-12.32,12.88-12.32,7.66-8.87,10.59-19.06,9.3-30.21Zm-89.92-152.77c22.66,4.69,40.9,16.11,52.15,36.89,5.74,10.62,7.66,21.91,1.53,33.14-5.19,9.5-13.86,14.5-24.18,16.67-1.37,.29-3.95-.98-4.63-2.24-9.36-17.54-23.91-28.38-42.73-33.97-2.81-.84-5.54-1.96-8.56-3.05,5.43-15.4,.61-28.89-7.25-42.45,11.03-5.92,22.21-7.36,33.67-4.99Zm-307.23,233.93c-1.25-.17-2.87-1.41-3.4-2.58-10.83-23.59-30.46-35.89-54.49-42.33-3.77-1.01-5.57-2.38-5.17-6.29,.15-1.48,.04-3,.05-4.49,.05-4.68,.56-7.76,6.86-8.9,15.13-2.73,27.82-6.46,41.83-21.6,12.98,3.33,25.23,6.53,37.52,9.58,2.07,.51,4.35,.81,6.42,.5,7.27-1.08,13,1.74,17.93,6.64,11.62,11.54,19.02,24.81,15.36,41.84-2.12,9.86-8.64,16.82-17.42,21.22-14.36,7.19-29.76,8.52-45.5,6.42Zm5.09,13.12v17.57c-6.31,.2-6.45-.17-5.58-5.62,.62-3.89,.55-7.88,.83-12.45,1.98,.21,3.59,.38,4.75,.5Zm-211.55-39.83c-14.1-9.89-18.57-27.32-10.82-42.67,8.91-17.69,24.66-26.79,42.63-32.48,7.15-2.26,14.85-2.82,22.3-4.15,10.56,.68,20.58,2.28,30.04,6.79,23.1,11.03,30.18,36.95,15.79,58.07-8.88,13.03-21.8,19.97-36.72,23.57-22.26,5.37-43.7,4.54-63.21-9.14Zm55.82,23.75v21.22c-6.17,.52-11.84,1.01-17.44,1.48,.51-7.06,1.02-14.14,1.55-21.45,5.47-.43,10.7-.84,15.89-1.25Zm-92.59,59.95c-1.83,.13-3.66,.2-5.49,.3-16.94,.43-33.05-2.11-46.76-13.19-14.09-11.4-16.63-29.07-6.23-43.85,7.45-10.59,18.03-16.98,29.74-21.67,13.87-5.56,28.29-8.18,43.26-6.69,1.57,.16,3.44,1.07,4.46,2.24,10.08,11.6,22.87,18.65,37.73,21.53,5.01,.97,6.1,3.42,6.53,7.5,1.22,11.71-2.93,21.58-10.73,29.92-14.16,15.16-32.03,22.47-52.51,23.91Zm-.15,26.72c.2-4.23,.4-8.4,.6-12.57,2.6,6.98,2.02,11.6-.6,12.57Zm-89.31-96.27c-7.59-1.56-15.39-4.56-21.8-8.86-16.11-10.81-19.63-28.7-8.94-46.22,4.38-7.17,10.88-13.36,17.45-18.75,2.96-2.43,8.45-1.74,12.77-2.56,6.8-1.29,13.67-2.32,20.34-4.11,6.49-1.74,12.75-4.31,19.34-6.59,12.81,12.7,29.53,17.16,47.09,19.73,1.38,.2,3.18,1.22,3.8,2.38,5.25,9.83,1.21,29.01-7.7,36.21-1.66,1.34-4.18,1.72-6.37,2.27-15.47,3.89-30.53,8.7-43.2,18.95-.26,.21-.61,.34-.79,.6-8.5,12.11-20.69,9.28-31.99,6.96Zm14.58,14.73c-.9,8.31-1.78,16.48-2.71,25.15h-5.41c.99-8.34,1.98-16.64,2.99-25.15h5.13Zm375.33-79.65c4.63-1.61,9.09-2.92,13.36-4.69,10.97-4.54,20.3-11.18,26.64-21.53,.65-1.07,2.15-2.31,3.26-2.3,25.7,.06,48.48,7.12,64.78,28.44,18.98,24.82,7.82,54.42-23.03,62.3-23.76,6.07-45.75-.72-67.05-10.88,3.16-20.75-3.55-37.24-17.97-51.34Zm95.15-29.89c-3.24,.12-6.54-1.97-9.85-2.89-12.5-3.51-25.02-6.96-38.49-10.69,.97-10.35-.38-21.56-6-31.95-1.33-2.47-2.42-5.2-4.25-7.24-3.67-4.08-2.49-7.59,.22-11.46,7.64-10.96,18.46-17.55,30.73-21.75,21.34-7.3,42.58-7.84,62.97,3.24,13.49,7.32,23.28,17.99,24.82,33.83,1.36,13.95-4.95,25.14-15.9,33.52-13.01,9.96-28.01,14.79-44.25,15.4Zm12.95-102.68c-3.94-.49-7.9-.89-12.48-1.4-.86-8.13,1.31-15.23,6.41-21.28,10.21-12.11,23.57-17.63,39.21-18.33,20.58-.92,39,4.79,54.67,18.19,9.53,8.15,16.38,18.29,17.77,31.16,.77,7.12-1.81,13.28-6.9,18.45-11.12,11.32-24.9,14.4-40.07,13.09-1.05-.09-2.31-1.57-2.91-2.7-11.8-22.57-30.94-34.09-55.71-37.17Zm-24.82-9.58c-9.72-17.82-24.07-27.82-42.83-34.53,5.71-10.07,11.45-19.44,16.41-29.19,3.38-6.64,7.54-8.74,14.92-6.8,15.2,3.98,29.25,9.46,38.53,23.13,.56,.82,1.06,1.69,1.5,2.58,.97,1.92,1.88,3.87,2.99,6.17-15.57,8.18-28.41,18.75-31.52,38.65Zm-18.02-4.26c3.83,4.21,6.55,9.43,10.17,14.77-21.12,6.53-39.78,14.59-51.41,34.02-13.25-10.89-28.63-17.17-45.79-20.38,2.01-8.62,2.63-17.23-.37-25.73-.16-.46-.17-.99-.34-1.45q-2.86-8.01,4.28-12.53c26.4-16.69,62.34-11.96,83.46,11.29Zm-50.95,57.44c12.01,9.69,20.15,21.91,20.46,38.09,.24,12.85-6.03,22.24-16.37,28.91-14.85,9.59-31.29,13.78-48.77,10.49-10.59-1.99-20.83-5.83-31.2-8.93-2.15-.64-3.47-1.66-2.81-4.64,5.21-23.46-3.68-41.72-21.37-56.6-.51-.43-1.09-.77-2.07-1.45,7.52-11.52,17.63-18.31,29.95-20.99,26.17-5.7,50.82-2.12,72.19,15.12Zm-47.47-35.62c-1.15,3.71-2.88,4.98-6.98,5.17-19.32,.92-37.82,5.55-51.32,20.16-6.2,6.71-10.3,7.3-18.37,3.99-9.76-4-20.58-5.39-31.61-8.07,1.16-8.28-.47-17.14-4.82-25.4-1.56-2.95-1.19-5.3,.47-7.84,6.42-9.84,15.6-15.99,26.36-20.25,23.97-9.51,47.73-11.57,71.38,1.04,13.04,6.95,18.72,18.81,14.89,31.2Zm-106.65,35.89c22.03,.92,43.07,9.22,57.51,29.82,8.65,12.35,10.75,26.23,2.18,39.54-3.25,5.05-8.58,9.34-13.88,12.37-14.07,8.05-29.51,10.31-45.57,8.33-3.35-.41-5.51-1.48-7.11-5.33-7.98-19.24-23.3-29.9-43.13-34.46-3.21-.74-4.85-1.77-5.69-5.04-2.65-10.33,.36-18.98,7.28-26.57,12.33-13.53,28.17-18.46,48.42-18.67Zm7.45,103.4c-.44,5.04-.84,9.62-1.23,14.12-8.21,1.47-9.51,.46-9.62-7.29-.03-2.48,0-4.96,0-8.11,3.81,.45,7.14,.84,10.86,1.28Zm-27.81-114.14c-12.88,2.55-24.8,7.82-34.01,17.28-4.71,4.84-9.58,4.89-15.21,4.39-3.4-.3-5.7-1.52-7.71-4.86-10.4-17.28-27.17-25.62-45.74-30.83-10.16-2.86-11.9-5.57-8.63-16.1,3.15-10.17,10.85-16.09,19.64-20.71,9.49-4.99,19.81-7.21,30.27-7.36,19.24,.68,36.6,6.06,50.96,18.68,9.37,8.23,16.49,18.13,16.77,31.51,.1,4.65-1.36,7.02-6.34,8Zm-48.69,58.77h-4.91c1.05-3.49,2.05-6.85,3.24-10.78,.57,3.7,1.08,6.95,1.67,10.78Zm-17.46-3.11c-1.59,2.85-4.73,5.67-7.77,6.74-12.58,4.44-24.21,10.25-34.95,18.33-3.75,2.82-9.55,3.09-14.51,4.06-2.73,.53-5.64,.1-8.47,.1-13.5,.5-26.31-2.3-38.27-8.53-23.67-12.32-27.76-36.18-9.87-56.08,15.35-17.07,34.82-23.85,57.29-23.67,15.66,.12,30.2,3.92,42.77,13.41,15.37,11.61,22.37,30.19,13.79,45.64Zm-45.73-106.43c-6.12,5.47-10.14,12.29-11.6,20.35-.76,4.19-.61,8.54-.89,13.16-20.13,1.91-38.96,6.3-54.88,19.48-7.68-11.19-18.65-17.14-30.84-21.07-3.83-1.23-4.88-3.3-4.39-7,1.9-14.4,10.33-24.6,21.51-32.75,20.23-14.75,42.43-19.02,66.24-10.33,5.42,1.98,10.06,6.19,14.9,9.59,3.85,2.71,3.25,5.63-.04,8.56Zm-115.53,28.13c-22.08-.89-43.03,2.67-61.75,15.99-4.56-8.01-13.31-13.12-12.09-24.23,1.12-10.24,4.38-19.44,10.27-27.54,12.99-17.87,30.85-28.08,52.56-31.74,9.62-1.62,19.11-1.35,28.62,.99,7.87,1.94,14.69,5.11,18.79,13.38-19.34,12.79-35.03,28.09-36.4,53.15Zm-56.62,28.35c16.3-13.51,35.6-17.98,56.36-14.88,8.05,1.2,16,3.75,23.66,6.58,6.5,2.41,11.42,7.27,14.88,13.95-13.98,16.37-19.09,34.24-10.2,54.94-9.4,5.21-19.75,8.3-30.42,9.2-16.09,1.36-32.05,.71-47.21-6.39-25.93-12.14-33.49-41.51-7.08-63.4Zm22.71,81.42c.11,.02,.19,.21,.53,.6-2.43,3.21-5.07,6.37-7.36,9.77-8,11.87-13.07,24.54-10.01,39.25,.51,2.44-.33,3.77-2.97,3.97-17.3,1.32-33.67,6.09-49.85,12.28-4.52,1.73-10.77-.03-15.95-1.3-6.19-1.53-12.47-3.55-18.04-6.59-15.35-8.38-20.85-24.91-14.35-41.31,4.63-11.68,12.72-20.46,23.27-27.07,14.89-9.33,31.19-14.19,48.67-15.19,1.12-.06,2.73,.49,3.39,1.33,10.95,13.9,25.92,20.64,42.68,24.26Zm-82.46,91c12.3-12.54,27.73-19.08,44.65-22.1,8.11-1.45,16.47-1.62,24.73-2.02,1.64-.08,3.9,.96,4.96,2.23,7.92,9.54,17.93,15.73,29.89,18.53,4.46,1.05,5.65,3.11,5.62,7.5-.05,7.54,0,15.07-4.34,21.53-1.9,2.83-4.7,5.63-7.75,7.02-16.41,7.52-30.88,17.3-41.27,32.46-.92,1.34-3.14,2.23-4.89,2.48-2.77,.41-5.64,.11-8.47,.11-10.36,.26-20.45-1.07-30.14-4.99-28.67-11.59-34.71-40.61-13-62.77Zm311.83-6.97c.2-.76,1.65-1.34,2.63-1.74,14.03-5.66,26.83-12.87,35.94-25.62,1.41-1.97,5.59-2.83,8.45-2.77,23.47,.53,45.37,5.74,62.58,23.14,7.41,7.49,12.5,16.55,13.13,27.18,.86,14.43-6.1,25.09-18.09,32.58-11.77,7.35-24.97,9.33-40.07,9.61-18.72-1.24-37.6-6.46-53.6-19.57-8.1-6.64-13.84-15.18-14.62-25.62-.42-5.62,2.18-11.49,3.64-17.19Zm152.89,23.85c.69-3.65,2.21-5.61,6.31-5.95,9.94-.82,19.85-2.52,28.28-8.18,5.68-3.82,10.95-8.45,15.69-13.39,2.22-2.31,3.73-3.06,6.66-2.2,11.52,3.4,23.04,6.82,34.67,9.84,7.3,1.9,11.74,7.3,16.26,12.44,6.45,7.33,10.86,15.94,11.84,25.81,1.18,11.93-4.44,20.81-13.77,27.52-10.49,7.55-22.56,9.92-37.91,10.12-20.33-1.36-41.47-7.45-57.89-24.64-8.26-8.65-12.46-19.04-10.14-31.37Zm116.98-16.61c-.53-.62-1.09-1.21-2.32-2.57,18.78-2.47,34.77-8.69,45.42-23.34,14.86,4.64,29.47,8.66,43.61,13.93,4.46,1.66,8,6.35,11.4,10.16,9.17,10.3,14.32,22.26,12.83,36.31-1.5,14.19-15.29,26.38-31.23,29.08-18.38,3.11-34.55-2.98-50.48-10.73-1.64-.8-3.15-1.87-4.83-2.56-7.15-2.95-9.75-7.62-9.73-15.89,.02-13.08-6.12-24.47-14.67-34.38Zm52.29-37.77c-1.07-.52-2.19-2.72-1.96-3.86,4.33-21.1-2.82-38.41-17.26-53.39-.58-.6-1.16-1.2-1.67-1.85-.17-.22-.13-.61-.25-1.24,12.92-2.45,24.88-6.83,35.16-14.58,4.29-3.24,8.44-4.25,13.33-3.78,20.37,1.97,38.55,8.52,53,23.95,15.38,16.42,17.62,38.87,4.55,54.62-8.2,9.88-19.68,13.48-31.78,14.23-19.1,1.18-36.36-5.89-53.12-14.09Zm91.56-60.85c-13.43-16.55-31.39-24.9-51.8-28.88-2.92-.57-5.88-.93-9.61-1.5,5.8-9.02,8.31-18.62,7.64-28.39,8.2-1.38,16.03-2.37,23.7-4.06,8.59-1.9,15.87-6.45,22.27-12.47,.94-.88,2.63-1.76,3.74-1.53,18.01,3.8,34.12,10.81,44.2,27.41,9.98,16.42,5.82,32.92-10.67,42.54-8.13,4.74-16.93,7.38-26.3,8.04-1.05,.07-2.57-.38-3.19-1.15Zm-43.18-194.76c8.69-.5,16.22,1.84,23.5,4.86,13.21,5.47,23.8,14.26,31.54,26.35,.71,1.11,1.28,2.31,1.85,3.5,4.07,8.55,3.55,8.8-5.45,10.36-6.56,1.14-12.82,3.96-19.27,5.87-1.51,.45-3.91,.99-4.72,.23-9.24-8.66-20.21-14.26-32.69-18.69,5.46-10.5,7.64-20.98,5.24-32.48Zm-38.53-30.54c11.62,8.25,20.77,18.37,25.2,32.34,2.56,8.07,1.74,15.58-1.82,23.06-1.46,3.06-3.41,4.16-6.99,4.12-8.74-.12-17.48,.53-26.22,.64-1.22,.02-3.16-.93-3.6-1.94-10.82-25.13-31.51-35.72-58.08-39.55,5.77-11.03,11.37-21.83,17.13-32.55,.48-.89,2.07-1.57,3.2-1.65,19.01-1.31,35.86,4.65,51.18,15.53Zm1.01-376.66c1.87-4.15,4.78-7.93,7.7-11.5,2.65-3.24,6.38-4.95,10.64-3.34,4.19,1.58,5.11,5.74,4.36,9.16-2.03,9.3-4.48,18.55-7.56,27.56-3.66,10.73-8.14,21.18-12.27,31.77-6.99-2.98-14.36-6.13-21.98-9.38,6.28-14.64,12.47-29.55,19.11-44.26Zm-109.26,253.31c11.11-25.02,17.53-51.48,24.03-77.91,2.96-12.02,5.88-24.1,7.6-36.33,.68-4.83-1.36-10.35-3.18-15.18-6.8-17.99-17.42-33.72-29.47-48.6-6.33-7.81-12.91-15.4-16.14-25.4-2.66-8.21,3.61-11.43,9.26-9.43,4.86,1.72,9.64,4.5,13.56,7.86,5.27,4.52,9.28,10.51,14.58,14.99,5.51,4.66,11.83,8.4,17.95,12.29,2.9,1.85,6.2,3.06,9.27,4.66,8.71,4.56,15.08,11.26,18.74,20.49,.74,1.87,1.98,3.55,2.99,5.32,.61-.12,1.23-.24,1.84-.36,0-3.14,.49-6.38-.09-9.42-2.3-12.24-8.49-22.04-20.06-27.3-5.34-2.42-5.99-5.86-5.73-10.9,.5-9.77,.86-19.59,.56-29.36-.37-11.97-1.62-23.93,1.48-35.72,.45-1.73,.94-3.81,2.16-4.9,2.23-2,4.96-4.48,7.6-4.64,1.92-.11,5.2,2.83,5.87,5.03,2.26,7.36,4.47,14.92,5.14,22.54,.9,10.42,.44,20.96,.42,31.45-.01,4.57,1.62,7.41,6.31,8.69,18.38,5.02,34.86,14.04,50.65,24.46,.93,.62,2.01,1.01,4.13,2.05,0-3.02-.04-5.28,.01-7.52,.03-1.41-.36-3.38,.4-4.15,12.1-12.35,24.28-24.63,36.64-36.72,2.06-2.02,4.87-3.48,7.59-4.56,5.24-2.08,8.94,.46,9.07,6.08,.23,9.58-4.63,17.19-10.47,24.02-7.35,8.59-15.53,16.46-22.93,25-3.31,3.82-6.35,8.22-8.21,12.87-8.44,21.03-20.71,39.23-37.93,54.05-1.05,.9-1.77,2.74-1.81,4.16-.11,4.83,1.02,9.83,.16,14.49-7.79,41.9-17.46,83.44-32.23,123.4-11.43,30.91-25,61.08-38.83,91.02-6.63,14.35-16.22,27.31-24.2,41.06-2.63,4.52-4.68,9.43-6.54,14.33-1.68,4.43-4.6,6.64-9.38,6.43-3.65-.16-7.31-.03-11.37-.03,1.74-6.08,3.44-12.03,5.62-19.67,2.06,2.67,3.36,4.86,5.13,6.56,3.54,3.42,9.49,2.03,10.82-2.66,4.28-15.1,6.66-30.41,4.41-46.16-.75-5.23-1.29-10.48-2.01-16.41,1.72,1.17,3.26,2.14,4.7,3.22,5.8,4.35,10.27,2.68,10.91-4.53,.45-5.11,.15-10.32-.24-15.45-1.26-16.22-6.53-31.29-13.53-45.83-.4-.83-.6-1.76-1.04-3.07,4.11,1.39,7.79,2.67,11.49,3.86,4.99,1.61,7.84-.53,7.43-5.78-.15-1.92-.79-3.89-1.6-5.66-5.48-11.9-11.48-23.47-20.75-33.03-.76-.78-1.18-2.74-.75-3.7Zm-62.01-81.6c1.49-7.94,2.83-15.7,4.49-23.39,.26-1.23,1.84-3.02,2.91-3.09,9-.6,17.87,.1,26.24,3.96,6.29,2.9,8.51,8.33,8.32,14.6-.3,9.67-1.25,19.31-2.76,29.2-10.12-13.62-23.99-18.96-39.2-21.28Zm32.82,34.76c-10.94-5.43-21.88-10.87-31.83-15.8,3.06-2.44,6.75-5.38,11.42-9.09,6.56,2.36,13.92,6.51,19.21,13.68,3.82,5.17,3.8,5.59,1.2,11.21Zm-1.49-82.36c2.42,6.41,5.47,12.59,8.8,20.16-11.9-5.79-22.95-7.42-34.21-5.44-.96-7.3-1.85-14.01-2.72-20.73-.7-5.42,.6-6.48,5.98-7.12,10.91-1.3,18.21,2.69,22.16,13.13Zm-40.26-44.85c.14-.26,.28-.52,.42-.78,8.34,7.69,16.68,15.37,25.77,23.75-6.34,1.08-11.39,1.94-16.1,2.74-3.38-8.62-6.73-17.16-10.09-25.71Zm-272.37,35.27c.25,.13,.51,.25,.76,.38v24.52c-5.29,.68-9.94,1.28-15.75,2.03,5.13-9.22,10.06-18.08,14.99-26.94Zm-19.5,42.13c1.89-5.82,14.12-10.72,20.12-8.43,.75,.28,1.61,1.28,1.73,2.05,1.12,7.67,2.1,15.35,3.17,23.45-11.3,1.2-20.82,5.55-28.85,14.56-.75-11.46,.61-21.7,3.83-31.63Zm-3.35,42.82c-.13-1.28,.6-2.95,1.48-3.98,6.54-7.67,14.72-12.64,24.73-14.42,3.28-.59,5.36,.11,6.75,3.71,2.11,5.48,5.05,10.63,7.82,16.32-12.9,7.69-21.88,18.86-28.05,33.33-7.38-10.96-11.45-22.47-12.73-34.95Zm38.3,24.14c-6.3,5.47-12.34,10.72-18.38,15.97-.26-.1-.53-.21-.79-.31,2.31-5.16,4.51-10.38,7.05-15.42,.48-.95,2.33-1.77,3.5-1.7,2.71,.15,5.38,.88,8.62,1.47Zm-37.26,94.26c7.39-18.09,19.14-33.23,32.32-47.39,.68-.73,1.65-1.34,1.99-2.21,.75-1.87,1.18-3.87,1.74-5.82-1.94-.54-4-1.8-5.79-1.49-5.62,1-11.13,2.59-17.73,4.2,2.24-2.95,3.93-5.45,5.89-7.71,12.3-14.19,26.08-26.48,43.53-34.15,1.39-.61,3.37-3.04,3.07-3.74-.76-1.74-2.5-3.88-4.19-4.23-4.95-1.04-10.06-1.28-16.17-1.95,2.03-1.39,3.46-2.5,5.01-3.42,12.71-7.51,26.84-10.8,41.04-13.92,6.49-1.42,7.54-4.48,3.42-9.62-2.88-3.59-5.98-7-8.51-11.61,2.97,.92,6.06,1.59,8.9,2.82,6.98,3.02,13.82,6.35,20.77,9.44,6.12,2.72,9.43,.56,8.9-6.15-.58-7.42-1.73-14.8-2.79-23.56,4.84,4.44,9.02,8.1,13,11.97,3.34,3.25,6.35,6.83,9.7,10.07,3.56,3.45,5.65,2.98,7.8-1.57,.77-1.63,1.23-3.4,1.86-5.1,4.45-12.11,11.59-22.27,22.45-30.72,0,3.53,.1,6.56-.02,9.59-.24,6.13-.74,12.26-.87,18.39-.11,5.29,2.11,6.5,6.84,3.89,6.64-3.67,13.03-7.89,19.91-11.03,8.36-3.82,17.12-6.79,25.74-10.03,1.49-.56,3.18-.62,4.7-.9-2.55,5.92-5.4,11.46-7.32,17.31-2.03,6.19-.04,8.1,6.46,7.83,10.74-.45,21.54-1.46,32.23-.79,9.42,.59,18.72,3.14,28.07,4.83,0,.64-.02,1.29-.03,1.93-3.3,1-6.74,1.67-9.84,3.1-2.8,1.29-5.23,3.42-7.82,5.17,2.66,1.87,5.08,4.7,8.03,5.47,18.49,4.8,35.6,12.35,50.72,24.09,4.56,3.54,8.82,7.47,12.76,12-4.41-.73-8.83-1.45-13.24-2.18-.66-.11-1.38-.54-1.94-.38-2.42,.72-4.79,1.61-7.18,2.44,1.41,1.89,2.44,4.35,4.28,5.58,17.92,11.95,31.8,27.52,42.94,47.37-3.71-1.52-6.32-2.78-9.05-3.67-3.59-1.17-7.23-2.24-10.93-2.93-1.39-.26-3.56,.19-4.33,1.15-.58,.72,.24,2.93,.92,4.22,5.32,10.08,11.47,19.79,15.95,30.22,3.94,9.17,6.11,19.11,8.93,28.74,.4,1.37,.06,2.95,.06,5.29-4.1-3.12-7.69-5.87-11.3-8.6-1.72-1.3-3.31-2.92-5.24-3.76-1.62-.7-3.64-.47-5.48-.64-.15,1.73-.81,3.61-.36,5.16,1.62,5.53,3.93,10.87,5.41,16.43,4.69,17.69,5.22,35.63,2.77,54.03-5.46-6.37-10.73-12.53-16-18.68-.79,.16-1.58,.32-2.37,.49,.96,19.07-1.45,37.22-12.85,54.1-4.54-8.77-8.61-16.63-12.68-24.49-.58,.14-1.16,.28-1.74,.42-3.77,12.19-6.37,24.86-13.97,35.79-19.65-13.74-41.07-17.83-64.26-13.07-22.55,4.63-43.39,12.32-57.96,32.69-2.86-3-5.34-6.08-8.29-8.61-12.19-10.44-26.71-15.48-42.33-17.96-16.5-2.62-32.28-.25-47.63,6.13-1.13,.47-3.23-.31-4.39-1.17-6.07-4.5-12.06-9.12-17.91-13.91-2.01-1.65-4.39-3.62-5.13-5.91-2.41-7.52-4.11-15.27-6.15-22.91-.45-1.7-1.21-3.32-1.82-4.98-.57-.07-1.15-.14-1.72-.21-2.36,6.08-4.72,12.16-7.16,18.47-7.14-18.56-6.9-37.89-6.09-58.53-10.11,4.2-14.53,13.04-21.34,19.04-.5-.12-1.01-.25-1.51-.37,.97-8.09,1.38-16.3,3.04-24.25,2.83-13.62,7.26-26.75,14.4-38.85,.63-1.08,.97-3.39,.38-3.89-1.02-.88-3.11-1.44-4.32-.99-4.3,1.59-8.51,3.5-12.59,5.6-3.08,1.58-5.91,3.63-10.24,6.35,1.85-5.47,3.03-9.69,4.68-13.72ZM153.06,61.39c-1.91-5.31-2.4-11.3-2.53-17-.06-2.44,1.93-6.31,3.92-7.06,2.32-.88,6.6,0,8.38,1.77,4.29,4.26,8.42,9.08,11.19,14.41,7.06,13.56,13.34,27.52,19.92,41.3-6.55,4.07-13.19,8.3-19.99,12.28-.7,.41-3.05-.42-3.36-1.19-6.01-14.77-12.15-29.51-17.54-44.51Zm45.68,198.75c-5.28-16.63-8.88-33.79-13.12-50.74-.42-1.68-.64-4.1,.24-5.3,2.51-3.42,.58-5.21-1.84-6.95-15.31-11.03-26.69-25.23-34.11-42.55-3.72-8.68-8.97-16.08-15.73-22.74-8.63-8.49-16.84-17.47-24.62-26.75-2.71-3.23-4.31-7.86-5.06-12.1-.5-2.82,.48-7.35,2.46-8.74,1.93-1.36,6.46-.56,9,.83,4.59,2.52,8.76,5.96,12.74,9.43,10.14,8.85,20.08,17.94,30.34,27.14-.66,1.57-1.73,3.45-2.21,5.46-.29,1.23,.34,2.68,.55,4.03,1.45-.47,3.15-.6,4.31-1.46,6.4-4.71,12.49-9.87,19.04-14.38,11.14-7.67,23.68-12.28,36.69-15.72,1.55-.41,3.03-1.1,5.09-1.86-.89-1.58-1.31-3.39-2.12-3.59-5.22-1.23-4.07-5.27-4.09-8.73-.05-10.96-.28-21.94,.13-32.89,.17-4.35,1.42-8.81,2.95-12.94,2.59-7.01,7.64-7.91,12.96-2.55,4.63,4.67,5.77,10.83,5.87,16.97,.27,15.48,.08,30.97,.09,46.45,0,1.5-.41,3.26,.22,4.45,3.91,7.33,.33,11.57-5.09,16.41-7.31,6.53-12.08,15.01-12.03,25.3,0,1.65,1.49,3.3,2.28,4.95,1.12-1.24,2.64-2.3,3.29-3.76,6.03-13.51,16.65-22.24,29.77-28.01,8.89-3.91,16.08-9.47,22.28-16.95,3.84-4.63,8.75-8.74,13.94-11.81,6.18-3.66,12.49,1.09,11.09,8.21-.97,4.94-2.59,10.14-5.36,14.25-7.12,10.58-15.4,20.37-22.53,30.94-6.45,9.56-12.09,19.68-17.86,29.68-.9,1.57-1.16,3.94-.79,5.75,8.49,41.77,19.94,82.73,34.21,122.87,4.19,11.8,9.94,23.03,14.73,34.63,.63,1.54,.3,3.85-.37,5.49-3.95,9.65-8.51,19.15-7.71,29.95,.17,2.24,1.05,5.55,2.58,6.27,1.67,.78,4.75-.42,6.75-1.56,3.85-2.21,7.37-5,10.4-7.11-2.33,10.24-5.04,20.88-7.1,31.64-1.99,10.36-1.81,20.87,.66,31.14,.59,2.46,2.97,5.83,5.02,6.22,2.05,.39,5.3-1.93,6.96-3.94,2.7-3.28,4.53-7.29,7.21-11.79,1.28,14.86,2.1,29.09,8.17,41.91-9.33,1.73-18.5,3.52-27.72,5.03-1.25,.2-3.22-.64-4.02-1.66-6.43-8.21-13.23-16.22-18.86-24.96-37.19-57.72-68.82-118.22-89.68-183.88Zm-3.01,161.71c11.59-8.42,24.5-13.88,39.05-14.05,4.9-.06,9.86,1.07,14.72,2.01,1.42,.27,3.07,1.51,3.81,2.77,6.88,11.83,13.58,23.76,20.57,36.06-19.45-.84-38.73,2.44-57.16,12.12-7.32-12.85-17.68-22.32-33.94-26.5,4.91-4.77,8.5-9.18,12.95-12.42Zm-99.68,61.44c9.21-19.31,25.55-29.99,45.48-35.5,14.71-4.07,29.59-5.12,44.31,.74,7.86,3.13,13.79,8.18,18.41,15.24,2.26,3.45,1.71,5.29-1.32,7.69-13.58,10.79-22.26,24.76-26.12,41.67-.77,3.38-1.28,6.82-1.73,9.25-9.38-1.24-18.7-3.65-27.94-3.38-9.93,.29-19.78,3.16-29.69,4.73-2.14,.34-4.64,.6-6.55-.17-17.55-7.1-23.32-22.51-14.85-40.26Zm-16.97,89.03c10.58-20.99,28.03-33.39,50.68-38.58,13.47-3.09,26.94-3.27,40.02,2.02,7.51,3.04,14.03,7.42,18.07,14.8,1.85,3.38,1.98,6.34-.69,9.52-7.9,9.4-11.39,20.31-10.92,32.61,.23,5.98-3.33,9.79-9.2,11.02-16.1,3.37-31.48,8.47-44.92,18.46-1.91,1.42-4.88,1.43-6.7,1.91-13.7-1.79-26.25-4.3-34.74-15.3-8.97-11.6-7.78-24.2-1.6-36.46Zm-53.16,59.11c10.18-10.64,22.89-16,37-18.71,3.1-.59,5.41,.2,7.55,3.11,8.1,10.98,17.04,15.69,36.78,20.19-9.83,13.8-15.75,28.1-11.07,45.6-1.68,0-3.25,.15-4.79-.02-17.3-1.97-33.87,1.12-50.11,6.95-1.75,.63-4.31,.59-5.94-.24-22.89-11.54-27.18-38.31-9.41-56.89Zm11.94,148.28c-16.42-6.83-27.92-24.2-25.4-39.45,2.58-15.63,11.2-27.32,24.66-35.53,13.94-8.5,29.36-10.77,45.32-10.6,2.33,.02,4.65,.38,6.98,.4,7.25,.06,13.64,1.19,19.13,7.13,7.85,8.5,18.53,12.43,29.67,14.98,.92,.21,1.82,.53,3.68,1.09-9.57,8.46-16.96,17.33-19.85,29.06-.98,3.97-1.85,8.16-1.62,12.19,.27,4.68-1.75,7.41-5.16,9.89-10.23,7.41-21.68,12.22-33.94,14.51-14.68,2.74-29.33,2.22-43.46-3.66Zm97.94,119.64c.26,2.08-2.78,5.09-4.95,6.86-10.74,8.79-23.22,13.88-36.82,16.25-14.7,2.57-29.06,1.52-42.74-4.8-10.69-4.94-18.35-12.52-19.61-24.86-1.04-10.13,2.87-18.93,8.91-26.61,6.77-8.61,15.73-14.57,25.96-18.95,9.11,9.89,20.1,16.74,33,19.41,12.55,2.6,25.39,3.76,38.38,5.58-2.68,8.07-3.31,17.44-2.12,27.11Zm-49.03-51.61c-10.81-5.71-17-15.32-17.35-27.75-.22-7.81,3.03-14.88,7.5-21.18,1.09-1.53,3.39-2.6,5.32-3.06,14.69-3.47,28.9-8.1,41.59-16.55,15.22,27.34,41.58,31.82,69.04,33.36,2.39,17.51-8.47,26.39-21.24,33.41-27.86,15.32-56.38,16.82-84.86,1.77Zm167.13,67.32c-25.24,15.34-52.16,18.45-79.93,7.48-11.44-4.52-20.55-12.09-24.73-24.36-3.62-10.62-.6-20.21,4.53-29.43,.62-1.11,2.2-1.92,3.51-2.37,13.4-4.68,25.89-10.94,36.55-20.5,.34-.3,.93-.32,1.53-.51,19.14,30.24,48.18,32.8,78.76,29.26,4.23,19.1-5.52,31.5-20.21,40.43Zm-4.59-51.51c-11.75-.4-22.77-4.17-32.13-11.63-13.03-10.39-16.66-26.33-8.62-41.47,11.44-21.56,29.95-33.91,53.66-38.74,.81-.16,1.67-.07,2.47-.25,6.91-1.58,11.96-1.12,17.27,5.69,9.09,11.67,22.67,17.41,37.1,20.49,5.16,1.1,10.43,1.7,16.19,2.61,3.92,17.08-3.12,30.1-15.79,40.25-20.39,16.32-44.07,23.94-70.15,23.06Zm149.24,48.25c-27.75,16.16-56.8,20.33-86.81,6.74-6.14-2.78-11.89-7.35-16.57-12.27-9.08-9.56-9.63-21.38-6.08-33.5,.48-1.64,2.44-3.36,4.11-4.04,11.67-4.77,23.48-9.48,32.91-18.05,6.32-5.75,12.15-12.27,17.1-19.22,3.14-4.41,6.17-6.58,11.81-5.5,3.81,11.26,12.64,17.79,22.06,23.54,12.31,7.53,25.93,11.47,40.19,13.1,3.04,.35,3.71,1.57,4.08,4.33,2.7,20.25-5.78,34.94-22.81,44.87Zm-11.51-71.3c-11.74-5.92-21.22-14.43-23.24-28.43-.68-4.7-.11-9.58-.11-14.87,17.09-4.23,33.72-10.12,44.94-23.87,8.7-10.66,18.93-12.5,31.09-11.93,4.6,.21,8.01,.94,11.28,5.16,10.93,14.12,26.05,22.25,42.97,27.08,4.01,1.14,5.53,2.89,5.71,7.05,.51,11.4-3.86,20.82-11.61,28.58-12.54,12.55-28.11,18.65-45.66,20.67-19.47,2.25-38-.66-55.38-9.43Zm146.4,81.93c-31.56,10.58-61.77,6.53-89.01-13.12-5.07-3.66-8.13-10.16-11.96-15.46-.56-.77-.45-2.17-.33-3.25,.97-8.67,2.02-17.34,3.14-26.82,25.45-1.71,48.91-9.59,66.7-30.67,3.36,3.19,6.33,6.57,9.84,9.24,12.73,9.7,27.07,15.85,42.9,18.27,4.1,.62,6.28,2.46,7.63,6.39,8.43,24.5-2.31,46.5-28.92,55.42Zm33.21-72.31c-13.95-1.46-27.23-5.23-39.27-12.56-3.94-2.4-7.6-5.34-11.03-8.44-4.9-4.44-8.52-9.17-5.26-16.73,1.84-4.26,1.71-9.36,2.47-14.08,22.28,1.23,43.23-.82,61.1-15.1,3.07-2.46,5.64-5.62,8.14-8.69,1.77-2.18,3.39-3.52,6.31-2.19,1.01,.46,2.28,.31,3.43,.48,5.53,.84,9.8,2.62,13.05,8.19,5.16,8.85,13.28,15.21,22.44,19.94,9.56,4.93,8.9,5.43,8.04,16.24-.81,10.13-6.44,17.99-15.2,23.23-16.81,10.07-35.22,11.7-54.21,9.72Zm113.78,73.65c-23.54,10.68-47.05,8.17-70.45-.72-11.95-4.54-21.76-12.02-29.63-22-1.46-1.86-2.8-4.35-2.94-6.62-.6-10.04-.73-20.11-1.05-30.45,22.38-1.24,44.97-4.56,62.55-22.07,14.12,19.37,33.91,29.56,56.65,34.75,4.63,1.06,6.02,3.94,6.73,7.91,3.06,17.18-4.7,31.4-21.87,39.19Zm-11.67-71.21c-8.05-5.24-16.95-10.43-19.16-20.52-1.46-6.69-.28-13.95-.28-21.3,12.76,4.46,25.56,5.52,38.52,4.92,19.63-.91,36.48-7.43,48.25-24.18,.61-.87,2.89-1.5,3.83-1.06,7.76,3.66,15.93,6.83,22.9,11.69,7.13,4.97,10,13.5,12.29,21.63,3.57,12.63-.67,23.39-11.23,31.5-14.88,11.43-32.05,13.91-49.89,12.19-16.05-1.54-31.5-5.93-45.23-14.86Zm175.96,44.33c-2.04,15.3-13.16,22.73-25.96,27.25-29.86,10.54-58.45,6.54-84.6-11.08-6.52-4.39-11.76-11.2-16.29-17.79-2.59-3.76-2.56-9.32-3.8-14.41,28.27-.28,54.36-3.91,70.2-29.43,11.68,4.58,23.09,9.16,34.59,13.51,3.37,1.27,6.94,2.1,10.49,2.78,4.78,.92,7.97,3.59,10.12,7.85,3.39,6.72,6.31,13.57,5.27,21.31Zm32.6-43.32c-18.32,6.65-36.99,5.49-55.12-.74-9.92-3.41-19.21-8.62-28.81-12.99-3.01-1.37-3.77-3.52-4.3-6.88-1.4-8.73-3.83-17.3-5.88-26.03,12.91,1.48,26.48,1.45,39.56-3.97,13.41-5.56,22.34-15.09,26.33-29.26,16.19,3.77,30.95,9.08,42.39,21.56,21.01,22.9,11.08,49.14-14.18,58.31Zm39-85.53c-9.7,3.8-19.86,5.09-30.22,4.55-1.89-.1-3.74-1.12-5.6-1.76-8.87-3.05-17.76-6.04-26.57-9.25-1.39-.51-3.42-2.02-3.44-3.1-.27-13.74-6.17-25.19-13.99-35.93-.46-.64-.87-1.32-1.67-2.54,14.95-2.52,28.52-6.64,38.42-17.97,3.54-4.05,5.87-9.14,8.92-13.63,.77-1.13,2.26-2.7,3.29-2.6,20.81,1.88,39.9,7.49,51.8,26.57,13.54,21.7,4.44,45.73-20.94,55.67Zm49.85-92.85c-9.17,7.65-20.22,11-31.67,13.23-1.09,.21-2.59-.5-3.61-1.21-12.15-8.46-25.86-12.23-40.38-13.64-1.63-.16-3.22-.67-4.06-.86-1.81-9.1-3.54-17.78-5.31-26.69,10.28-1.58,20.23-5.81,29.5-11.63,9.59-6.03,15.17-15,18.05-26.53,17.55,5.37,33.55,12.12,43.6,28.13,8.51,13.55,6.14,28.98-6.11,39.2Z"/>
  </g>
</svg>