<?xml version="1.0" encoding="UTF-8"?>
<svg id="Ebene_2" data-name="Ebene 2" xmlns="http://www.w3.org/2000/svg" viewBox="0 0 159.87 159.79">
  <defs>
    <style>
      .cls-1 {
        fill: #fff;
      }
    </style>
  </defs>
  <g id="Ebene_1-2" data-name="Ebene 1">
    <path class="cls-1" d="M74.88,159.76c-3.42-1.66-6.4-3.06-9.34-4.56-6.76-3.45-13.61-6.74-21.19-7.88-6.74-1.02-13.55-1.66-20.33-2.42-4.55-.51-9.13-.81-13.66-1.44C3.39,142.49,.01,138.47,0,131.39c-.01-19.91-.01-39.83,0-59.74,0-7.89,3.76-11.42,11.68-11.67,13.02-.41,25.77,1.07,38.16,5.06,8.27,2.66,15.97,6.59,23.29,11.3,1.66,1.07,1.75,2.4,1.75,4.03-.02,24.25-.01,48.49-.01,72.74,0,2.05,0,4.1,0,6.66Z"/>
    <path class="cls-1" d="M84.99,159.79v-3.32c0-25.32,.02-50.64-.04-75.95,0-2.16,.65-3.42,2.5-4.63,11.82-7.72,24.74-12.69,38.65-14.61,7.79-1.07,15.76-1.15,23.64-1.15,6.59,0,10.09,4.15,10.11,11.08,.04,12.99,.01,25.98,.01,38.98,0,7.08,.01,14.16,0,21.24-.02,7.22-3.67,11.34-10.89,12.08-8.03,.82-16.06,1.72-24.11,2.17-9.67,.54-18.59,3.33-27.08,7.8-4.03,2.12-8.16,4.04-12.78,6.31Z"/>
    <path class="cls-1" d="M80.86,.03c-15.97-.72-29.8,12.28-30.75,28.47-.94,15.86,12.05,30.55,28.39,31.34,17.42,.84,31.31-13.92,31.22-28.97C110.43,14.62,97.49,.78,80.86,.03Zm8.82,23.91h-5.5v-3.14h-8.05v6.56h8.99l4.55,2.63v11.35l-4.55,2.63h-2.47v4.63h-4.71v-4.63h-3.14l-4.55-2.63v-5.22h5.5v3.14h8.44v-6.79h-8.99l-4.55-2.63v-11.11l4.55-2.63h2.75v-4.63h4.71v4.63h2.47l4.55,2.63v5.22Z"/>
  </g>
</svg>