<?xml version="1.0" encoding="UTF-8"?>
<svg id="Ebene_2" data-name="Ebene 2" xmlns="http://www.w3.org/2000/svg" viewBox="0 0 282.89 205.56">
  <defs>
    <style>
      .cls-1 {
        fill: #fff;
      }
    </style>
  </defs>
  <g id="Ebene_1-2" data-name="Ebene 1">
    <path class="cls-1" d="M154.86,1.9c.06,.22,.12,.63,.17,.63,.39,0,.79-.08,1.18-.16,.19-.04,.46-.27,.53-.22,1,.78,1.87,.12,2.86-.05,1.51-.26,1.55-.06,2.83-.89-.19,.46-.34,.81-.51,1.23,.87,.43,1.58,.41,2.11-.4,.47-.71,.17-1.39-.67-1.45-.96-.06-1.93-.09-2.87,.01-.45,.05-.87,.46-1.11,.59-.64-.3-1.19-.56-1.72-.8,4.91-.1,9.94-.22,14.97-.29,.48,0,.95,.32,1.44,.46,.21,.06,.45,.09,.65,.05,.88-.16,1.75-.5,2.62-.51,3.43-.06,6.85-.02,10.28,.25-.9,.06-1.81,.13-2.82,.2,.21,.81,.36,1.38,.57,2.18,3-.2,6.12,.28,9.17-.55,.04-.14,.07-.29,.11-.43-1.2-.4-2.4-.8-3.6-1.2,0-.09-.01-.18-.02-.26,1.88-.09,3.77-.19,5.65-.28,0,.06,0,.12,0,.18h-1.86l.02,.31c1.8,.25,3.58,.98,5.38-.32,.34-.25,1.07-.22,1.51-.04,1.97,.8,3.97,.38,5.96,.25,.19-.01,.41-.12,.57-.07,2,.7,4,.16,6.01,.03,1.58-.1,3.16,.01,4.74-.01,4.16-.07,8.32-.21,12.48-.24,2.4-.02,4.8,.12,7.19,.23,.5,.02,1.01,.2,1.5,.32,1.1,.28,2.14,.65,3.34,.08,.62-.3,1.5-.05,2.27-.05,0,.1,0,.21,0,.31-.79,.08-1.58,.12-2.35,.27-.28,.05-.51,.37-.76,.56,.26,.26,.52,.73,.78,.73,1.02,0,2.08,.02,3.04-.28,.72-.22,1.2-.35,1.86,.12,.25,.18,.93,.04,1.22-.19,.57-.46,.99-.52,1.57-.05,.33,.27,.8,.55,1.2,.53,1.28-.07,2.62,.41,3.84-.45,.22-.16,.75,.16,1.13,.18,.69,.02,1.37-.02,2.06-.04-.01-.12-.03-.24-.03-.31,.97,.38,6.5-.19,7.57-.91-1.01-.99-2.33-.27-3.37-.69,0-.12,0-.25,0-.37h11.24c0,.1,.02,.2,.02,.3-2.56,.17-5.11,.34-7.67,.5-.02,.17-.04,.34-.05,.51,3.05,.56,6.1,1.13,9.26,1.71-.11,.37-.18,.71-.32,1.02-.38,.89-.13,2.17,.64,2.67,.22,.14,.8,.14,.85,.04,.18-.41,.32-.89,.26-1.32-.04-.29-.44-.52-.79-.9,.37-1.09,.72-2.26,1.17-3.38,.5-1.22,1.07-1.37,2.26-.74,.24,.13,.53,.17,.77,.31,.93,.55,.82-.08,.76-.65,.11-.02,.22-.03,.33-.05,.05,.67,.15,1.35,.14,2.02,0,1.13-1.04,2.36,.25,3.07-.02-.03-.2-.28-.6-.85-.33,1.13-.86,2.01-.76,2.81,.13,1.09-.05,2.43,1.23,3.18,.23,.13,.25,.73,.25,1.12,.01,9.15,.01,18.3,0,27.45,0,.55-.05,1.14-.25,1.64-.17,.43-.54,.87-.93,1.07-.2,.1-.66-.36-1.01-.56,.77-.13,1.42-1.01,1.11-1.6-.1-.19-.53-.21-.82-.31-.17,.58-.34,1.16-.51,1.74-.39,.1-.77,.2-1.16,.29,.26,.27,.49,.58,.79,.8,.69,.49,1.6,.8,2.08,1.44,.45,.6,.6,1.51,.67,2.3,.11,1.17,.04,2.37,.04,3.55,0,4.87,.01,9.75-.01,14.62,0,.58-.22,1.15-.33,1.73-.04,.23-.13,.49-.07,.69,.74,2.46,.47,4.93,.16,7.42-.07,.59,.25,1.23,.23,1.84-.08,2.01-.26,4.01-.33,6.02-.02,.57,.48,1.26,.29,1.71-.49,1.17-.35,2.2,.02,3.35,.41,1.29-.58,1.94-1.54,2.5-.06-.32-.11-.63-.17-.95-.4,.14-.84,.21-1.17,.45-.11,.08,.05,.55,.09,.85,.42-.12,.84-.25,1.27-.37,.37,.21,.74,.43,1.11,.64,.1-.09,.2-.18,.3-.27,.05,.41,.14,.82,.14,1.24,0,6.83,0,13.66,0,20.49,0,1.57-.33,1.87-2.25,1.79,.36,.61,.55,1.19,.94,1.48,.24,.18,.81-.09,1.33-.18-.29,2.09,.52,4.38-.62,6.65,.06,.04,.26,.19,.56,.41-.34,.11-.61,.2-1,.33,1.07,.99,1.55,2.01,.59,3.25-.07,.1-.04,.32,0,.46,.93,2.77,.27,5.61,.39,8.41,.04,.99,.04,1.97,.04,2.96,0,3.7,0,7.4,0,11.17h-1.07c.18,.63,.29,1.17,.49,1.67,.08,.2,.55,.36,.53,.48-.23,1.17,.64,2.52-.56,3.55-.12,.1-.14,.55-.04,.63,1.09,.83,.61,1.54-.23,2.25,1.21,1.18,.89,2.6,.83,3.98-.01,.28-.17,.56-.14,.82,.1,.91-.07,1.63-1.24,1.91,2.2,.47,.9,2.09,1.34,3.12-1.25-.37-1.67-1.26-1.63-2.62-.75,.17-1.4,.32-1.76,.4,.06,.83-.07,1.49,.19,1.92,.34,.57,.98,.97,1.44,1.39,.03-.02-.44,.18-.42,.31,.1,.8,.17,1.67,.54,2.35,.42,.78,1.04,.29,1.79-.15-.54-.26-.86-.41-1.19-.57,1.18,.25,1.31,.57,.86,1.64-.17,.4-.12,.92-.11,1.38,.02,.83,.8,1.75-.47,2.4-.21,.11-.05,.98,0,1.5,.03,.35,.14,.69,.21,1.04-.31-.01-.63-.04-.94-.02-.13,0-.25,.13-.53,.27,.4,.3,.67,.64,1,.74,.92,.25,1.21,.9,1.11,1.72-.1,.9,.06,1.88-1.23,2.29-1.19,.38-.13,1.34-.3,2.03-.27,.07-.62,.27-.87,.19-.28-.09-.71-.56-.66-.67,.47-1.07,.29-1.93-.51-2.78-.22-.23-.12-.76-.19-1.37-.46,.37-.71,.57-.96,.77-.06-.05-.12-.1-.18-.15,.26-.33,.67-.64,.74-1.01,.07-.34-.18-.77-.36-1.12-.14-.27-.4-.48-.69-.82,.51-1.41,1.19-3.09,1.69-4.83,.1-.34-.53-.88-.93-1.5-.77,1.07-1.25,2.09-2.63,1.35-.12,.95-.32,1.76-.3,2.57,.04,2.2,.23,4.4,.26,6.6,.02,1.03-.27,2.05-.28,3.08-.03,4.75-.01,9.51-.02,14.26,0,1.43-.14,1.57-1.59,1.57-1.64,0-3.27,0-4.91,0-1.15,0-2.53-.48-3,1.23,.03-.36,.05-.72,.08-1.13h-2.89c.53,.37,.78,.55,1.22,.85-1.25,.43-2.33,.76-3.37,1.2-.3,.12-.52,.54-.65,.87-.04,.09,.37,.48,.62,.53,1.26,.24,2.53,.42,3.8,.61,0-.04,0,.1-.02,.1-2.51,.19-5.02,.43-7.53,.52-.73,.02-1.46-.49-2.22-.61-.5-.08-1.06,.06-1.57,.2-.42,.12-.8,.37-1.27,.42,.02-.02,.04-.04,.06-.05,.1-.05,.2-.1,.3-.15-.42-.18-.83-.37-1.25-.53-.1-.04-.23,0-.34-.24,1.82,0,3.64-.08,5.45,.03,1.53,.09,2.19-1.12,3.07-1.91,.48-.43-.11-.69-.62-.65,.61-.11,1.23-.21,2.04-.36-1.63-1.24-4.72-1.16-5.22,.02,1.04,.14,2.06,.28,3.08,.43-.46,.34-.91,.69-1.45,1.09-.73-1.45-2.02-1.06-3.26-1.13v1.56c-1.44-.11-2.79-.23-4.13-.31-1.33-.08-2.68-.31-3.98-.12-1.42,.21-2.78,.81-4.23,1.47,1.64,.09,3.28,.18,4.91,.27,0,.08,0,.16,0,.23-2.03-.11-4.06-.25-6.09-.32-.71-.02-1.42,.13-2.13,.2-1.65,.16-3.3,.37-4.95,.44-.36,.02-.75-.45-1.22-.75-2.7,1.51-5.78,.64-8.76,.74-1.71,.05-3.44-.48-5.15-.46-1.38,.02-2.75,.47-4.13,.74,.05-.13,.11-.27,.16-.4-.16-.26-.28-.69-.5-.75-1.06-.29-2.15-.47-3.44-.74-.13,.24-.41,.62-.51,1.04-.03,.12,.48,.36,.9,.66-2.23-.33-4.42,.53-6.48-.59-.03-.02-.08-.05-.11-.04-.7,.13-1.43,.44-2.09,.34-.6-.09-1.13-.63-1.85-1.07,0-1.16-1.21-.29-1.79-.51,.88-.45,1.76-.89,2.7-1.37-2.29-1.47-4.43-2.18-6.88-.94,.4,.14,.8,.28,1.2,.42-.39,1.6,.22,2.13,3.28,2.67-.25,.19-.43,.32-.7,.53,.3,.15,.55,.28,.91,.46h-5.7c.06-.3,.12-.59,.23-1.12h-6.46c-.07,.2-.23,.63-.4,1.08-.38-.04-.81-.08-1.31-.13-.08-.29-.19-.65-.33-1.14-1.14,.6-1.98,.11-2.73-.77-.35,.3-.63,.55-1.03,.91-.06-.52-.04-.92-.16-1.26-.17-.46-.3-1.02-1.07-.77-.25,.08-.62-.12-.91-.25-.96-.43-1.83-.5-2.6,.52,.62,.55,1.01,1.26,2.08,.91,.44-.15,1.07,.27,1.92,.52-.79,.38-1.25,.6-1.71,.82,0,.11,.02,.22,.02,.33,.69,.09,1.38,.17,2.07,.26,0,.05,0,.1,0,.15-1.98,0-3.96,.02-5.94-.03-.26,0-.51-.36-.76-.55-.46-.34-.98-1.02-1.38-.96-.72,.11-1.75,.24-1.7,1.43-4.47,0-8.94,0-13.44,0,.09-.25,.2-.55,.33-.91-.18-.09-.31-.21-.45-.21-1.64,0-3.29-.04-4.93,.05-.33,.02-.66,.49-.94,.8-.81,.86-1.54-.05-1.82-.38-.6-.71-.9-.35-1.36,0-.33,.24-.68,.64-1.02,.65-2,.06-4.01,.03-5.64,.03,.83-.06,2.03-.14,3.24-.22,.03-.15,.05-.3,.08-.46-.54-.14-1.08-.37-1.62-.41-1.59-.1-3.18-.14-4.78-.17-.3,0-.8,.07-.88,.25-.59,1.43-1.88,.98-2.88,1.04-2.15,.11-4.31,.04-6.48-.13l3.26-.18c.03-.13,.07-.25,.1-.38-.33-.15-.64-.41-.98-.44-.63-.06-1.27,0-1.91,.02-2.53,.05-5.06,.2-7.58,.13-1.62-.04-3.23-.37-4.84-.6-.72-.1-1.27-.07-1.67,.74-.21,.42-.84,.78-1.34,.87-.86,.14-1.75,.04-2.63,.05-.61,.01-1.05-.08-1.5-.69-.29-.39-1.17-.4-1.8-.48-.62-.08-1.25,0-1.88-.03-.78-.02-1.39,.06-.74,1.13h-1.54c.03-.36,.06-.69,.09-1-1.88-.33-3.96,1.06-5.18-.61-1.06-.16-1.79-.38-2.5-.33-.52,.03-1.02,.42-1.68,.72-1.26,.32-2.73,.7-4.22,1.08-.27-.48,1.64-.6,.32-1.35,.35-.4,.7-.8,1.06-1.2-.04-.12-.08-.23-.11-.35-.47,.1-.95,.21-1.42,.31,.17,.42,.34,.83,.5,1.25-.48-.16-.97-.32-1.7-.57,.54-.7,.97-1.26,1.46-1.89-.25-.02-.75-.22-1.09-.06-.95,.44-1.77,.07-2.68-.1-.86-.16-1.81,.18-2.67,.02-1.03-.19-1.87-.29-2.64,.63-.21,.25-.93,.27-1.33,.14-1.17-.38-2.18-.16-3.15,.53-.16,.11-.43,.08-.65,.12,.72-.35,1.42-.85,2.18-1.01,.95-.2,1.96-.1,2.94-.18,.2-.02,.38-.29,.56-.44-.16-.14-.32-.41-.49-.41-1.76,0-3.52,.04-5.32,.07v1.85c-.05-.34-.1-.69-.16-1.1h-1.35c-.36,.84-.63,1.45-.88,2.03-.8-.11-1.47-.2-2.05-.27,.45-.12,.99-.26,1.68-.44-1.29-1.44-2.45-1.3-3.8-.73-.61,.26-1.51,.12-2.18-.12-2.41-.88-4.62-.1-6.88,.4,0,.1,0,.21,0,.31,.69,.06,1.39,.12,2.48,.21-.8,.68-1.35,1.16-2.07,1.77,.68,.14,1.32,.27,1.97,.4-.02,.11-.04,.22-.06,.33-1.18-.17-2.41,.54-3.55-.67-.4-.42-1.35-.48-2.03-.44-1.67,.1-3.44,.05-4.95,.64-1.6,.62-3.13,.41-4.69,.48-.5,.02-1.02-.26-1.75-.46-.85,.35-1.95,1.11-3.09-.09-.11-.12-.51,0-.76,.05-.8,.16-1.59,.5-2.39,.5-9.98,.04-19.97,.05-29.95,.03-.86,0-1.71-.28-2.57-.39-.31-.04-.64,.04-1.04,.07-.11-.74-.06-1.34,1.01-1.27,1.21,.08,2.42,.07,3.63,.19,1.66,.17,3.3,.43,4.95,.65,.12,.02,.26,.02,.36-.03,1.1-.56,2.2-1.12,3.43-1.5-.14,.26-.28,.53-.43,.82,.1,.08,.21,.21,.28,.2,1.15-.27,2.31-.5,3.42-.88,.21-.07,.4-.89,.25-1.15-.3-.5-.85-1.19-1.32-1.21-4.73-.17-9.47-.21-14.21-.29-.39,0-.79,0-1.16,0,0-3.64,0-7.21,0-10.78,0-2.7,.02-5.41-.02-8.11-.01-.69-.23-1.38-.35-2.07-.03-.15-.12-.35-.06-.45,.54-.85,.44-1.58-.13-2.42-.17-.25-.27-.91,.19-1.55,.36-.49-.26-1.69-.41-2.37-.88,.13-1.47,.22-1.86,.28,.18,.99,.38,1.88,.46,2.78,.01,.15-.53,.35-.69,.45-.44-.39-.73-.83-1.07-.88-.27-.03-.6,.43-1.14,.88-.22-.74-.7-1.51-.59-2.2,.1-.64,.81-1.19,1.17-1.68-.41-.28-1.1-.5-1.15-.84-.09-.55,.22-1.17,.35-1.7-.15-.88-.41-1.78-.43-2.68-.06-2.71-.02-5.43-.02-7.98,.3,.16,.73,.38,1.22,.63,.15-.89,.26-1.51,.37-2.13,0,0-.03,.02-.03,.02,.48,.13,1.08,.12,1.43,.41,.61,.49,.97,.3,1.36-.19,.08,.06,.16,.12,.24,.18,1.17,.1,1.31-.14,1.03-1.22-.14-.54-.04-1.18,.09-1.74,.35-1.6,.3-3.13-.64-4.54-.12-.19-.13-.45-.18-.67,.34-.15,.93-.3,.92-.43-.03-.68-.05-1.44-.38-2.01-.41-.71-.54-2.23-.07-2.94,.19-.29,.15-.72,.2-1.09,.02-.18-.01-.36,0-.55,0-.28,.13-.62,.01-.82-1.14-1.87-1.32-3.85-.86-5.95,.09-.41,.09-.85,.09-1.27,0-2.59-.05-5.17,0-7.76,.01-.63,.33-1.25,.45-1.89,.2-1.05,.36-2.11,.52-3.17,.02-.11,.03-.3-.03-.35-1.81-1.4-.22-2.91-.14-4.36,.03-.43,.16-.86,.18-1.3,.08-2.58,.28-5.17,.16-7.74-.07-1.54,.21-3.14-.66-4.66-.34-.58-.03-1.6,.14-2.39,.33-1.47,.05-2.72-.82-3.96-.41-.59-.76-1.54-.58-2.16,.23-.75,.03-1.21-.18-1.84-.23-.69-.24-1.46-.27-2.2-.03-.95-.01-1.91,.05-2.86,.09-1.17-.05-2.19-1.16-2.88-.16-.1-.26-.51-.19-.72,.3-.97-.23-1.5-.92-1.99-.28-.2-.56-.46-.74-.75-.3-.49-.44-.96,.4-1.12,.33-.06,.63-.33,.94-.51-.14-.23-.17-.35-.22-.36-1.65-.24-1.6-.24-1.51-2.03,.07-1.58,.02-3.16,.02-4.82,.71,.23,.99,.79,.53,1.4-.81,1.07,.04,1.84,.33,2.72,.04,.11,.41,.23,.5,.17,.16-.12,.32-.37,.32-.57,0-1.2-.05-2.39-.08-3.59,0-.18,0-.37,0-.55,.12,0,.24-.02,.35-.03,.07,1.21,.18,2.42,.18,3.63,0,.54-.2,1.11,.57,1.13,.13,0,.37-.64,.4-.99,.12-1.67,.19-3.34,.27-5.01,0-.12,0-.24-.02-.36-.21-1.45-.21-1.41,1.28-1.36,.31,0,.87-.36,.91-.61,.1-.72,.04-1.48-.08-2.2-.03-.16-.56-.31-.87-.33-.41-.04-.84,.05-1.34,.08v.94c-.13,0-.26-.02-.39-.02l.38-4.64c.16-.04,.31-.08,.47-.12,.49,.87,.98,1.74,1.46,2.61,.14-.04,.29-.08,.43-.13,0-1.18,0-2.36,0-3.54,0-.92-.08-1.84-.01-2.75,.07-.91,.05-1.52-.99-2.06-.76-.4-1.5-1.32-1.5-2.5,0-1.42-.16-2.84-.26-4.37,.33,.81,.6,1.44,.95,2.29,0,.02-.19,.55-.03,.69,.4,.35,.95,.51,1.64,.85,.1-1.02,.24-1.76,.24-2.49,0-1.82,.21-3.71-.2-5.44-.3-1.25-.15-2.39-.15-3.58,0-2.12-.08-4.25-.08-6.37,0-.89,.14-1.78,.19-2.41-.68-.47-1.11-.78-1.55-1.09-.45-.23-1.31,.33-1.42-.98,.45,.22,.78,.39,1.26,.62,.23-.34,.47-.69,.82-1.22-1.39-.07-2.1-.71-1.92-1.88,.05-.31,.81-.51,1.25-.76,0-.36-.02-.86,0-1.36,.02-.48,.08-.96,.14-1.74,1.68-1.11-.94-2.28-.23-3.69-.56-.05-.96-.09-1.63-.15,.09,1.03,.23,1.91,.21,2.78-.02,.56-.29,1.11-.71,1.61,.06-.42,.14-.83,.17-1.25,.02-.29-.05-.58-.07-.87-.25,.08-.5,.16-.74,.24-.05-.86-.1-1.72-.17-2.84-.43,.39-.59,.53-.74,.68-.56-.29-.28-3.09,.13-3.6-.15-1.35-.29-2.41-.37-3.48-.02-.2,.18-.41,.25-.63,.15-.48,.55-1.1,.38-1.41C-.49,10.41,.24,8.1,.06,5.87,0,5.2,0,4.51,.07,3.84c.04-.4,.28-.77,.44-1.15,.36,.2,.73,.39,1.07,.62,1.16,.78,.09,1.83,.4,2.79-.37-.18-.64-.32-1.11-.55-.13,.74-.24,1.36-.38,2.15,.42-.09,.66-.14,.97-.21,.83,2.87-.51,6.05,.98,8.76-.18,.46-.51,.94-.56,1.45-.18,1.96,1.21,2.52,3.1,2.99-.43-1.49-.82-2.83-1.2-4.17-.06-.22-.25-.52-.16-.65,.4-.66-.16-1.06-.29-1.59-.17-.68,.11-1.46,.2-2.2,.05-.36,.29-.9,.14-1.05-1.17-1.12-.56-2.51-.55-3.75,.01-1.36,.39-2.71,.63-4.14-.36-.09-.64-.16-.92-.23,0-.04,0-.08,0-.12,.62-.04,1.24-.09,1.78-.13,.14,.32,.27,.65,.41,.97,.29-.19,.55-.47,.86-.56,.78-.21,1.58-.4,2.38-.46,1.61-.12,3.23-.16,4.84-.23,.28-.01,.58-.14,.83-.06,2.41,.78,4.79-.09,7.19-.09,1.3,0,2.6,.06,3.9-.03,.73-.05,1.45-.34,2.17-.52,0,0-.03,.02-.03,.02,.56,1.29,1.61,.72,2.36,.45,.83-.29,1.47-.12,2.26,.07,1.34,.32,2.75,.38,4.13,.45,.24,.01,.6-.45,.73-.76,.27-.66,.5-1.24,1.39-1.11,1.43,.21,2.86,.39,4.29,.57,.28,.03,.57-.04,.8-.05-.52,.73-.01,1.01,.72,1.08,1.38,.13,2.77,.29,4.15,.28,.6,0,1.19-.43,1.8-.64,.38-.13,.78-.23,1.17-.29,.42-.07,.84-.08,1.28-.12-.04,.14-.11,.42-.18,.7,.09,.09,.17,.17,.26,.26,.57-.45,1.13-.9,1.7-1.36,0,.09-.02,.18-.03,.28,1.15,.05,2.3,.13,3.45,.16,1.88,.05,3.77,.05,5.65,.14,.3,.01,.58,.37,.88,.53,.72,.37,1.45,.72,2.15-.28-.77-.65-1.5-1.28-2.24-1.91,0,0,0,0,0,0,2.31,.22,4.62,.45,6.94,.64,.34,.03,.7-.12,1.33-.24-.6,.37-.97,.6-1.34,.83,.57,.75,1.33,.83,2.18,.4,.24,.27,.41,.63,.63,.67,.86,.15,1.74,.27,2.61,.27,7.69,.02,15.39,.01,23.08,0,.67,0,1.41,.13,1.67-.77,.06,.55,.3,.8,.92,.78,1.27-.05,2.55,.02,3.82-.04,.55-.03,1.47,.27,1.42-.75-.04-.97-.98-.72-1.58-.85-.23-.05-.55,.1-.77,.24-.97,.6-1.94,.61-2.93,.08-.49-.26-.94-.37-.99,.42-.84-.04-1.68,0-2.5-.14-.5-.09-1.4,.24-1.37-.83,0-.07-.25-.21-.39-.21-1.26-.07-2.52-.13-3.79-.18-.05,0-.1,.11-.37,.4,.59,.22,1.07,.4,1.7,.63-.73,.12-1.38,.23-2.12,.35-.03-.47-.05-.8-.06-1.06-.77-.15-1.46-.29-2.21-.44-.35,.28-.76,.77-1.28,.97-.56,.22-1.22,.21-1.84,.22-1.62,.03-3.24,0-4.87,0,0-.19,.01-.37,.02-.56,1.22,.11,2.45,.26,3.68,.32,.36,.02,.74-.2,1.11-.3,.85,.21,1.71,.57,2.55-.05-.6-1.4-1.75-.49-2.59-.74-.03,.22-.06,.43-.08,.65-.42-.13-.83-.25-1.25-.38,0-.07-.02-.14-.03-.21,.35-.06,.71-.17,1.06-.17,4.19-.02,8.37-.02,12.56-.02,7.14,0,14.28-.04,21.42,.05,1.84,.02,3.68,.48,5.52,.75,.08,.01,.17,.09,.22,.07,2.44-1.1,4.92-.03,7.38-.15,.41-.02,.81-.15,1.22-.23V.22c-.62-.06-1.24-.12-1.86-.18v.05c3.65,0,7.3-.02,10.96,.02,.51,0,1.01,.3,1.52,.46-.02,.11-.04,.23-.06,.34h10.19c.02,.13,.05,.27,.07,.4-.17,.19-.34,.38-.5,.57-.46-.91-1.92-1.06-3.03-.31,1.81,1.16,2.13,1.36,3.01,.33Zm126.56,78.32c-.43-.04-.91-.2-1.29-.08-.4,.13-.73,.51-1.04,.84-.07,.08,.05,.5,.17,.56,.37,.17,.95,.46,1.16,.31,.47-.35,.76-.93,1.13-1.42,.34,.19,.68,.38,1.02,.56,.06-.29,.25-.68,.14-.84-.3-.41-.74-.72-1.12-1.07-.06,.38-.11,.75-.17,1.13ZM109.54,2.38c1.54,.61,3.05,.37,4.6-.1-.6-.91-3.09-.78-4.6,.13,.02-.52,.53-1.24-.52-1.34-1.07-.1-1.04,.69-1.23,1.7,.7-.16,1.22-.27,1.74-.39ZM239.76,202.58c-.6-1.09-1.86-1.14-3.01-.07,1.02,.94,2.02,.54,3.03,.05-.99,.47-1.97,.94-2.96,1.41-.59-.11-1.18-.21-1.77-.32,.01-.08,.03-.16,.04-.24,.54,.04,1.09,.07,1.63,.11,.05-.12,.09-.24,.14-.36-.75-.43-1.51-.86-2.21-1.25-.96,1.09-1.16,2.07-.44,2.99,.97,0,1.83,.02,2.68-.02,.1,0,.18-.34,.27-.52,.7,.07,1.41,.21,2.11,.17,.41-.02,.8-.33,1.21-.51-.24-.47-.48-.94-.72-1.41Zm-10.4,.39c-.86-1.2-2.37-1.37-3.44-.45-.25,.22-.74,.15-1.08,.29-.44,.19-.85,.45-1.28,.69,.38,.21,.75,.58,1.14,.6,1.16,.04,2.33-.19,3.48-.06,.85,.1,1.17-.17,1.35-.88,.98,1.12,1.61,1.1,2.26-.11,.1-.18-.08-.74-.15-.74-.82-.04-1.76-.35-2.28,.67ZM131.53,1.98c1.07,.36,2.1,.86,3.29,.36,.27-.11,.71-.01,.99,.14,.8,.43,1.25,.26,1.31-.56,.91-.13,1.71-.25,2.5-.36,0-.13,0-.26,.01-.39-1.71-.1-3.42-.31-5.12-.25-.96,.04-1.89,.54-2.84,.83-.26-.07-.51-.19-.77-.21-2.5-.25-5.01-.45-7.51-.72-1.88-.2-2.63,.25-2.74,1.81,.27,.02,.54,.08,.81,.07,2.27-.08,4.53-.14,6.79-.28,1.09-.07,2.17-.29,3.26-.44ZM67.31,150.83c.66-.17,1.08-.3,1.51-.39,6.31-1.27,11.11-4.73,14.52-10.11,3.68-5.82,4.27-12.21,3-18.81-1.97-10.22-11.33-17.84-21.75-17.85-12.75,0-25.5,0-38.25,0-2.73,0-3.24,.5-3.24,3.18,0,4.68,0,9.35,0,14.03,0,19.7,0,39.4,0,59.1,0,2.11,.7,2.81,2.79,2.81,1.4,0,2.8,0,4.2,0,2.52,0,3.08-.57,3.08-3.1,0-8.95,0-17.9,0-26.85,0-.98,.07-1.72,1.37-1.71,6.55,.03,13.11,0,19.66,.06,.59,0,1.36,.47,1.74,.96,1,1.29,1.84,2.71,2.73,4.08,5.35,8.2,10.69,16.4,16.03,24.6,.87,1.33,2.03,2.05,3.7,1.98,2.16-.08,4.32,.04,6.47-.06,.62-.03,1.51-.39,1.75-.86,.25-.49,.07-1.43-.27-1.95-5.74-8.8-11.53-17.57-17.3-26.35-.56-.86-1.1-1.74-1.74-2.76Zm68.04-7.71c0,3.36,0,6.71,0,10.07,0,8.79,0,17.58,0,26.37,0,2.47,.8,3.23,3.23,3.23,16.86,0,33.73,0,50.59,0,2.06,0,2.91-.8,2.97-2.87,.03-1.12,.02-2.24,0-3.36-.02-2.61-.77-3.35-3.35-3.35-13.75,0-27.5,0-41.24,0-1.88,0-1.92-.04-1.93-1.97,0-7.23,0-14.46,0-21.7q0-2.47,2.51-2.47c12.43,0,24.86,0,37.29,0,2.25,0,2.89-.65,2.9-2.94,0-1.08,0-2.16,0-3.24,0-2.54-.64-3.17-3.19-3.17-12.59,0-25.18,0-37.77,0-1.61,0-1.73-.12-1.73-1.68,0-7.03,0-14.06,0-21.09,0-1.56,.12-1.68,1.73-1.68,7.15,0,14.31,0,21.46,0,6.75,0,13.51,0,20.26,0,2.03,0,2.81-.8,2.82-2.84,0-1.28,0-2.56,0-3.84,0-2.29-.62-2.9-2.91-2.9-16.51,0-33.01,.03-49.52-.03-3.27-.01-4.17,.23-4.16,4.24,.02,11.75,0,23.49,.01,35.24Zm116.77-11.99c-1.48-1.26-2.74-2.48-4.15-3.5-6.06-4.42-12.95-5.36-20.18-4.56-9.83,1.09-17.15,6.16-22.2,14.52-3.57,5.92-4.53,12.43-3.86,19.26,1.03,10.45,6.27,18.2,15.25,23.4,5.1,2.95,10.72,3.83,16.61,3.55,5.35-.26,10.21-1.75,14.48-4.98,1.38-1.05,2.62-2.29,4.05-3.56,0,1.78-.01,3.45,0,5.11,.01,1.63,.79,2.4,2.44,2.42,1.36,.02,2.72,0,4.08,0,2.39,0,3.03-.58,3.27-2.96,.04-.4,.03-.8,.03-1.2,0-23.69,0-47.38,0-71.08,0-.67-.08-1.36-.2-2.02-.25-1.3-.9-1.84-2.23-1.86-1.56-.02-3.12-.01-4.68,0-2.09,0-2.7,.62-2.7,2.71,0,7.79,0,15.58,0,23.37v1.38Zm-135.9,45.15c.06-.03,.12-.06,.19-.09-.38-1.44-.56-2.98-1.2-4.3-1.2-2.5-4.55-3.56-7.96-2.85-2.5,.51-4.05,1.98-4.62,4.42-.25,1.07-.41,2.21-.35,3.31,.18,3.59,1.48,6.52,5.95,6.83,.9,.06,1.82,0,2.72-.1,2.49-.26,4.39-1.95,4.9-4.39,.19-.93,.25-1.89,.37-2.83Zm-6.97-38.57c2.53,.15,4.81-.51,6-2.97,1.35-2.79,1.29-5.71,.07-8.58-1.77-4.16-9.85-3.96-11.65-.83-.67,1.17-1.18,2.57-1.32,3.9-.44,4.49,1.14,8.82,6.9,8.47ZM27.36,201.46c-.62-.11-1.03-.17-1.44-.26-.53-.12-1.06-.26-1.6-.39-.08,.43-.41,1-.39,1.2,.14,1.16-.59,1.23-1.37,1.43-.62,.15-1.21,.45-2,.76,1.16,.65,2.63,.85,3.1,.21,.97-1.33,1.92-.52,2.66-.25,1,.37,1.85,.5,2.83,.12,.39-.15,.85-.16,1.28-.17,1.4-.03,2.8,.05,4.19-.07,.41-.03,.84-.52,1.14-.89,.09-.11-.23-.54-.37-.83,.78-.38,1.26,.04,1.26,1.58,.72-.77,1.11-1.25,1.56-1.66,.17-.16,.55-.32,.67-.24,.43,.29,.75,.76,1.19,1.03,.42,.25,.95,.32,1.42,.48-.03-.39-.06-.78-.1-1.16,.24-.48,.53-1.04,.93-1.82-2.2,0-4.04-.04-5.86,.02-.59,.02-1.15,.42-1.74,.47-.73,.07-1.48-.02-2.22-.09-.64-.06-1.39-.44-1.89-.21-.48,.21-.69,1.02-1.17,1.8-.75,.24-1.88,1.03-3.09,0,.33-.35,.6-.64,1.01-1.07Zm185.95,.82c-.98-.38-1.68-.69-2.4-.93-.85-.29-1.84-.92-2.55-.7-1.16,.36-2.13,.15-3.22-.02-.92-.14-1.88-.03-2.82-.03-.06,.12-.12,.25-.19,.37,.34,.25,.65,.64,1.02,.74,1.15,.29,2.33,.41,3.48,.69,.64,.16,1.21,.66,1.84,.72,1.25,.12,2.52,.03,3.79,.04,.82,0,1.17-.38,1.05-.88Zm-160.47-1.62s0-.07,0-.11c-.08,0-.16,0-.24,.01-1.45,.44-2.92,.85-4.34,1.35-.21,.07-.26,.6-.38,.92,.95,.25,1.95,.82,2.85,.7,1.62-.22,3.17-.9,4.78-1.28,.55-.13,1.07-.08,1.02-.81-.04-.65-.38-.99-1.1-.92-.86,.09-1.73,.09-2.59,.13Zm227.98-42.15c-2.04,.39-1.96,.39-2.16-1.66-.07-.7-.66-1.34-1.03-2.02-2.08,1.82-1.02,3.57-.67,5.37,.59-.18,.98-.31,1.4-.44,.15,.56,.2,1.05,.41,1.46,.11,.22,.46,.42,.72,.44,.27,.02,.76-.14,.8-.31,.24-.92,.37-1.87,.54-2.84Zm-4.1,9.62c.17,0,.33,0,.5,0,0,.46-.05,.93,.01,1.38,.09,.71-.05,1.58,.98,1.75,.5,.08,1.02,.07,1.65,.11,0-.18,.14-.56,.02-.85-.57-1.46-1.19-2.91-1.85-4.34-.07-.16-.58-.33-.64-.27-.64,.69-1.36,1.36-1.78,2.17-.28,.55-.19,1.32-.15,1.99,.03,.4,.21,.84,.46,1.14,.08,.1,.83-.11,.89-.29,.12-.39,.13-.97-.08-1.27-.43-.59-.47-1.03-.01-1.53ZM44.57,201.89c.51-.35,1.02-.7,1.68-1.15-2.36-.47-3.63,.81-3.8,3.38,.48,.21,.9,.46,1.35,.56,.35,.08,1,.06,1.06-.08,.33-.9,.95-.66,1.63-.64,.37,.01,1-.37,1.08-.68,.14-.61-.31-.81-.91-.59-.07,.03-.26-.07-.28-.14-.31-1.15-1.06-.79-1.82-.66Zm232.71-50.17c-.26,.13-.76,.23-.79,.41-.1,.63-.03,1.28-.03,1.92,.66-.06,1.56,.13,1.92-.23,.46-.46,.88-1.62,.62-2.01-.91-1.38-.78-2.84-.88-4.32-.02-.25-.4-.47-.61-.71-.18,.28-.54,.56-.53,.83,.04,1.35,.18,2.71,.29,4.12Zm.42-91.2c1.66,.2,2.68-.46,3.29-1.62,.69-1.3-1.09-1.59-1.13-2.63-2.26,.88-2.48,1.29-1.59,2.63-.19,.54-.37,1.04-.57,1.62ZM4.56,172.35c.14,.03,.28,.06,.42,.09,.19-.84,.49-1.67,.53-2.51,.05-1.06-.33-2.17-.12-3.18,.24-1.12-.14-1.58-1.04-1.88-.31,.28-.64,.53-.88,.84-.13,.17-.22,.6-.13,.69,.98,.91,.76,2.11,.82,3.24,.01,.2-.03,.56-.1,.58-.97,.22-.59,.56-.16,1.02,.29,.3,.44,.73,.66,1.1Zm273.75-48.89c1.01,.55,1.68,.24,2.1-.32,.25-.33,.15-.95,.17-1.44,.01-.29-.02-.58-.05-.87-.09-.69-.15-1.38-.3-2.06-.04-.16-.35-.37-.53-.37-.18,0-.46,.21-.53,.39-.11,.28-.03,.62-.11,.92-.3,1.21,.83,2.62-.76,3.74ZM2.59,167.8c-.52-.28-.83-.49-1.17-.61-.23-.08-.56-.14-.75-.04-.18,.1-.4,.49-.34,.64,.22,.58,.56,1.11,.84,1.67,.14,.28,.32,.57,.36,.88,.06,.41,.02,.83,.02,1.28,1.44-.33,1.73-.8,1.4-1.98-.19-.68-.28-1.38-.37-1.84Zm274.78-2.09c.25-.24,.55-.44,.73-.72,.42-.63,1.06-1.28,1.11-1.95,.11-1.34-1.02-1.47-2.23-1.63,.27,1.47-.77,2.89,.38,4.3Zm1.95-80.13c.14,.99,.26,1.79,.35,2.43,1.85,.68,1.75-1.31,2.85-1.57,0-.14-.01-.27-.02-.41-.97-.14-1.94-.28-3.18-.46Zm2.76-31.41c0-.74,0-1.38,0-2.03,0-.97-.87-.87-1.42-1.11-.09-.04-.55,.4-.6,.66-.25,1.44,.63,2.43,2.02,2.48Zm-4.54-3.78c.41-.47,.54-.58,.61-.71,.37-.76,.76-1.52,1.04-2.32,.05-.15-.5-.68-.52-.66-.71,.5-1.58,.94-1.99,1.64-.2,.34,.48,1.19,.87,2.06ZM210.71,2.68c.04-.17,.09-.34,.13-.51-.44-.12-.87-.34-1.31-.36-1.86-.09-3.73-.14-5.6-.14-.23,0-.46,.36-.7,.55,.26,.15,.53,.42,.79,.42,1.58-.01,3.15-.12,4.73-.14,.65,0,1.31,.12,1.96,.18Zm12.71,200.95c-.92-.39-1.64-.9-2.37-.92-.46,0-1.51,.2-1.24,1.28q2.15,.92,3.61-.36ZM215.17,2.02c1.31,.6,5.67-.36,6.44-1.21-2.34-.95-4.08,.84-6.44,1.21Zm64.24,74.6c-.57-.79-.9-1.33-1.32-1.81-.17-.2-.58-.42-.75-.34-.23,.1-.51,.53-.46,.74,.17,.71,.41,1.44,.81,2.03,.08,.12,1.03-.36,1.71-.62Zm.7-21.62c-.2-1.12-.25-1.76-.46-2.36-.09-.26-.46-.5-.76-.59-.2-.07-.7,.12-.7,.21-.04,.69-.16,1.47,.11,2.05,.17,.36,.99,.4,1.81,.69Zm-3.09,66.08c.64-.56,1.28-3.56,.86-4.01-.15-.16-.91-.04-.91-.02-.07,1.3-.79,2.62,.04,4.03ZM236.76,1.71c-.02,.09-.04,.19-.05,.28,1.7,.19,3.4,.4,5.11,.53,.22,.02,.47-.4,.71-.62-.08-.09-.15-.18-.23-.27-.19,.03-.38,.06-.57,.11-.23,.05-.45,.11-.68,.17,.04-.1,.07-.21,.11-.31-.43-.18-.88-.54-1.28-.5-1.05,.11-2.07,.39-3.11,.6Zm39.63,53.03s-.03,0-.04,0c.02,.31-.01,.65,.09,.94,.1,.26,.34,.47,.52,.7,.26-.21,.66-.38,.75-.65,.15-.5,.24-1.09,.13-1.59-.09-.44-.49-.81-.76-1.22-.23,.41-.48,.8-.68,1.23-.07,.16-.01,.39-.01,.59ZM169.86,1.53h-5.6c.98,1.06,3.99,1.03,5.6,0Zm107.67,138.15c.79-.41,1.5-.7,2.11-1.13,.18-.12,.23-.69,.1-.93-.13-.24-.57-.48-.85-.46-.63,.04-1.42,1.38-1.36,2.52Zm2.37,6.11c-.58-1.18-1.04-2.13-1.62-3.31-1.07,2.17-.62,3.1,1.62,3.31Zm-3.23-81.71c1.16-1.47,1.18-3.07,.04-4.26-.6,1.45-.35,2.79-.04,4.26ZM105.5,203.01c-.86-.71-1.38-1.26-2.01-1.61-.24-.14-.96,.06-1.04,.27-.15,.38-.03,1.28,.04,1.29,.88,.09,1.78,.06,3,.06Zm26.85,1.94h4.98c-.78-1.03-3.84-1.03-4.98,0ZM61.79,2.54c0-.12,0-.24-.01-.36-1.77-.46-3.52-.51-5.22,.36h5.24ZM117.58,.94c-.54,.22-1,.43-1.49,.59-.21,.06-.58-.1-.66,0-.15,.19-.23,.54-.16,.76,.06,.17,.4,.37,.61,.36,.79-.05,1.57-.19,2.4-.3-.29-.58-.47-.95-.7-1.41ZM4.65,159.81c-.45,.57-.78,.98-1.27,1.59,1.04-.17,1.67-.27,2.62-.43-.24-.67-.43-1.31-.72-1.89-.06-.12-.54-.02-.93-.02,.16,.39,.26,.63,.31,.74Zm105.32,40.73c-.11,1.67,.08,1.85,1.52,1.54-.11-.27-.22-.54-.31-.77,.39,0,.71,.02,1.03-.02,.04,0,.11-.39,.07-.41-.3-.14-.61-.29-.93-.33-.46-.05-.92-.01-1.37-.01ZM200.27,1.84c1.11-.21,2.23-.42,3.34-.64-1.66-.96-2.9-.74-3.34,.64Zm81.78,1.8c-.45-.61-.85-1.16-1.26-1.72-.16,.06-.33,.12-.49,.18,.13,.84,.25,1.67,.42,2.8,.61-.58,.92-.87,1.33-1.26Zm-5.19,117.65c.08,.75-.44,1.72,.82,2.05,.7-1.64,.55-2.01-.82-2.05ZM1.31,5.59c.68-.9,.45-1.59-.16-2.2-.09-.09-.59,0-.67,.14-.55,.93,.16,1.41,.82,2.06ZM216.97,204.37c.03-.14,.06-.27,.09-.41-.89-.33-1.78-.71-2.69-.95-.16-.04-.47,.47-.91,.94,1.44,.17,2.48,.3,3.52,.42Zm-33.04-2.2c.89,0,1.59,.04,2.27-.03,.17-.02,.39-.36,.42-.58,.02-.15-.27-.49-.39-.48-.75,.08-1.69-.28-2.3,1.08ZM2.16,164.24c-.15,.04-.3,.08-.45,.12,.11,.68,.22,1.35,.33,2.03,.29-.14,.75-.21,.83-.42,.29-.77-.06-1.34-.71-1.72ZM70.33,1.57c-.66-.8-1.46-.81-2.24-.49-.34,.14-.54,.63-.99,1.19,1.29-.28,2.16-.47,3.23-.7ZM119.92,.51c-.34,.55-.67,1.07-1,1.59,.42,.12,1.07,.46,1.21,.31,.44-.47,.81-1.12-.22-1.9Zm159.59,93.39c-.47,.55-1.82,.36-1.34,1.68,1.82-.13,2.11-.5,1.34-1.68Zm.02-79.27c.11,.14,.23,.27,.34,.41,.56-.26,1.11-.51,1.67-.77-.29-.39-.58-.79-.87-1.18-.38,.52-.76,1.03-1.14,1.55Zm-1.84,127.29c0,.1,.01,.2,.02,.3,.56,.26,1.11,.57,1.7,.73,.16,.04,.44-.36,.67-.55-.48-.26-.93-.59-1.44-.73-.27-.08-.63,.16-.94,.25ZM199.88,2.2c1.67,.82,2.73,.61,3.03-.51-1.08,.18-2.05,.34-3.03,.51Zm-57.41-.03c.04-.15,.07-.31,.11-.46-.4-.19-.82-.55-1.21-.53-.34,.02-.65,.46-.98,.72,.08,.12,.15,.25,.23,.37,.62-.03,1.24-.06,1.85-.1Zm110.59,200.17c-.49-.34-.93-.79-1.07-.71-.39,.22-.66,.66-.97,1.01,.32,.17,.66,.51,.95,.47,.33-.04,.62-.42,1.09-.78ZM6.1,54.67c-.37-.38-.71-.85-.81-.8-.33,.15-.79,.48-.81,.76-.02,.27,.43,.64,.75,.8,.11,.05,.47-.4,.87-.76Zm273.01-22.03c-.29-1.27-1.1-.96-1.74-.96-.11,0-.28,.36-.3,.56,0,.12,.22,.36,.36,.37,.5,.05,1.01,.02,1.67,.02Zm1.11,78.55l-.58,.17c.07,.53,.13,1.07,.2,1.6,.38-.13,.77-.26,1.15-.39-.25-.46-.51-.92-.76-1.38Z"/>
    <path class="cls-1" d="M68.97,204.7h5.42c-1.8,.6-3.61,.45-5.42,0Z"/>
    <path class="cls-1" d="M76.98,205.16c1.28-.19,2.56-.37,3.84-.56l.05,.31c-1.29,.18-2.57,.36-3.86,.54-.01-.1-.03-.2-.04-.29Z"/>
    <path d="M67.31,150.83c.65,1.03,1.18,1.9,1.74,2.76,5.77,8.78,11.56,17.54,17.3,26.35,.34,.52,.52,1.47,.27,1.95-.25,.48-1.13,.83-1.75,.86-2.15,.1-4.32-.02-6.47,.06-1.67,.06-2.83-.65-3.7-1.98-5.35-8.2-10.69-16.4-16.03-24.6-.89-1.37-1.73-2.79-2.73-4.08-.38-.49-1.14-.96-1.74-.96-6.55-.07-13.11-.02-19.66-.06-1.3,0-1.37,.73-1.37,1.71,.01,8.95,0,17.9,0,26.85,0,2.53-.57,3.1-3.08,3.1-1.4,0-2.8,0-4.2,0-2.08,0-2.79-.71-2.79-2.81,0-19.7,0-39.4,0-59.1,0-4.68,0-9.35,0-14.03,0-2.68,.51-3.18,3.24-3.18,12.75,0,25.5,0,38.25,0,10.43,0,19.79,7.62,21.75,17.85,1.27,6.6,.69,12.99-3,18.81-3.41,5.38-8.21,8.85-14.52,10.11-.43,.09-.84,.21-1.51,.39Zm-18.26-9.26h0c4.67-.01,9.35,.02,14.02-.02,2.23-.02,4.37-.56,6.3-1.68,4.94-2.86,7-7.26,6.99-12.87-.02-7.8-5.42-13.55-13.71-13.7-9.3-.18-18.61-.04-27.92-.03-1.42,0-1.57,.15-1.57,1.6,0,8.31,0,16.61,0,24.92,0,1.71,.09,1.79,1.86,1.79,4.67,0,9.35,0,14.02,0Z"/>
    <path d="M135.35,143.12c0-11.75,.01-23.49,0-35.24,0-4.01,.88-4.25,4.16-4.24,16.5,.05,33.01,.02,49.52,.03,2.29,0,2.91,.62,2.91,2.9,0,1.28,0,2.56,0,3.84-.02,2.05-.79,2.84-2.82,2.84-6.75,0-13.51,0-20.26,0-7.15,0-14.31,0-21.46,0-1.61,0-1.73,.12-1.73,1.68,0,7.03,0,14.06,0,21.09,0,1.56,.13,1.68,1.73,1.68,12.59,0,25.18,0,37.77,0,2.55,0,3.18,.63,3.19,3.17,0,1.08,0,2.16,0,3.24,0,2.29-.64,2.94-2.9,2.94-12.43,0-24.86,0-37.29,0q-2.51,0-2.51,2.47c0,7.23,0,14.46,0,21.7,0,1.92,.04,1.97,1.93,1.97,13.75,0,27.5,0,41.24,0,2.59,0,3.33,.75,3.35,3.35,0,1.12,.03,2.24,0,3.36-.06,2.07-.91,2.87-2.97,2.87-16.86,0-33.73,0-50.59,0-2.43,0-3.23-.76-3.23-3.23-.02-8.79,0-17.58,0-26.37,0-3.36,0-6.71,0-10.07Z"/>
    <path d="M252.12,131.13v-1.38c0-7.79,0-15.58,0-23.37,0-2.09,.61-2.7,2.7-2.71,1.56,0,3.12-.02,4.68,0,1.32,.02,1.98,.56,2.23,1.86,.13,.66,.2,1.34,.2,2.02,0,23.69,0,47.38,0,71.08,0,.4,0,.8-.03,1.2-.24,2.38-.88,2.96-3.27,2.96-1.36,0-2.72,.01-4.08,0-1.65-.02-2.42-.79-2.44-2.42-.01-1.67,0-3.33,0-5.11-1.43,1.27-2.67,2.52-4.05,3.56-4.27,3.23-9.12,4.73-14.48,4.98-5.88,.28-11.51-.59-16.61-3.55-8.98-5.2-14.22-12.95-15.25-23.4-.67-6.82,.29-13.34,3.86-19.26,5.05-8.37,12.36-13.43,22.2-14.52,7.24-.8,14.12,.13,20.18,4.56,1.4,1.03,2.67,2.24,4.15,3.5Zm-22.89,44.05c8.58-.06,13.67-2.26,17.58-7.02,3.81-4.62,5.35-9.94,5.12-15.89-.17-4.57-1.53-8.68-4.14-12.42-7.1-10.16-21.68-11.36-30.11-2.34-5.54,5.92-7.09,13.08-5.57,20.9,1.65,8.56,8.73,16.95,17.12,16.76Z"/>
    <path d="M116.23,176.28c-.12,.94-.17,1.9-.37,2.83-.51,2.44-2.41,4.13-4.9,4.39-.9,.09-1.82,.16-2.72,.1-4.47-.31-5.77-3.24-5.95-6.83-.06-1.1,.1-2.23,.35-3.31,.57-2.44,2.12-3.91,4.62-4.42,3.41-.7,6.76,.36,7.96,2.85,.64,1.32,.81,2.86,1.2,4.3-.06,.03-.12,.06-.19,.09Z"/>
    <path d="M109.26,137.71c-5.76,.35-7.35-3.98-6.9-8.47,.13-1.34,.64-2.73,1.32-3.9,1.8-3.14,9.87-3.34,11.65,.83,1.22,2.86,1.28,5.79-.07,8.58-1.19,2.46-3.47,3.12-6,2.97Z"/>
    <path class="cls-1" d="M27.36,201.46c-.4,.43-.68,.73-1.01,1.07,1.21,1.02,2.34,.23,3.09,0,.48-.78,.69-1.58,1.17-1.8,.5-.22,1.25,.15,1.89,.21,.74,.07,1.49,.16,2.22,.09,.59-.05,1.16-.45,1.74-.47,1.83-.07,3.66-.02,5.86-.02-.4,.78-.69,1.34-.93,1.82,.03,.38,.06,.77,.1,1.16-.48-.15-1-.23-1.42-.48-.44-.26-.76-.73-1.19-1.03-.12-.08-.5,.09-.67,.24-.45,.42-.85,.89-1.56,1.66,0-1.54-.47-1.96-1.26-1.58,.13,.29,.45,.72,.37,.83-.3,.37-.73,.86-1.14,.89-1.39,.12-2.79,.04-4.19,.07-.43,0-.89,.02-1.28,.17-.98,.38-1.83,.25-2.83-.12-.73-.27-1.69-1.09-2.66,.25-.47,.64-1.94,.43-3.1-.21,.79-.31,1.38-.61,2-.76,.78-.19,1.51-.27,1.37-1.43-.02-.2,.31-.77,.39-1.2,.53,.13,1.06,.27,1.6,.39,.41,.09,.82,.15,1.44,.26Z"/>
    <path class="cls-1" d="M213.32,202.28c.12,.51-.23,.88-1.05,.88-1.26,0-2.54,.08-3.79-.04-.63-.06-1.2-.57-1.84-.72-1.15-.28-2.33-.41-3.48-.69-.38-.09-.69-.48-1.02-.74,.06-.12,.12-.25,.19-.37,.94,0,1.9-.11,2.82,.03,1.09,.17,2.06,.37,3.22,.02,.71-.22,1.7,.41,2.55,.7,.72,.24,1.42,.55,2.4,.93Z"/>
    <path class="cls-1" d="M52.85,200.66c.86-.04,1.73-.04,2.59-.13,.72-.07,1.06,.27,1.1,.92,.05,.72-.48,.68-1.02,.81-1.61,.37-3.16,1.06-4.78,1.28-.9,.12-1.9-.44-2.85-.7,.12-.32,.17-.84,.38-.92,1.43-.5,2.89-.92,4.34-1.35,.07-.02,.16-.01,.24-.01,0,.04,0,.07,0,.11Z"/>
    <path class="cls-1" d="M44.57,201.89c.76-.13,1.5-.49,1.82,.66,.02,.07,.21,.16,.28,.14,.6-.22,1.05-.02,.91,.59-.07,.31-.71,.69-1.08,.68-.68-.02-1.29-.26-1.63,.64-.05,.15-.71,.16-1.06,.08-.45-.1-.87-.35-1.35-.56,.17-2.58,1.43-3.86,3.8-3.38-.66,.45-1.17,.8-1.68,1.15Z"/>
    <path class="cls-1" d="M229.53,203.16c-.18,.71-.51,.98-1.35,.88-1.14-.13-2.32,.1-3.48,.06-.39-.01-.76-.39-1.14-.6,.42-.23,.83-.5,1.28-.69,.34-.14,.83-.07,1.08-.29,1.07-.92,2.58-.75,3.44,.45,.06,.06,.11,.12,.17,.18Z"/>
    <path class="cls-1" d="M75.66,202.52v-1.85c1.8-.03,3.56-.07,5.32-.07,.16,0,.32,.26,.49,.41-.19,.15-.36,.42-.56,.44-.98,.08-1.99-.02-2.94,.18-.76,.16-1.46,.66-2.18,1.01-.04-.04-.08-.08-.13-.12Z"/>
    <path class="cls-1" d="M237.17,204.33c-.09,.18-.17,.52-.27,.52-.85,.04-1.71,.02-2.68,.02-.72-.91-.52-1.9,.44-2.99,.7,.4,1.45,.83,2.21,1.25-.05,.12-.09,.24-.14,.36-.54-.04-1.09-.07-1.63-.11-.01,.08-.03,.16-.04,.24,.59,.11,1.18,.21,1.77,.32,.12,.12,.23,.25,.35,.37Z"/>
    <path class="cls-1" d="M223.42,203.63q-1.46,1.27-3.61,.36c-.26-1.07,.79-1.29,1.24-1.28,.73,.02,1.44,.53,2.37,.92Z"/>
    <path class="cls-1" d="M258.67,201.91c-1.02-.14-2.04-.28-3.08-.43,.5-1.18,3.59-1.25,5.22-.02-.82,.14-1.43,.25-2.04,.36-.03,.03-.07,.06-.1,.09Z"/>
    <path class="cls-1" d="M237.17,204.33c-.12-.12-.23-.25-.35-.37,.99-.47,1.97-.94,2.96-1.41,0,0-.02,.03-.02,.03,.24,.47,.48,.94,.72,1.41-.4,.18-.8,.48-1.21,.51-.7,.04-1.41-.1-2.11-.17Z"/>
    <path class="cls-1" d="M105.5,203.01c-1.22,0-2.12,.03-3-.06-.08,0-.19-.9-.04-1.29,.08-.21,.8-.4,1.04-.27,.63,.36,1.15,.9,2.01,1.61Z"/>
    <path class="cls-1" d="M132.35,204.95c1.13-1.03,4.2-1.03,4.98,0h-4.98Z"/>
    <path class="cls-1" d="M229.36,202.97c.52-1.02,1.45-.71,2.28-.67,.07,0,.25,.56,.15,.74-.65,1.21-1.28,1.23-2.26,.11-.06-.06-.11-.12-.17-.18Z"/>
    <path class="cls-1" d="M109.97,200.54c.45,0,.92-.04,1.37,.01,.32,.04,.64,.19,.93,.33,.04,.02-.03,.41-.07,.41-.32,.04-.64,.02-1.03,.02,.09,.23,.2,.49,.31,.77-1.44,.31-1.64,.13-1.52-1.54Z"/>
    <path class="cls-1" d="M239.78,202.56c-1.01,.49-2.02,.9-3.03-.05,1.15-1.07,2.42-1.02,3.01,.07,0,0,.02-.03,.02-.03Z"/>
    <path class="cls-1" d="M216.97,204.37c-1.04-.12-2.08-.25-3.52-.42,.44-.47,.75-.98,.91-.94,.92,.24,1.8,.62,2.69,.95-.03,.14-.06,.27-.09,.41Z"/>
    <path class="cls-1" d="M183.93,202.17c.61-1.37,1.55-1,2.3-1.08,.12-.01,.41,.33,.39,.48-.03,.22-.25,.56-.42,.58-.68,.07-1.38,.03-2.27,.03Z"/>
    <path class="cls-1" d="M253.07,202.34c-.47,.35-.75,.73-1.09,.78-.29,.04-.63-.3-.95-.47,.32-.35,.58-.79,.97-1.01,.14-.08,.58,.37,1.07,.71Z"/>
    <path class="cls-1" d="M90.23,203.82c-.17-.42-.34-.83-.5-1.25,.47-.1,.95-.21,1.42-.31,.04,.12,.08,.23,.11,.35-.35,.4-.71,.8-1.06,1.2,0,0,.03,.01,.03,.01Z"/>
    <path class="cls-1" d="M49.04,141.57c-4.67,0-9.35,0-14.02,0-1.77,0-1.86-.08-1.86-1.79,0-8.31,0-16.61,0-24.92,0-1.44,.14-1.59,1.57-1.6,9.31,0,18.62-.14,27.92,.03,8.29,.16,13.69,5.9,13.71,13.7,.01,5.61-2.05,10.01-6.99,12.87-1.93,1.12-4.07,1.66-6.3,1.68-4.67,.04-9.35,.01-14.02,.01h0Z"/>
    <path class="cls-1" d="M229.23,175.18c-8.39,.19-15.47-8.21-17.12-16.76-1.51-7.83,.03-14.98,5.57-20.9,8.43-9.01,23.01-7.82,30.11,2.34,2.61,3.73,3.97,7.85,4.14,12.42,.22,5.95-1.32,11.26-5.12,15.89-3.92,4.76-9,6.96-17.58,7.02Z"/>
  </g>
</svg>