<?xml version="1.0" encoding="UTF-8"?>
<svg id="Ebene_2" data-name="Ebene 2" xmlns="http://www.w3.org/2000/svg" viewBox="0 0 199.71 159.91">
  <defs>
    <style>
      .cls-1 {
        fill: #fff;
      }
    </style>
  </defs>
  <g id="Ebene_1-2" data-name="Ebene 1">
    <g>
      <path class="cls-1" d="M39.84,144.33c-5.51,1.04-10.49,.3-15.13-2.44-7.11-4.19-11.08-12.69-9.2-20.69,.59-2.49-.19-3.3-2.13-4.33C5.07,112.47,.3,105.54,.01,96.1c-.29-9.43,3.72-16.87,11.71-22.06,.76-.49,1.53-.96,2.23-1.4-1.1-2.46-2.42-4.7-3.13-7.11-2.96-10.09,2.01-20.16,11.82-23.99,2.07-.81,2.89-1.48,2.47-4.04-1.4-8.73,3.85-17.55,12.17-20.79,1.91-.75,2.81-1.73,3.31-3.77C42.61,4.73,50.47-.78,58.47,.11c9.87,1.1,15.81,7.41,16.27,17.33,.05,1.08,.02,2.17,.02,3.25,0,39.99,0,79.98,0,119.98,0,5.92-1.45,11.28-6.19,15.18-10.08,8.28-24.97,3.3-28.16-9.34-.16-.64-.34-1.28-.57-2.18Z"/>
      <path class="cls-1" d="M104.89,159.34c-7.45,1.9-16.17-3.07-18.69-10.61-.8-2.4-1.25-5.04-1.26-7.58-.08-40.81-.08-81.63-.03-122.44,0-7.21,2.43-13.29,9.32-16.65,6.54-3.19,12.93-2.7,18.86,1.58,3.31,2.39,5.25,5.78,6.09,9.73,.35,1.66,1.07,2.53,2.67,3.15,9.2,3.56,14.2,12.24,12.51,21.89-.4,2.27,1,2.46,2.36,2.99,11.3,4.36,16.19,16.79,10.82,27.54-.55,1.11-1.28,2.13-1.91,3.18,.07,.19,.09,.44,.19,.47,3.67,1.34,4.93,3.83,3.98,7.65-.33,1.33-.05,2.81-.05,4.62-1.56,0-3.02,.03-4.48,0-6.87-.17-13.65,.31-20.18,2.64-15.71,5.6-25.4,16.66-29.11,32.8-3.13,13.6-.02,26.06,7.88,37.42,.33,.47,.61,.96,1.02,1.61Z"/>
      <path class="cls-1" d="M159.89,124.54c-6.84,.36-13.51-.02-19.87,1.22-9.19,1.79-15.03,9.92-15.25,19.45-.07,3.08,0,6.17-.02,9.25,0,1.93,.03,3.89-2.09,4.93-2.23,1.09-3.97-.02-5.36-1.48-6.15-6.46-10.78-13.73-11.88-22.84-1.87-15.54,4.23-27.22,17.26-35.46,5.59-3.54,11.94-4.5,18.42-4.59,6.15-.09,12.3-.02,18.8-.02,0-4.39-.03-8.61,.02-12.83,.01-1.15,.08-2.35,.4-3.44,1.02-3.49,4.26-4.63,7.23-2.58,.81,.56,1.54,1.26,2.25,1.97,9.02,9.01,18.04,18.02,27.05,27.04,3.83,3.83,3.83,5.79,0,9.62-9.07,9.08-18.14,18.15-27.22,27.22-.53,.53-1.05,1.08-1.65,1.52-3.62,2.63-7.51,.96-8-3.5-.2-1.81-.07-3.66-.07-5.5,0-3.08,0-6.16,0-9.99Z"/>
    </g>
  </g>
</svg>