<?xml version="1.0" encoding="UTF-8"?>
<svg id="Ebene_2" data-name="Ebene 2" xmlns="http://www.w3.org/2000/svg" xmlns:xlink="http://www.w3.org/1999/xlink" viewBox="0 0 55.2 91.69">
  <defs>
    <style>
      .cls-1 {
        fill: none;
      }

      .cls-2 {
        clip-path: url(#clippath);
      }

      .cls-3 {
        fill: #fff;
        fill-rule: evenodd;
      }
    </style>
    <clipPath id="clippath">
      <rect class="cls-1" y="0" width="55.2" height="91.69"/>
    </clipPath>
  </defs>
  <g id="Ebene_1-2" data-name="Ebene 1">
    <g class="cls-2">
      <path class="cls-3" d="M25.31,17.68C23.64,8.02,14.71-1.07,1.02,.1h0c0,.09-.02,.17-.02,.26-.02,.18-.04,.37-.04,.55,0,1-.02,2.01-.02,3.01-.02,2.83-.05,5.66-.03,8.49,.05,9.57,6.47,17.85,15.82,20.48,2.88,.8,5.8,.87,8.8,.75,0-.09,.01-.18,.02-.25,.01-.15,.03-.28,.03-.4,0-1.01,.01-2.01,.02-3.02,.02-3.02,.04-6.04,.03-9.06,0-1.08-.13-2.17-.31-3.24Zm16.83,14.29c4.77-2.63,7.76-8.55,6.83-13.56h0c-.06,0-.13-.02-.19-.03-.14-.02-.29-.04-.44-.04-.74,0-1.48-.01-2.22-.02-1.74-.02-3.47-.04-5.21,0-5.41,.16-9.42,2.65-12.03,7.28-1.41,2.5-1.76,5.22-1.53,8.11,.67,0,1.34,0,2,.01,2.05,.01,4.06,.03,6.08,.03,2.4,0,4.63-.63,6.72-1.78Z"/>
      <path class="cls-3" d="M34.74,38.59c-1.51,.01-3.03,.03-4.54,.04,.03,.58,.06,1.17,.09,1.75h0c.04,.82,.08,1.64,.13,2.46l3.09-.08,11.87-.29c.76-.02,1.32,.67,1.35,1.44,.03,.79-.65,1.42-1.35,1.44l-3.33,.08-11.49,.28v.22c.06,.93,.11,1.85,.16,2.77h0c.01,.26,.02,.53,.03,.79h0c.02,.55,.04,1.11,.1,1.65,.01,.07,.03,.14,.05,.21,.01,.02,.03,.04,.04,.06h0s.02,.01,.04,.02c.16,.05,.33,.09,.5,.12,.64,.06,1.28,.08,1.93,.1,.3,0,.59,.02,.88,.03l11.54,.49c.82,.04,1.43,.61,1.46,1.39,.03,.73-.7,1.43-1.46,1.39-1.24-.05-2.49-.1-3.73-.16-1.25-.05-2.49-.11-3.74-.16-.75-.03-1.5-.06-2.25-.09-1.44-.06-2.88-.11-4.32-.19-1.08-.06-2.28-.26-3.03-1.07-.52-.56-.73-1.21-.82-1.94-.04-.35-.06-.71-.07-1.06h0c0-.13-.01-.27-.02-.4-.11-2.11-.22-4.22-.33-6.33-.11-2.03-.21-4.06-.32-6.09-.02-.09-.03-.18-.04-.27-.04-.78,.7-1.43,1.46-1.44l3.46-.03c2.04-.02,4.07-.04,6.11-.06h0c2.04-.02,4.07-.04,6.11-.06,.82,0,1.43,.66,1.46,1.44,.04,.78-.7,1.43-1.46,1.44l-3.46,.03c-2.04,.02-4.07,.04-6.11,.06h0Zm-23.53,1.5h0s0,0,0,0c2.37-.24,4.74-.49,7.11-.73-1.12,.69-2.24,1.38-3.36,2.06-1.46,.9-2.92,1.79-4.38,2.69h-.01c-1.46,.9-2.91,1.8-4.37,2.69l-4.96,3.05c-.53,.33-.87,1.01-.67,1.63,.2,.62,.75,1.06,1.41,1.06,5.98-.03,11.95-.24,17.92-.63,1.68-.11,3.35-.24,5.03-.37,.39-.03,.75-.14,1.03-.42,.25-.25,.45-.66,.43-1.02-.03-.73-.65-1.51-1.46-1.44-5.9,.49-11.81,.8-17.73,.93,1.43-.88,2.85-1.75,4.28-2.63,1.46-.9,2.92-1.79,4.38-2.69h0s.01,0,.01,0c1.46-.89,2.91-1.79,4.37-2.68l4.96-3.05c.53-.33,.87-1.01,.67-1.63-.08-.24-.21-.45-.38-.63-.22-.24-.7-.46-1.03-.42-3.1,.32-6.19,.64-9.29,.96h0s0,0,0,0h0s0,0,0,0h0c-2.77,.29-5.54,.57-8.31,.86-.82,.09-1.64,.17-2.47,.25-.82,.08-1.64,.17-2.47,.25-.4,.04-.74,.13-1.03,.42-.25,.25-.45,.66-.43,1.02,.03,.71,.65,1.52,1.46,1.44h0c3.1-.32,6.19-.64,9.29-.96h0s0,0,0,0Zm-6.3,16.15l-.08-.4c-.14-.74-1.09-1.23-1.8-1-.81,.26-1.18,.98-1.02,1.77h0s1.06,5.54,1.06,5.54c-.26,.01-.52,.02-.78,.04-.75,.03-1.48,.64-1.44,1.44,.03,.75,.63,1.47,1.44,1.44,.44-.02,.89-.04,1.33-.06,.35,1.8,.69,3.6,1.04,5.4,.13,.65,.25,1.3,.38,1.95h0s0,0,0,0h0s0,0,0,0h0c.12,.65,.25,1.3,.37,1.95,.14,.74,1.09,1.23,1.8,1,.81-.26,1.18-.98,1.02-1.77h0s0-.04,0-.04c-.56-2.91-1.12-5.82-1.68-8.73,1.71-.16,3.41-.36,5.11-.61,1.58-.23,3.17-.51,4.74-.83,1.17,2.75,2.35,5.49,3.52,8.24,.13,.31,.32,.57,.66,.74,.31,.16,.77,.22,1.12,.12,.7-.19,1.29-.87,1.01-1.52-1.17-2.74-2.34-5.48-3.51-8.22,.42-.1,.84-.21,1.26-.33,1.57-.42,3.21-1.3,3.63-3.01,.19-.79,.09-1.65-.34-2.36-.35-.58-.88-1.05-1.47-1.38-1.25-.7-2.69-.87-4.09-.99-1.5-.13-3.01-.11-4.51,.02-2.97,.26-5.88,.89-8.78,1.58Zm.54,2.83l.13,.67,.42,2.2c1.3-.11,2.59-.25,3.88-.42,1.84-.25,3.68-.56,5.5-.93,.91-.19,1.82-.39,2.73-.6,.14-.03,.29-.07,.44-.1h0s0,0,0,0h0c.65-.15,1.31-.3,1.94-.54,.13-.06,.25-.12,.37-.2,.02-.02,.05-.03,.07-.05,.03-.02,.05-.04,.08-.06,.05-.04,.09-.09,.14-.14h0s.02-.03,.02-.03c.04-.06,.08-.12,.11-.18,0-.02,.01-.05,.02-.07,0-.02,0-.04,0-.06,0-.01,0-.03-.01-.04v-.02s-.02-.03-.03-.04h0c-.07-.08-.15-.15-.22-.22h0c-.07-.05-.14-.09-.21-.13-.09-.05-.18-.1-.27-.14-.51-.19-1.05-.3-1.59-.38-2.23-.27-4.49-.19-6.72,.1-2.29,.32-4.55,.83-6.8,1.38Zm15.59-.83c.07,.06,.1,.1,.13,.11,.02,.02,.05,.05,.09,.1-.04-.06-.09-.12-.11-.13,0,0,0,0,0,0-.03-.03-.07-.06-.1-.08Zm.1,.08s.03,.03,.04,.04c0,.01,0,.01-.01,0-.02-.02-.02-.03-.02-.03Zm-9.11,18.97c-1.06-.39-2.2-.58-3.33-.64-1.09-.05-2.23,.06-3.28,.36-1.97,.56-3.95,1.82-4.83,3.7-.47,1.02-.69,2.12-.56,3.23,.14,1.11,.49,2.19,1.14,3.12,1.25,1.78,3.28,2.96,5.45,3.3,1.32,.2,2.62,.19,3.94-.03,1.24-.21,2.43-.7,3.49-1.35,.65-.4,.96-1.3,.53-1.97-.42-.64-1.31-.94-2-.52-.38,.23-.77,.44-1.17,.62-.57,.22-1.15,.37-1.75,.47-.75,.08-1.51,.09-2.26,0-.56-.09-1.1-.23-1.63-.43-.28-.13-.56-.27-.82-.43-.09-.05-.17-.11-.26-.17-.06-.04-.17-.14-.19-.15h0s.05,.05,.16,.14c-.05-.04-.11-.09-.16-.13h0c-.08-.07-.16-.13-.24-.2-.13-.12-.26-.25-.38-.38-.03-.03-.06-.07-.09-.11-.03-.04-.07-.08-.1-.12l.03,.03c.04,.05,.1,.11,.12,.13,.02,.02,0,0-.12-.13,0-.01-.02-.02-.03-.03-.18-.26-.34-.53-.48-.82-.13-.33-.22-.67-.29-1.02-.03-.3-.03-.61,0-.91,.05-.26,.12-.51,.21-.75,.12-.24,.26-.47,.42-.7,.02-.02,.03-.04,.05-.05h0s0,0,0,0c.04-.05,.08-.09,.12-.13,.11-.12,.23-.24,.36-.35,.06-.05,.13-.11,.19-.16,.13-.09,.26-.18,.39-.26,.27-.17,.55-.31,.84-.44,.53-.2,1.08-.35,1.64-.43,.74-.08,1.48-.07,2.22,0,.64,.1,1.27,.25,1.88,.48,.34,.12,.83,.03,1.13-.14,.3-.17,.59-.52,.67-.86,.08-.37,.07-.78-.15-1.11-.21-.33-.5-.52-.87-.66h0Zm17.03-.15s-.05-.03-.08-.04h0s-.02-.02-.02-.02c-.07-.04-.13-.08-.19-.13l-.05-.03s-.06-.04-.08-.06c-.4-.26-.82-.48-1.25-.68-.54-.21-1.09-.36-1.66-.45-.5-.05-1-.05-1.5,0-.58,.1-1.15,.25-1.7,.47-.45,.2-.88,.43-1.29,.71-.1,.07-.2,.14-.3,.21-.01,0-.02,.02-.03,.03,0,0-.02,.01-.03,.02h0s-.05,.04-.07,.06c-.21,.17-.41,.36-.61,.54-.19,.19-.38,.39-.56,.6-.02,.03-.05,.06-.07,.08h0s0,0,0,0l-.04,.05c-.08,.1-.15,.21-.23,.32-.27,.39-.5,.81-.7,1.23-.21,.52-.36,1.06-.45,1.62-.06,.53-.05,1.07,0,1.6,.1,.6,.27,1.18,.49,1.75,.19,.4,.4,.8,.65,1.17,.06,.1,.13,.2,.2,.29,0,0,.01,.02,.02,.03,.01,.02,.03,.04,.04,.05l.02,.02s.02,.03,.04,.05l-.02-.03c.15,.18,.3,.35,.47,.52,.17,.18,.36,.35,.54,.51,.08,.06,.16,.13,.23,.19h0s.02,.02,.02,.02c-.18-.14-.14-.11-.06-.05h0s0,0,0,0c.06,.05,.15,.11,.19,.14,.36,.24,.74,.45,1.13,.63,.47,.18,.96,.31,1.45,.39,.55,.06,1.1,.05,1.65,0,.6-.09,1.18-.25,1.74-.47,.38-.17,.76-.37,1.11-.6,.1-.07,.21-.14,.31-.21l.04-.03c.18-.14,.35-.29,.51-.45,.17-.16,.34-.34,.49-.52,.02-.02,.04-.05,.06-.07,.06-.08,.12-.16,.17-.24,.22-.33,.41-.67,.57-1.03,.31-.77,.53-1.58,.65-2.4,.1-.82,.11-1.65,.02-2.48-.09-.55-.23-1.09-.43-1.61-.08-.18-.18-.36-.28-.53-.05-.09-.11-.18-.17-.27-.11-.11-.23-.23-.35-.33-.19-.17-.39-.34-.59-.5l-.06-.04Zm-9.44,9.44h-.01s-.02-.04-.02-.04h0s-.02-.03-.03-.05c-.06-.08-.1-.15,.07,.09Zm10.35-8.69l.05,.07,.03,.05s-.04-.05-.05-.08h0s0-.01-.01-.02c0,0,0-.01-.01-.02Zm.09,.12h0s0,.02,0,0Zm3.66,2.31c.01,.09,.02,.18,.03,.26,.09,.95,.03,1.9-.11,2.84-.12,.83-.32,1.65-.62,2.43-.39,1-.88,1.88-1.58,2.7-.65,.76-1.47,1.4-2.35,1.89-1.88,1.05-4.04,1.43-6.18,1.1-2.03-.31-3.95-1.48-5.24-3.04-1.4-1.68-2.26-3.74-2.31-5.93-.1-4.29,3.21-8.24,7.36-9.34,2.24-.6,4.57-.25,6.61,.81,.4,.21,.79,.44,1.16,.7,.38,.21,.74,.48,1.06,.77,.25,.23,.48,.48,.69,.74,.68,.72,1.27,1.52,1.75,2.36,.32,.58,.2,1.24-.25,1.68Zm-2.41-19.98h0s.1-.13,.1-.13c.18-.2,.36-.39,.55-.57,.14-.14,.29-.27,.44-.39,.07-.04,.15-.08,.22-.12,.19-.1,.39-.19,.59-.27,.56-.18,1.13-.3,1.71-.36,.88-.06,1.76,0,2.63,.13,.85,.17,1.68,.41,2.47,.76,.38,.19,.75,.4,1.09,.65,.07,.05,.14,.11,.21,.16l.03,.03s.03,.02,.04,.04c.01,0,.02,.02,.03,.03,.18,.17,.36,.34,.53,.53,.16,.18,.31,.36,.45,.55h0s.03,.04,.03,.04c.07,.11,.14,.22,.21,.33,.23,.38,.43,.78,.6,1.2,.2,.58,.34,1.18,.41,1.79,.04,.57,.01,1.13-.07,1.69-.11,.49-.26,.96-.46,1.42-.21,.41-.46,.8-.74,1.16-.03,.04-.1,.12-.15,.18-.06,.07-.09,.11-.04,.05-.05,.05-.09,.1-.14,.16-.18,.19-.37,.36-.56,.53-.18,.16-.37,.3-.56,.45-.23,.14-.21,.14-.15,.1-.1,.07-.2,.13-.31,.19-.42,.25-.86,.46-1.31,.63-.6,.2-1.21,.34-1.83,.41-.57,.04-1.14,.01-1.71-.07-.57-.12-1.12-.29-1.65-.52-.45-.22-.89-.49-1.3-.78-.11-.08-.23-.17-.34-.26l-.04-.04s-.05-.04-.08-.07c-.21-.19-.41-.39-.61-.6-.19-.21-.38-.42-.55-.65-.01-.01-.02-.03-.03-.04,0-.01-.02-.02-.03-.04l-.02-.03c-.08-.11-.15-.22-.22-.34-.28-.44-.51-.91-.71-1.39-.19-.56-.33-1.13-.4-1.72-.03-.52,0-1.04,.07-1.55,.12-.56,.3-1.1,.54-1.62,.23-.45,.49-.88,.79-1.28,.02-.03,.05-.06,.07-.1,.07-.07,.13-.15,.19-.24h0Zm9.62,10.01h0s.03-.02,.03-.02c-.01,0-.02,.01-.03,.02Zm0,0s-.06,.04-.1,.06l-.04,.03h0s.07-.04,.1-.06l.05-.03Zm-8.59-11.08s-.05,.04-.14,.09c.02-.01,.04-.03,.06-.04,.02-.02,.05-.03,.07-.05Zm2.88-3.63c-.09,0-.18,.01-.28,.02-.44-.49-1.14-.65-1.77-.34-.93,.46-1.82,1.03-2.62,1.71-.28,.19-.54,.41-.78,.65-.32,.31-.61,.65-.85,1.03-.3,.37-.57,.76-.81,1.17-1.22,2.04-1.69,4.41-1.16,6.73,.98,4.3,5.01,7.86,9.56,7.95,2.32,.04,4.54-.74,6.38-2.1,1.7-1.25,3.04-3.16,3.46-5.22,.44-2.17,.14-4.4-.89-6.37-.48-.92-1.12-1.79-1.9-2.49-.84-.76-1.74-1.3-2.78-1.74-.82-.35-1.68-.59-2.55-.74-1-.18-1.99-.29-3.01-.24Zm4.17,15.56s-.05,.02-.08,.03l.08-.03Zm-1.49,8.91c-.04,.05-.07,.1-.11,.15h0c-.48,.65-1.25,.9-2,.51-.32-.16-.58-.53-.67-.86-.09-.33-.06-.82,.15-1.11,.85-1.16,1.86-2.47,3.37-2.78,1.36-.27,2.89,.12,3.64,1.36,.73,1.22,.31,2.65-.07,3.93-.03,.11-.07,.22-.1,.33-.41,1.42-.89,2.82-1.41,4.2,.07-.02,.14-.05,.2-.07,4.11-1.41,8.48-2.13,12.82-2.14,.82,0,1.43,.66,1.46,1.44,.04,.78-.7,1.44-1.46,1.44-1.58,0-3.16,.1-4.73,.3-3.17,.44-6.28,1.26-9.25,2.46-.33,.14-.65,.28-.97,.42-.62,.28-1.26,.24-1.78-.23-.24-.21-.36-.52-.4-.83-.05-.34,.03-.61,.17-.92,.14-.3,.27-.61,.4-.91,.53-1.25,1.01-2.51,1.44-3.8,.23-.68,.44-1.36,.64-2.05,.03-.11,.06-.22,.1-.33,.15-.5,.3-1,.39-1.5,0-.09,0-.17,0-.26,0,0,0,0,0-.01,0,0,0,0,0,0,0,0,0,0-.01,0-.05-.01-.1-.03-.14-.04-.07,0-.14,0-.21,0-.07,.02-.14,.03-.21,.06-.05,.03-.1,.05-.15,.08-.04,.03-.09,.05-.13,.08-.01,0-.03,.02-.05,.03-.05,.04-.09,.08-.14,.12-.08,.07-.15,.14-.22,.21-.08,.08-.16,.17-.23,.26-.03,.03-.06,.07-.09,.1-.01,.02-.03,.03-.04,.05-.03,.03-.04,.05-.04,.05-.06,.08-.12,.17-.18,.25Zm1.93-1.19s.03,.02,.04,.02c0,0-.02-.01-.04-.02,0,0,0,0,0,0Z"/>
    </g>
  </g>
</svg>